<svg width="47" height="47" viewBox="0 0 47 47" fill="none" xmlns="http://www.w3.org/2000/svg">
<g clip-path="url(#clip0_3195_15218)">
<path fill-rule="evenodd" clip-rule="evenodd" d="M8.40046 38.6838H4.92276C4.59961 38.6838 4.33769 38.4219 4.33769 38.0988V30.8759C4.33769 30.5527 4.59961 30.2909 4.92276 30.2909H8.40046C8.72361 30.2909 8.98554 30.5527 8.98554 30.8759V38.0988C8.98554 38.4218 8.72361 38.6838 8.40046 38.6838ZM33.6231 42.1024H0.678824C0.355673 42.1024 0.09375 41.8406 0.09375 41.5174V17.5495C0.09375 16.3474 1.07192 15.3692 2.27407 15.3692H12.0595V8.8842C12.0595 7.01917 13.5767 5.50195 15.4416 5.50195H30.826C32.6909 5.50195 34.2081 7.01917 34.2081 8.8842V15.3692H43.9934C45.1956 15.3692 46.1737 16.3474 46.1737 17.5495V41.5174C46.1736 41.8406 45.9117 42.1024 45.5886 42.1024H33.6231ZM34.2081 16.5393V40.9325H45.0036V17.5495C45.0036 16.9925 44.5505 16.5393 43.9934 16.5393L34.2081 16.5393ZM13.2296 40.9325H18.2754V30.0954C18.2754 29.7723 18.5372 29.5104 18.8604 29.5104H27.4072C27.7303 29.5104 27.9922 29.7723 27.9922 30.0954V40.9325H33.038L33.0381 8.88416C33.0381 7.66437 32.0458 6.67196 30.8259 6.67196H15.4417C14.2219 6.67196 13.2295 7.66426 13.2295 8.88416L13.2296 40.9325ZM19.4453 40.9325H26.8222V30.6804H19.4453V40.9325ZM18.5106 16.8114H15.4803C15.1571 16.8114 14.8953 16.5496 14.8953 16.2264V9.93294C14.8953 9.60979 15.1571 9.34787 15.4803 9.34787H18.5106C18.8337 9.34787 19.0956 9.60979 19.0956 9.93294V16.2264C19.0956 16.5495 18.8337 16.8114 18.5106 16.8114ZM16.0652 15.6415H17.9257V10.5179H16.0652V15.6415ZM24.6489 16.8114H21.6185C21.2955 16.8114 21.0336 16.5496 21.0336 16.2264V9.93294C21.0336 9.60979 21.2955 9.34787 21.6185 9.34787H24.6489C24.9721 9.34787 25.234 9.60979 25.234 9.93294V16.2264C25.234 16.5495 24.9721 16.8114 24.6489 16.8114ZM22.2036 15.6415H24.064V10.5179H22.2036V15.6415ZM30.7873 16.8114H27.7569C27.4338 16.8114 27.1719 16.5496 27.1719 16.2264V9.93294C27.1719 9.60979 27.4338 9.34787 27.7569 9.34787H30.7873C31.1104 9.34787 31.3723 9.60979 31.3723 9.93294V16.2264C31.3723 16.5495 31.1103 16.8114 30.7873 16.8114ZM28.3419 15.6415H30.2023V10.5179H28.3419V15.6415ZM18.5106 26.8344H15.4802C15.1571 26.8344 14.8953 26.5724 14.8953 26.2494V19.9558C14.8953 19.6327 15.1571 19.3708 15.4802 19.3708H18.5106C18.8337 19.3708 19.0956 19.6327 19.0956 19.9558V26.2494C19.0956 26.5724 18.8337 26.8344 18.5106 26.8344ZM16.0652 25.6643H17.9257V20.5408H16.0652V25.6643ZM24.6489 26.8344H21.6185C21.2955 26.8344 21.0335 26.5724 21.0335 26.2494V19.9558C21.0335 19.6327 21.2955 19.3708 21.6185 19.3708H24.6489C24.9721 19.3708 25.234 19.6327 25.234 19.9558V26.2494C25.234 26.5724 24.9721 26.8344 24.6489 26.8344ZM22.2036 25.6643H24.0639V20.5408H22.2036V25.6643ZM30.7873 26.8344H27.7569C27.4337 26.8344 27.1719 26.5724 27.1719 26.2494V19.9558C27.1719 19.6327 27.4337 19.3708 27.7569 19.3708H30.7873C31.1104 19.3708 31.3722 19.6327 31.3722 19.9558V26.2494C31.3722 26.5724 31.1103 26.8344 30.7873 26.8344ZM28.3418 25.6643H30.2023V20.5408H28.3418V25.6643ZM1.26367 40.9325H12.0593V16.5392H2.27396C1.71684 16.5392 1.26369 16.9925 1.26369 17.5495L1.26367 40.9325ZM41.3446 27.1806H37.8668C37.5436 27.1806 37.2817 26.9187 37.2817 26.5956V19.3728C37.2817 19.0496 37.5436 18.7878 37.8668 18.7878H41.3446C41.6677 18.7878 41.9297 19.0496 41.9297 19.3728V26.5956C41.9297 26.9187 41.6677 27.1806 41.3446 27.1806ZM38.4517 26.0106H40.7596V19.9577H38.4517V26.0106ZM41.3446 38.6838H37.8668C37.5436 38.6838 37.2817 38.4219 37.2817 38.0988V30.8759C37.2817 30.5527 37.5436 30.2909 37.8668 30.2909H41.3446C41.6677 30.2909 41.9297 30.5527 41.9297 30.8759V38.0988C41.9297 38.4218 41.6677 38.6838 41.3446 38.6838ZM38.4517 37.5137H40.7596V31.4608H38.4517V37.5137ZM8.40029 27.1806H4.92259C4.59944 27.1806 4.33752 26.9186 4.33752 26.5956V19.3728C4.33752 19.0496 4.59944 18.7878 4.92259 18.7878H8.40029C8.72345 18.7878 8.98537 19.0496 8.98537 19.3728V26.5956C8.98537 26.9186 8.72345 27.1806 8.40029 27.1806ZM5.50755 26.0106H7.81532V19.9577H5.50755V26.0106ZM5.50755 37.5137H7.81532V31.4608H5.50755V37.5137Z" fill="#333333"/>
<path fill-rule="evenodd" clip-rule="evenodd" d="M34.2266 16.5371V40.9303H45.0221V17.5474C45.0221 16.9904 44.5689 16.5371 44.0118 16.5371L34.2266 16.5371ZM37.3003 26.5935V19.3706C37.3003 19.0475 37.5623 18.7857 37.8854 18.7857H41.3632C41.6864 18.7857 41.9483 19.0475 41.9483 19.3706V26.5935C41.9483 26.9165 41.6864 27.1785 41.3632 27.1785H37.8854C37.5623 27.1785 37.3003 26.9165 37.3003 26.5935ZM37.8854 30.2888H41.3632C41.6864 30.2888 41.9483 30.5506 41.9483 30.8737V38.0967C41.9483 38.4196 41.6864 38.6817 41.3632 38.6817H37.8854C37.5623 38.6817 37.3003 38.4198 37.3003 38.0967V30.8737C37.3003 30.5506 37.5623 30.2888 37.8854 30.2888Z" fill="#23B54B"/>
<path fill-rule="evenodd" clip-rule="evenodd" d="M33.0312 40.9324L33.0313 8.88408C33.0313 7.66429 32.039 6.67188 30.8191 6.67188H15.4349C14.2151 6.67188 13.2227 7.66418 13.2227 8.88408L13.2228 40.9324H18.2686V30.0954C18.2686 29.7722 18.5304 29.5103 18.8536 29.5103H27.4004C27.7235 29.5103 27.9854 29.7722 27.9854 30.0954V40.9324H33.0312ZM30.7805 26.8343H27.7501C27.427 26.8343 27.1651 26.5724 27.1651 26.2493V19.9558C27.1651 19.6326 27.427 19.3707 27.7501 19.3707H30.7805C31.1037 19.3707 31.3655 19.6326 31.3655 19.9558V26.2493C31.3655 26.5724 31.1036 26.8343 30.7805 26.8343ZM25.2272 19.9557V26.2493C25.2272 26.5724 24.9653 26.8343 24.6421 26.8343H21.6117C21.2887 26.8343 21.0268 26.5724 21.0268 26.2493V19.9557C21.0268 19.6326 21.2887 19.3707 21.6117 19.3707H24.6421C24.9653 19.3707 25.2272 19.6326 25.2272 19.9557ZM18.5038 16.8113H15.4734C15.1503 16.8113 14.8885 16.5495 14.8885 16.2263V9.93283C14.8885 9.60968 15.1503 9.34776 15.4734 9.34776H18.5038C18.8269 9.34776 19.0888 9.60968 19.0888 9.93283V16.2263C19.0888 16.5494 18.8269 16.8113 18.5038 16.8113ZM24.6421 16.8113H21.6117C21.2887 16.8113 21.0268 16.5495 21.0268 16.2263V9.93283C21.0268 9.60968 21.2887 9.34776 21.6117 9.34776H24.6421C24.9653 9.34776 25.2272 9.60968 25.2272 9.93283V16.2263C25.2272 16.5494 24.9653 16.8113 24.6421 16.8113ZM30.7805 16.8113H27.7501C27.427 16.8113 27.1651 16.5495 27.1651 16.2263V9.93283C27.1651 9.60968 27.427 9.34776 27.7501 9.34776H30.7805C31.1037 9.34776 31.3655 9.60968 31.3655 9.93283V16.2263C31.3655 16.5494 31.1036 16.8113 30.7805 16.8113ZM18.5038 26.8343H15.4734C15.1503 26.8343 14.8885 26.5723 14.8885 26.2493V19.9557C14.8885 19.6326 15.1503 19.3707 15.4734 19.3707H18.5038C18.8269 19.3707 19.0888 19.6326 19.0888 19.9557V26.2493C19.0888 26.5723 18.8269 26.8343 18.5038 26.8343Z" fill="#23B54B"/>
<path fill-rule="evenodd" clip-rule="evenodd" d="M12.0573 40.9303V16.5371H2.27199C1.71487 16.5371 1.26172 16.9904 1.26172 17.5474V40.9303L12.0573 40.9303ZM8.98344 30.8737V38.0967C8.98344 38.4196 8.72152 38.6817 8.39837 38.6817H4.92067C4.59752 38.6817 4.3356 38.4197 4.3356 38.0967V30.8737C4.3356 30.5506 4.59752 30.2888 4.92067 30.2888H8.39837C8.72152 30.2888 8.98344 30.5506 8.98344 30.8737ZM8.98344 26.5935C8.98344 26.9165 8.72152 27.1784 8.39837 27.1784H4.92067C4.59752 27.1784 4.3356 26.9165 4.3356 26.5935V19.3706C4.3356 19.0475 4.59752 18.7856 4.92067 18.7856H8.39837C8.72152 18.7856 8.98344 19.0475 8.98344 19.3706V26.5935Z" fill="#23B54B"/>
<path fill-rule="evenodd" clip-rule="evenodd" d="M7.81167 26.0099V19.957H5.50391V26.0099H7.81167Z" fill="#FFEF9B"/>
<path fill-rule="evenodd" clip-rule="evenodd" d="M7.81167 31.4609H5.50391V37.5141H7.81167V31.4609Z" fill="#FFEF9B"/>
<path fill-rule="evenodd" clip-rule="evenodd" d="M19.418 30.6816V40.9336H26.7949V30.6816H19.418Z" fill="#FFEF9B"/>
<path fill-rule="evenodd" clip-rule="evenodd" d="M28.3477 20.5391V25.6626H30.2082V20.5391H28.3477Z" fill="#FFEF9B"/>
<path fill-rule="evenodd" clip-rule="evenodd" d="M28.3477 15.6411H30.2082V10.5176H28.3477V15.6411Z" fill="#FFEF9B"/>
<path fill-rule="evenodd" clip-rule="evenodd" d="M24.083 15.6411V10.5176H22.2227V15.6411H24.083Z" fill="#FFEF9B"/>
<path fill-rule="evenodd" clip-rule="evenodd" d="M17.9034 15.6411V10.5176H16.043V15.6411H17.9034Z" fill="#FFEF9B"/>
<path fill-rule="evenodd" clip-rule="evenodd" d="M17.9034 20.5391H16.043V25.6626H17.9034V20.5391Z" fill="#FFEF9B"/>
<path fill-rule="evenodd" clip-rule="evenodd" d="M22.2227 20.5391V25.6626H24.083V20.5391H22.2227Z" fill="#FFEF9B"/>
<path fill-rule="evenodd" clip-rule="evenodd" d="M38.4609 19.9551V26.008H40.7689V19.9551H38.4609Z" fill="#FFEF9B"/>
<path fill-rule="evenodd" clip-rule="evenodd" d="M40.7689 31.4609H38.4609V37.5141H40.7689V31.4609Z" fill="#FFEF9B"/>
</g>
<defs>
<clipPath id="clip0_3195_15218">
<rect width="46.0801" height="46.08" fill="white" transform="translate(0.125 0.761719)"/>
</clipPath>
</defs>
</svg>
