<svg width="81" height="80" viewBox="0 0 81 80" fill="none" xmlns="http://www.w3.org/2000/svg">
<path d="M40.5731 3.82227C34.3015 3.82919 28.2887 6.32362 23.854 10.7583C19.4193 15.193 16.9249 21.2057 16.918 27.4773C16.918 39.7181 25.6455 50.5882 32.9674 57.5502C33.1103 57.6858 33.2834 57.7855 33.4724 57.8411C33.6614 57.8968 33.8609 57.9068 34.0545 57.8703C34.2481 57.8339 34.4303 57.752 34.586 57.6314C34.7418 57.5108 34.8668 57.355 34.9507 57.1767C35.4499 56.1087 36.2449 55.2062 37.2414 54.5762C38.2379 53.9462 39.3942 53.6151 40.5731 53.6223C41.7503 53.6269 42.9024 53.9633 43.8971 54.5929C44.8918 55.2225 45.6888 56.1197 46.1968 57.1817C46.281 57.3595 46.4061 57.5148 46.562 57.6349C46.7178 57.755 46.8998 57.8365 47.0932 57.8727C47.1684 57.8861 47.2447 57.8928 47.321 57.8926C47.6403 57.8927 47.9474 57.7701 48.1789 57.5502C55.5007 50.5882 64.2282 39.7181 64.2282 27.4773C64.2213 21.2057 61.7269 15.193 57.2922 10.7583C52.8575 6.32362 46.8447 3.82919 40.5731 3.82227ZM47.7705 30.7454L37.8104 43.1954C37.6347 43.4151 37.3898 43.5688 37.1155 43.6314C36.8412 43.6941 36.5539 43.662 36.3002 43.5404C36.0465 43.4189 35.8414 43.2149 35.7184 42.9619C35.5955 42.7089 35.5618 42.4217 35.623 42.1471L37.9387 31.7264L33.6011 28.4733C33.4676 28.3732 33.3556 28.2474 33.2717 28.1032C33.1878 27.959 33.1337 27.7994 33.1127 27.6339C33.0917 27.4684 33.1041 27.3004 33.1493 27.1398C33.1945 26.9792 33.2715 26.8294 33.3757 26.6991L43.3358 14.2491C43.5115 14.0295 43.7565 13.8758 44.0307 13.8131C44.305 13.7504 44.5924 13.7825 44.8461 13.9041C45.0998 14.0257 45.3048 14.2296 45.4278 14.4826C45.5507 14.7356 45.5844 15.0228 45.5233 15.2974L43.2075 25.7181L47.5451 28.9713C47.6786 29.0713 47.7906 29.1972 47.8745 29.3414C47.9584 29.4855 48.0125 29.6451 48.0335 29.8106C48.0545 29.9761 48.0421 30.1441 47.9969 30.3047C47.9517 30.4653 47.8747 30.6151 47.7705 30.7454Z" fill="#23B54B"/>
<path d="M37.9375 31.7259L35.6217 42.1465C35.5606 42.4211 35.5943 42.7083 35.7172 42.9614C35.8402 43.2144 36.0453 43.4183 36.2989 43.5399C36.5526 43.6614 36.84 43.6935 37.1143 43.6308C37.3885 43.5682 37.6335 43.4145 37.8092 43.1948L47.7693 30.7448C47.8735 30.6146 47.9505 30.4647 47.9957 30.3041C48.0409 30.1435 48.0533 29.9755 48.0323 29.81C48.0113 29.6445 47.9572 29.485 47.8733 29.3408C47.7894 29.1966 47.6774 29.0707 47.5439 28.9707L43.2063 25.7175L45.5221 15.2969C45.5832 15.0223 45.5495 14.735 45.4266 14.482C45.3036 14.229 45.0985 14.0251 44.8449 13.9035C44.5912 13.7819 44.3038 13.7499 44.0295 13.8125C43.7553 13.8752 43.5103 14.0289 43.3346 14.2486L33.3745 26.6986C33.2703 26.8288 33.1933 26.9787 33.1481 27.1393C33.1029 27.2998 33.0905 27.4679 33.1115 27.6333C33.1325 27.7988 33.1866 27.9584 33.2705 28.1026C33.3544 28.2468 33.4664 28.3726 33.5999 28.4727L37.9375 31.7259ZM41.9215 19.993L40.5956 25.9615C40.5442 26.1958 40.5617 26.44 40.6459 26.6646C40.73 26.8892 40.8773 27.0848 41.0699 27.2277L45.0228 30.192L39.2161 37.4504L40.542 31.4819C40.594 31.2481 40.5775 31.0044 40.4945 30.7798C40.4114 30.5552 40.2654 30.3594 40.0739 30.2157L36.121 27.2513L41.9215 19.993Z" fill="#19671A"/>
<path d="M40.5749 56.1133C39.8362 56.1133 39.114 56.3323 38.4998 56.7427C37.8856 57.1532 37.4069 57.7365 37.1242 58.419C36.8415 59.1014 36.7675 59.8524 36.9116 60.5769C37.0557 61.3015 37.4115 61.967 37.9338 62.4893C38.4562 63.0117 39.1217 63.3674 39.8462 63.5115C40.5707 63.6556 41.3217 63.5817 42.0042 63.299C42.6867 63.0163 43.27 62.5376 43.6804 61.9233C44.0908 61.3091 44.3099 60.587 44.3099 59.8483C44.3099 58.8577 43.9164 57.9077 43.2159 57.2072C42.5155 56.5068 41.5655 56.1133 40.5749 56.1133ZM40.5749 61.0933C40.3286 61.0933 40.0879 61.0203 39.8832 60.8835C39.6784 60.7467 39.5189 60.5522 39.4246 60.3247C39.3304 60.0972 39.3057 59.8469 39.3538 59.6054C39.4018 59.3639 39.5204 59.142 39.6945 58.9679C39.8686 58.7938 40.0905 58.6752 40.332 58.6272C40.5735 58.5792 40.8238 58.6038 41.0513 58.6981C41.2788 58.7923 41.4733 58.9519 41.6101 59.1566C41.7469 59.3613 41.8199 59.602 41.8199 59.8483C41.8199 60.1785 41.6887 60.4951 41.4552 60.7286C41.2217 60.9621 40.9051 61.0933 40.5749 61.0933Z" fill="#19671A"/>
<path d="M64.2282 27.4773C64.2282 21.2036 61.736 15.1868 57.2998 10.7507C52.8636 6.31448 46.8468 3.82227 40.5731 3.82227C34.2994 3.82227 28.2826 6.31448 23.8464 10.7507C19.4102 15.1868 16.918 21.2036 16.918 27.4773C16.918 39.3807 25.1686 49.9769 32.3561 56.9551C32.026 57.8836 31.8576 58.8619 31.8581 59.8473V68.5623C31.8581 68.8925 31.9892 69.2091 32.2227 69.4426C32.4562 69.6761 32.7729 69.8073 33.1031 69.8073V72.9198C33.1031 73.7453 33.431 74.5369 34.0147 75.1206C34.5984 75.7044 35.3901 76.0323 36.2156 76.0323C37.0411 76.0323 37.8328 75.7044 38.4165 75.1206C39.0002 74.5369 39.3281 73.7453 39.3281 72.9198V69.8073H41.8181V72.9198C41.8181 73.7453 42.146 74.5369 42.7297 75.1206C43.3135 75.7044 44.1051 76.0323 44.9306 76.0323C45.7561 76.0323 46.5478 75.7044 47.1315 75.1206C47.7152 74.5369 48.0432 73.7453 48.0432 72.9198V69.8073C48.3734 69.8073 48.69 69.6761 48.9235 69.4426C49.157 69.2091 49.2882 68.8925 49.2882 68.5623V59.8473C49.2886 58.8619 49.1202 57.8836 48.7902 56.9551C55.9776 49.9769 64.2282 39.3807 64.2282 27.4773ZM19.408 27.4773C19.408 21.864 21.6379 16.4806 25.6071 12.5114C29.5763 8.54214 34.9598 6.31227 40.5731 6.31227C46.1864 6.31227 51.5699 8.54214 55.5391 12.5114C59.5083 16.4806 61.7382 21.864 61.7382 27.4773C61.7382 38.2366 54.2844 48.031 47.575 54.6668C47.4729 54.5286 47.3547 54.4041 47.2451 54.2722C47.1642 54.1775 47.0882 54.0779 47.0048 53.9858C46.7744 53.7344 46.5295 53.4966 46.2715 53.2737C46.2454 53.25 46.2217 53.2239 46.1956 53.2015C45.9078 52.9606 45.605 52.7381 45.2892 52.5354C45.1933 52.4744 45.0925 52.4221 44.9941 52.3636C44.7675 52.2304 44.5385 52.1021 44.3007 51.9901C44.1762 51.9316 44.0517 51.8805 43.9272 51.827C43.7006 51.7311 43.4715 51.6465 43.2362 51.5705C43.1055 51.5269 42.9735 51.4846 42.839 51.446C42.59 51.3775 42.341 51.3215 42.0796 51.2792C41.9551 51.258 41.8418 51.2306 41.7198 51.2144C40.9585 51.1032 40.1852 51.1032 39.424 51.2144C39.2995 51.2306 39.1837 51.258 39.0629 51.2792C38.8139 51.3252 38.5537 51.3775 38.3035 51.446C38.169 51.4834 38.0358 51.5257 37.9026 51.5705C37.671 51.6465 37.4444 51.7311 37.2191 51.8195C37.0946 51.873 36.9626 51.9266 36.8368 51.9863C36.604 52.0984 36.3787 52.2229 36.1558 52.3598C36.0537 52.4196 35.9492 52.4731 35.8496 52.5379C35.5354 52.7389 35.2343 52.9597 34.9482 53.199C34.9133 53.2289 34.8834 53.2637 34.8486 53.2936C34.5993 53.5105 34.3624 53.7412 34.1389 53.9846C34.0543 54.0779 33.9771 54.1788 33.8899 54.2759C33.7803 54.4004 33.6646 54.5249 33.5637 54.6656C26.8606 48.0297 19.408 38.2353 19.408 27.4773ZM38.0831 67.3173H34.3481V59.8473C34.3462 58.8068 34.6057 57.7825 35.1027 56.8684C35.5997 55.9543 36.3182 55.1796 37.1925 54.6154C38.0667 54.0512 39.0686 53.7156 40.1063 53.6393C41.144 53.563 42.1843 53.7485 43.1316 54.1788C44.4752 54.7874 45.5608 55.8509 46.1968 57.1817C46.5937 58.0142 46.7992 58.925 46.7981 59.8473V67.3173H38.0831ZM36.8381 72.9198C36.8381 73.0849 36.7725 73.2432 36.6558 73.3599C36.539 73.4767 36.3807 73.5423 36.2156 73.5423C36.0505 73.5423 35.8921 73.4767 35.7754 73.3599C35.6587 73.2432 35.5931 73.0849 35.5931 72.9198V69.8073H36.8381V72.9198ZM45.5531 72.9198C45.5531 73.0849 45.4876 73.2432 45.3708 73.3599C45.2541 73.4767 45.0957 73.5423 44.9306 73.5423C44.7655 73.5423 44.6072 73.4767 44.4905 73.3599C44.3737 73.2432 44.3081 73.0849 44.3081 72.9198V69.8073H45.5531V72.9198Z" fill="#19671A"/>
</svg>
