<svg width="80" height="80" viewBox="0 0 80 80" fill="none" xmlns="http://www.w3.org/2000/svg">
<g clip-path="url(#clip0_1297_58197)">
<path fill-rule="evenodd" clip-rule="evenodd" d="M68.0416 27.3043C63.3165 27.3043 58.9402 24.8405 56.4877 20.8242H23.5134C21.0609 24.8405 16.6846 27.3043 11.9595 27.3043C7.05442 27.3043 2.5206 24.638 0.124313 20.3404C-0.224442 19.7216 0.236815 18.9566 0.945576 18.9566H8.10069L11.9595 13.7703L8.10069 8.59521H0.945576C0.225565 8.59521 -0.224442 7.81895 0.124313 7.20019C2.50935 2.90262 7.05442 0.236328 11.9595 0.236328C16.6846 0.236328 21.0609 2.70012 23.5134 6.71643H56.4877C58.9402 2.70012 63.3165 0.236328 68.0416 0.236328C72.9579 0.236328 77.4918 2.90262 79.8768 7.20019C80.2256 7.81895 79.7756 8.59521 79.0555 8.59521H71.9004L68.0416 13.7703L71.9004 18.9566H79.0555C79.7756 18.9566 80.2256 19.7216 79.8768 20.3516C77.4918 24.638 72.9579 27.3043 68.0416 27.3043ZM66.8829 79.7638H64.7228C61.989 79.7638 59.7615 77.5363 59.7615 74.8025V70.6737H20.0259V74.8025C20.0259 77.5363 17.7983 79.7638 15.0533 79.7638H12.8933C10.1595 79.7638 7.93194 77.5363 7.93194 74.8025V68.6149C7.93194 55.3284 9.81071 47.2171 13.5345 44.382C12.1058 44.067 10.7107 43.7633 10.362 43.6845C6.66067 42.8745 4.72564 38.2619 7.30193 36.1244C8.14569 35.4156 9.33821 35.1681 10.5645 35.4381L13.8608 36.1581C14.142 36.2144 14.3783 36.4056 14.502 36.6644L16.7746 41.412L19.6771 32.5693C20.3409 30.5668 21.3309 27.5293 24.0309 27.5293H55.7564C58.4565 27.5293 59.4465 30.5668 60.1102 32.5693L63.0915 41.682L65.4991 36.6644C65.6228 36.4056 65.8591 36.2144 66.1403 36.1581L69.4366 35.4381C71.8104 34.9206 73.948 36.3831 73.8692 38.8469C73.8017 41.0632 71.9454 43.1783 69.6391 43.6845C69.2791 43.7633 67.7941 44.0895 66.2978 44.4158C69.9992 47.2846 71.8554 55.3847 71.8554 68.6149V74.8025C71.8442 77.5363 69.6279 79.7638 66.8829 79.7638ZM61.629 70.6737V74.8025C61.629 76.5013 63.0128 77.8963 64.7228 77.8963H66.8829C68.5816 77.8963 69.9767 76.5013 69.9767 74.8025V70.6624C69.9204 70.6737 69.8529 70.6737 69.7966 70.6737H61.629ZM9.79946 68.5586C9.81071 68.6712 9.84447 68.7949 9.99072 68.7949H20.2059V64.8123C20.2059 61.7185 22.7147 59.1985 25.8085 59.1985H53.9789C57.0727 59.1985 59.5815 61.7185 59.5815 64.8123V68.7949H69.7966C69.8979 68.7949 69.9879 68.7162 69.9879 68.6149C69.9879 65.1273 70.0892 45.1245 62.889 45.1245H16.8983C9.74321 45.1245 9.79946 64.9361 9.79946 68.5586ZM9.81071 70.6624V74.8025C9.81071 76.5013 11.1945 77.8963 12.8933 77.8963H15.0533C16.7633 77.8963 18.1471 76.5013 18.1471 74.8025V70.6737H9.99072C9.92322 70.6737 9.86697 70.6737 9.81071 70.6624ZM47.7238 41.097C47.0038 41.097 46.5538 40.3207 46.9138 39.6907L51.3351 32.0293C51.5939 31.5793 52.1676 31.4218 52.6176 31.6806C53.0676 31.9393 53.2251 32.5131 52.9664 32.9631L48.5338 40.6357C48.3538 40.9282 48.0388 41.097 47.7238 41.097ZM37.6774 41.097C36.9686 41.097 36.5074 40.3207 36.8674 39.6907L41.3 32.0293C41.5587 31.5793 42.1325 31.4218 42.5825 31.6806C43.0212 31.9393 43.1787 32.5131 42.92 32.9631L38.4987 40.6357C38.3187 40.9282 38.0037 41.097 37.6774 41.097ZM27.6422 41.097C26.9222 41.097 26.4722 40.3207 26.8322 39.6907L31.2535 32.0293C31.5123 31.5793 32.0861 31.4218 32.5361 31.6806C32.9861 31.9393 33.1436 32.5131 32.8848 32.9631L28.4523 40.6357C28.2835 40.9282 27.9685 41.097 27.6422 41.097ZM52.4039 68.7949V61.0773H47.5551V68.7949H52.4039ZM54.2827 61.0885V68.7949H57.714V64.8123C57.714 62.8548 56.1952 61.246 54.2827 61.0885ZM45.6763 68.7949V61.0773H40.8274V68.7949H45.6763ZM38.9599 68.7949V61.0773H34.1111V68.7949H38.9599ZM32.2323 68.7949V61.0773H27.3835V68.7949H32.2323ZM25.5047 68.7949V61.0885C23.5922 61.246 22.0734 62.8548 22.0734 64.8123V68.7949H25.5047ZM9.60821 37.2044C8.6407 37.2044 7.96569 37.8007 7.99944 38.7907C8.04444 40.1407 9.30446 41.5357 10.767 41.8507L15.3908 42.8632L13.017 37.8907L10.1595 37.2719C9.96822 37.2269 9.78821 37.2044 9.60821 37.2044ZM66.9841 37.8907L64.6103 42.8632L69.2341 41.8507C71.4729 41.367 72.7779 38.6332 71.5067 37.5644C71.1017 37.2382 70.4942 37.1257 69.8417 37.2719L66.9841 37.8907ZM61.6403 43.2458L58.3215 33.1543C57.5452 30.7806 56.8814 29.408 55.7564 29.408H24.0309C22.9172 29.408 22.2422 30.7806 21.4659 33.1543L18.1471 43.2458H61.6403ZM60.7965 58.0622C57.8377 58.0622 55.4302 55.6659 55.4302 52.7071C55.4302 49.7484 57.8377 47.3408 60.7965 47.3408C63.7553 47.3408 66.1516 49.7484 66.1516 52.7071C66.1516 55.6659 63.7553 58.0622 60.7965 58.0622ZM60.7965 49.2196C58.8727 49.2196 57.309 50.7834 57.309 52.7071C57.309 54.6309 58.8727 56.1947 60.7965 56.1947C62.7203 56.1947 64.2841 54.6309 64.2841 52.7071C64.2841 50.7834 62.7203 49.2196 60.7965 49.2196ZM19.0021 58.0622C16.0433 58.0622 13.6358 55.6659 13.6358 52.7071C13.6358 49.7484 16.0433 47.3408 19.0021 47.3408C21.9497 47.3408 24.3572 49.7484 24.3572 52.7071C24.3572 55.6659 21.9497 58.0622 19.0021 58.0622ZM19.0021 49.2196C17.0783 49.2196 15.5146 50.7834 15.5146 52.7071C15.5146 54.6309 17.0783 56.1947 19.0021 56.1947C20.9146 56.1947 22.4784 54.6309 22.4784 52.7071C22.4784 50.7834 20.9146 49.2196 19.0021 49.2196ZM22.9734 18.9566H57.0277C57.3652 18.9566 57.6802 19.1366 57.849 19.4291C59.9077 23.1304 63.8116 25.4367 68.0416 25.4367C71.7204 25.4367 75.1405 23.7042 77.3343 20.8242H71.4279C71.1354 20.8242 70.8542 20.6891 70.6742 20.4529L66.1291 14.3328C65.8816 13.9953 65.8816 13.5453 66.1291 13.2078L70.6742 7.09894C70.8542 6.85143 71.1354 6.71643 71.4279 6.71643H77.3343C75.1405 3.83638 71.7204 2.10386 68.0416 2.10386C63.8116 2.10386 59.9077 4.41014 57.849 8.11145C57.6802 8.40396 57.3652 8.59521 57.0277 8.59521H22.9734C22.6359 8.59521 22.3209 8.40396 22.1522 8.11145C20.0934 4.41014 16.1896 2.11511 11.9595 2.11511C8.29194 2.11511 4.86064 3.83638 2.66685 6.71643H8.5732C8.8657 6.71643 9.14695 6.85143 9.32696 7.09894L13.872 13.2078C14.1195 13.5453 14.1195 13.9953 13.872 14.3328L9.32696 20.4529C9.14695 20.6891 8.8657 20.8242 8.5732 20.8242H2.66685C4.86064 23.7042 8.29194 25.4367 11.9595 25.4367C16.1896 25.4367 20.0934 23.1304 22.1522 19.4291C22.3209 19.1366 22.6359 18.9566 22.9734 18.9566Z" fill="black"/>
<path fill-rule="evenodd" clip-rule="evenodd" d="M22.9745 18.9563H57.0288C57.3663 18.9563 57.6813 19.1363 57.8501 19.4288C59.9089 23.1301 63.8127 25.4364 68.0427 25.4364C71.7215 25.4364 75.1416 23.7039 77.3354 20.8238H71.429C71.1365 20.8238 70.8553 20.6888 70.6753 20.4526L66.1302 14.3325C65.8827 13.995 65.8827 13.5449 66.1302 13.2074L70.6753 7.09859C70.8553 6.85109 71.1365 6.71609 71.429 6.71609H77.3354C75.1416 3.83604 71.7215 2.10352 68.0427 2.10352C63.8127 2.10352 59.9089 4.4098 57.8501 8.11111C57.6813 8.40361 57.3663 8.59487 57.0288 8.59487H22.9745C22.637 8.59487 22.322 8.40361 22.1533 8.11111C20.0945 4.4098 16.1907 2.11477 11.9606 2.11477C8.29306 2.11477 4.86175 3.83604 2.66797 6.71609H8.57431C8.86682 6.71609 9.14807 6.85109 9.32807 7.09859L13.8731 13.2074C14.1206 13.5449 14.1206 13.995 13.8731 14.3325L9.32807 20.4526C9.14807 20.6888 8.86682 20.8238 8.57431 20.8238H2.66797C4.86175 23.7039 8.29306 25.4364 11.9606 25.4364C16.1907 25.4364 20.0945 23.1301 22.1533 19.4288C22.322 19.1363 22.637 18.9563 22.9745 18.9563Z" fill="#333333"/>
<path fill-rule="evenodd" clip-rule="evenodd" d="M55.7578 29.4082H24.0323C22.9185 29.4082 22.2435 30.7807 21.4672 33.1545L18.1484 43.2459H61.6416L58.3228 33.1545C57.5466 30.7807 56.8828 29.4082 55.7578 29.4082ZM36.8687 39.6909L41.3013 32.0295C41.5601 31.5795 42.1338 31.422 42.5838 31.6807C43.0226 31.9395 43.1801 32.5133 42.9213 32.9633L38.5 40.6359C38.32 40.9284 38.005 41.0971 37.6787 41.0971C36.97 41.0971 36.5087 40.3209 36.8687 39.6909ZM47.7251 41.0971C47.0051 41.0971 46.5551 40.3209 46.9151 39.6909L51.3365 32.0295C51.5952 31.5795 52.169 31.422 52.619 31.6807C53.069 31.9395 53.2265 32.5133 52.9677 32.9633L48.5352 40.6359C48.3552 40.9284 48.0402 41.0971 47.7251 41.0971ZM32.8862 32.9633L28.4536 40.6359C28.2848 40.9284 27.9698 41.0971 27.6436 41.0971C26.9236 41.0971 26.4736 40.3209 26.8336 39.6909L31.2549 32.0295C31.5136 31.5795 32.0874 31.422 32.5374 31.6807C32.9874 31.9395 33.1449 32.5133 32.8862 32.9633Z" fill="#DFF8FF"/>
<path fill-rule="evenodd" clip-rule="evenodd" d="M22.4795 52.7073C22.4795 50.7835 20.9157 49.2197 19.0032 49.2197C17.0794 49.2197 15.5156 50.7835 15.5156 52.7073C15.5156 54.6311 17.0794 56.1948 19.0032 56.1948C20.9157 56.1948 22.4795 54.6311 22.4795 52.7073Z" fill="#F7CC3F"/>
<path fill-rule="evenodd" clip-rule="evenodd" d="M19.0034 47.3413C21.951 47.3413 24.3585 49.7488 24.3585 52.7076C24.3585 55.6664 21.951 58.0627 19.0034 58.0627C16.0446 58.0627 13.6371 55.6664 13.6371 52.7076C13.6371 49.7488 16.0446 47.3413 19.0034 47.3413ZM62.8904 45.125H16.8997C9.74454 45.125 9.80079 64.9366 9.80079 68.5591C9.81204 68.6716 9.8458 68.7954 9.99205 68.7954H20.2072V64.8128C20.2072 61.719 22.716 59.199 25.8098 59.199H53.9802C57.074 59.199 59.5828 61.719 59.5828 64.8128V68.7954H69.798C69.8992 68.7954 69.9892 68.7166 69.9892 68.6154C69.9892 65.1278 70.0905 45.125 62.8904 45.125ZM60.7978 58.0627C57.839 58.0627 55.4315 55.6664 55.4315 52.7076C55.4315 49.7488 57.839 47.3413 60.7978 47.3413C63.7566 47.3413 66.1529 49.7488 66.1529 52.7076C66.1529 55.6664 63.7566 58.0627 60.7978 58.0627Z" fill="#23B54B"/>
<path fill-rule="evenodd" clip-rule="evenodd" d="M57.3086 52.7073C57.3086 54.6311 58.8724 56.1948 60.7961 56.1948C62.7199 56.1948 64.2837 54.6311 64.2837 52.7073C64.2837 50.7835 62.7199 49.2197 60.7961 49.2197C58.8724 49.2197 57.3086 50.7835 57.3086 52.7073Z" fill="#F7CC3F"/>
<path fill-rule="evenodd" clip-rule="evenodd" d="M64.6094 42.8634L69.2332 41.8509C71.472 41.3671 72.777 38.6333 71.5057 37.5645C71.1007 37.2383 70.4932 37.1258 69.8407 37.272L66.9832 37.8908L64.6094 42.8634Z" fill="#23B54B"/>
<path fill-rule="evenodd" clip-rule="evenodd" d="M69.7965 70.6734H61.6289V74.8022C61.6289 76.501 63.0127 77.896 64.7227 77.896H66.8827C68.5815 77.896 69.9765 76.501 69.9765 74.8022V70.6621C69.9203 70.6734 69.8528 70.6734 69.7965 70.6734Z" fill="#384149"/>
<path fill-rule="evenodd" clip-rule="evenodd" d="M57.7165 68.7943V64.8117C57.7165 62.8542 56.1977 61.2454 54.2852 61.0879V68.7943H57.7165Z" fill="#23B54B"/>
<path fill-rule="evenodd" clip-rule="evenodd" d="M52.4035 68.7948V61.0771H47.5547V68.7948H52.4035Z" fill="#23B54B"/>
<path fill-rule="evenodd" clip-rule="evenodd" d="M45.6772 68.7948V61.0771H40.8284V68.7948H45.6772Z" fill="#23B54B"/>
<path fill-rule="evenodd" clip-rule="evenodd" d="M38.9621 68.7948V61.0771H34.1133V68.7948H38.9621Z" fill="#23B54B"/>
<path fill-rule="evenodd" clip-rule="evenodd" d="M32.2316 68.7948V61.0771H27.3828V68.7948H32.2316Z" fill="#23B54B"/>
<path fill-rule="evenodd" clip-rule="evenodd" d="M25.5055 68.7952V61.0889C23.593 61.2464 22.0742 62.8551 22.0742 64.8127V68.7952H25.5055Z" fill="#23B54B"/>
<path fill-rule="evenodd" clip-rule="evenodd" d="M18.1489 70.6734H9.9925C9.925 70.6734 9.86875 70.6734 9.8125 70.6621V74.8022C9.8125 76.501 11.1963 77.896 12.895 77.896H15.0551C16.7651 77.896 18.1489 76.501 18.1489 74.8022V70.6734Z" fill="#384149"/>
<path fill-rule="evenodd" clip-rule="evenodd" d="M10.7688 41.8504L15.3926 42.8629L13.0188 37.8904L10.1612 37.2716C9.96999 37.2266 9.78999 37.2041 9.60999 37.2041C8.64247 37.2041 7.96746 37.8004 8.00121 38.7904C8.04621 40.1404 9.30623 41.5354 10.7688 41.8504Z" fill="#23B54B"/>
</g>
<defs>
<clipPath id="clip0_1297_58197">
<rect width="80" height="80" fill="white"/>
</clipPath>
</defs>
</svg>
