<svg width="41" height="41" viewBox="0 0 41 41" fill="none" xmlns="http://www.w3.org/2000/svg">
<g clip-path="url(#clip0_3195_15337)">
<path d="M27.6094 22.8679L28.6001 24.351C29.1037 25.1043 29.783 25.6453 30.5431 25.8968L31.1392 26.0945V16.1341C29.9626 15.4892 28.786 15.4892 27.6094 16.1341V22.8679Z" fill="#333333"/>
<path d="M27.6094 13.0352H31.1392V16.1336H27.6094V13.0352Z" fill="#333333"/>
<path d="M38.2212 31.3872L38.0063 28.4457C37.585 27.2181 36.5763 26.2431 35.2687 25.8956L31.8345 24.9818C30.2406 24.5574 28.8318 23.6193 27.8262 22.3117L24.7451 18.3066C23.9559 17.2805 22.7354 16.6797 21.4411 16.6797C19.1088 16.6797 17.8575 16.6797 16.0972 16.6797C11.7988 22.1995 11.5996 28.7697 15.2748 34.3287C22.8012 35.7007 30.4523 35.6761 38.2213 34.3287V31.3872H38.2212Z" fill="#23B54B"/>
<path d="M16.1002 16.6797C15.1104 16.6797 13.9597 16.6797 12.3654 16.6797C10.3079 16.6797 8.55869 18.181 8.24572 20.2142L7.95236 22.118C7.75704 23.3894 6.6636 24.3276 5.37712 24.3276C4.01289 24.3276 2.90625 25.4308 2.90625 26.7985V28.4458L3.4357 30.1126L2.90625 31.3873V34.3287C6.99595 35.6996 11.1204 35.6772 15.2778 34.3287C12.8205 28.7713 13.0142 22.2011 16.1002 16.6797Z" fill="#23B54B"/>
<path d="M36.4442 11.6035V4.1125C36.4442 2.60727 35.2236 1.38672 33.7184 1.38672H30.3454C28.8402 1.38672 27.0312 2.60727 27.0312 4.1125V11.6035C27.0312 13.1088 28.8401 14.3293 30.3454 14.3293H33.7184C35.2236 14.3293 36.4442 13.1088 36.4442 11.6035Z" fill="#EEECFF"/>
<path d="M27.6151 11.6035V4.1125C27.6151 2.60727 28.8356 1.38672 30.3409 1.38672H25.0461C23.5408 1.38672 22.3203 2.60727 22.3203 4.1125V11.6035C22.3203 13.1088 23.5409 14.3293 25.0461 14.3293H30.3409C28.8356 14.3293 27.6151 13.1088 27.6151 11.6035Z" fill="#DED9F9"/>
<path d="M39.9711 35.8028C39.9711 34.9902 39.313 34.332 38.5003 34.332C37.3928 34.332 25.1725 34.332 15.2793 34.332C15.0604 35.5436 15.3988 36.5814 16.8914 37.2735H38.5002C39.3129 37.2736 39.9711 36.6155 39.9711 35.8028Z" fill="#23B54B"/>
<path d="M2.61141 34.332C1.79883 34.332 1.14062 34.9902 1.14062 35.8028C1.14062 36.6155 1.79875 37.2736 2.61141 37.2736H16.8893C16.2726 36.3451 15.7324 35.3616 15.2771 34.3321C8.80377 34.332 3.32665 34.332 2.61141 34.332Z" fill="#23B54B"/>
<path d="M38.2346 29.7369V31.3888H36.7442C35.9317 31.3888 35.2734 30.7307 35.2734 29.918C35.2734 29.1054 35.9316 28.4473 36.7442 28.4473H38.0197C38.1593 28.8537 38.2346 29.2882 38.2346 29.7369Z" fill="#FBE582"/>
<path d="M35.2711 36.3897C35.2711 34.9739 34.5012 33.7392 33.3583 33.0781C31.0356 33.873 30.7064 35.6409 31.1137 37.3506C31.3581 38.387 32.2119 39.5077 33.3594 39.7008C34.503 39.0387 35.2711 37.8024 35.2711 36.3897Z" fill="#333333"/>
<path d="M31.5357 37.2728C31.1285 35.5631 31.9418 33.8923 33.343 33.0788C32.7805 32.7535 32.1282 32.5664 31.4318 32.5664C28.9576 32.5664 27.141 34.8821 27.7106 37.2728C28.3009 39.7761 31.1481 40.9728 33.3441 39.7014C32.447 39.1819 31.7801 38.3091 31.5357 37.2728Z" fill="#333333"/>
<path d="M22.6621 24.447H18.216L17.6278 24.0287L17.0395 24.447H13.7081C13.0112 22.35 13.598 20.6137 14.9945 19.1523H17.0394L17.6277 19.5445L18.216 19.1523H20.7245C21.3324 19.1523 21.9074 19.4308 22.2846 19.9085L23.8809 21.933C24.6843 22.9512 23.9587 24.447 22.6621 24.447Z" fill="#EEECFF"/>
<path d="M13.1275 19.1523C12.0302 19.1523 11.1406 20.0419 11.1406 21.1392V22.4602C11.1406 23.5576 12.0302 24.447 13.1275 24.447H13.692C13.8777 22.595 14.3187 20.8183 14.979 19.1523H13.1275Z" fill="#DED9F9"/>
<path d="M13.5116 36.3878C13.5116 34.9509 12.7188 33.7003 11.5476 33.0469C9.28881 33.9105 8.78483 35.5388 9.19733 37.2703C9.44639 38.3263 10.1125 39.6758 11.5482 39.7286C12.7204 39.0742 13.5116 37.8218 13.5116 36.3878Z" fill="#333333"/>
<path d="M9.67528 37.2728C9.26278 35.5413 10.1013 33.8512 11.5341 33.0494C10.9834 32.7421 10.3493 32.5664 9.67411 32.5664C7.19981 32.5664 5.38301 34.8808 5.95285 37.2728C6.53856 39.7566 9.34552 40.9533 11.5347 39.7311C10.6117 39.2156 9.92435 38.3288 9.67528 37.2728Z" fill="#392E4D"/>
<path d="M9.68953 37.8615C10.5018 37.8615 11.1603 37.203 11.1603 36.3907C11.1603 35.5784 10.5018 34.9199 9.68953 34.9199C8.87724 34.9199 8.21875 35.5784 8.21875 36.3907C8.21875 37.203 8.87724 37.8615 9.68953 37.8615Z" fill="#DED9F9"/>
<path d="M31.4552 37.8615C32.2675 37.8615 32.9259 37.203 32.9259 36.3907C32.9259 35.5784 32.2675 34.9199 31.4552 34.9199C30.6429 34.9199 29.9844 35.5784 29.9844 36.3907C29.9844 37.203 30.6429 37.8615 31.4552 37.8615Z" fill="#EEECFF"/>
<path d="M4.37703 28.4473C5.18969 28.4473 5.84782 29.1054 5.84782 29.918C5.84782 30.7305 5.18969 31.3888 4.37703 31.3888H2.90625V28.4473L4.37703 28.4473Z" fill="#FBD354"/>
<path d="M28.2031 11.3877V9.03211H29.088C30.5465 9.03211 31.733 7.84554 31.733 6.38719C31.733 4.92867 30.5464 3.74219 29.088 3.74219H27.6172C27.2935 3.74219 27.0312 4.00445 27.0312 4.32812V11.3877C27.0312 11.7114 27.2935 11.9737 27.6172 11.9737C27.9409 11.9736 28.2031 11.7112 28.2031 11.3877ZM28.2031 4.91391H29.088C29.9002 4.91391 30.5611 5.57476 30.5611 6.38703C30.5611 7.19922 29.9002 7.86008 29.088 7.86008H28.2031V4.91391Z" fill="black"/>
<path d="M38.8173 33.7693V29.7382C38.8173 27.681 37.4288 25.8637 35.4295 25.3322C31.815 24.3683 31.9872 24.4211 31.738 24.3441V14.9152H33.721C35.5471 14.9152 37.0328 13.4296 37.0328 11.6035V4.11258C37.0328 2.28648 35.5471 0.800781 33.721 0.800781H25.0533C23.2272 0.800781 21.7414 2.28648 21.7414 4.11258V11.6037C21.7414 13.4298 23.2272 14.9154 25.0533 14.9154H27.0362V20.3137L25.2197 17.9523C24.326 16.7904 22.9172 16.0967 21.4513 16.0967H12.3725C10.0198 16.0967 8.02962 17.8162 7.67369 20.128L7.38025 22.032C7.22783 23.0244 6.38837 23.7447 5.38415 23.7447C3.69868 23.7447 2.32735 25.116 2.32735 26.8015V33.7669C1.3311 33.909 0.5625 34.7674 0.5625 35.8024C0.5625 36.9365 1.48516 37.8591 2.61922 37.8591H5.52126C6.12767 39.5708 7.76197 40.8005 9.67892 40.8005C11.5959 40.8005 13.2303 39.5707 13.8366 37.859H17.9039C18.2276 37.859 18.4899 37.5967 18.4899 37.273C18.4899 36.9494 18.2276 36.6871 17.9039 36.6871H14.0778C14.1196 36.0614 14.0316 35.4709 13.8349 34.9176H27.2902C27.0943 35.4688 27.0054 36.0589 27.0473 36.6871H20.6383C20.3146 36.6871 20.0524 36.9494 20.0524 37.273C20.0524 37.5967 20.3146 37.859 20.6383 37.859H27.2886C27.8949 39.5708 29.5293 40.8005 31.4462 40.8005C33.3632 40.8005 34.9975 39.5708 35.6039 37.8591H38.5059C39.6401 37.8591 40.5627 36.9364 40.5627 35.8024C40.5626 34.7742 39.8041 33.9198 38.8173 33.7693ZM37.6454 29.7382V30.8042H36.7409C36.253 30.8042 35.8562 30.4073 35.8562 29.9195C35.8562 29.4316 36.253 29.0346 36.7409 29.0346H37.5715C37.62 29.2626 37.6454 29.4981 37.6454 29.7382ZM22.9134 11.6036V4.11258C22.9134 2.93258 23.8733 1.97266 25.0533 1.97266H33.721C34.901 1.97266 35.8609 2.93258 35.8609 4.11258V11.6037C35.8609 12.7836 34.901 13.7435 33.721 13.7435H25.0533C23.8733 13.7434 22.9134 12.7835 22.9134 11.6036ZM28.2081 14.9153H30.5662V23.8582C29.0476 23.0595 28.2566 21.888 28.2081 21.8369V14.9153ZM3.4993 29.0346H4.38415C4.87204 29.0346 5.26892 29.4316 5.26892 29.9195C5.26892 30.4073 4.87204 30.8042 4.38415 30.8042H3.4993V29.0346ZM2.61922 36.6873C2.13133 36.6873 1.73438 36.2904 1.73438 35.8025C1.73438 35.3146 2.13133 34.9177 2.61922 34.9177H5.52282C5.32649 35.4698 5.23806 36.0603 5.27993 36.6873H2.61922ZM9.67885 39.6287C7.89337 39.6287 6.44079 38.1762 6.44079 36.3908C6.44079 34.6052 7.89337 33.1527 9.67885 33.1527C11.4643 33.1527 12.9169 34.6053 12.9169 36.3908C12.917 38.1762 11.4644 39.6287 9.67885 39.6287ZM13.2052 33.7457C11.4358 31.3928 7.92166 31.3932 6.15267 33.7457H3.4993V31.9761H4.38415C5.51821 31.9761 6.44079 31.0534 6.44079 29.9195C6.44079 28.7853 5.51813 27.8627 4.38415 27.8627H3.4993V26.8014C3.4993 25.762 4.34485 24.9165 5.38423 24.9165C6.97103 24.9165 8.29767 23.7782 8.53853 22.2102L8.83197 20.3063C9.10299 18.5461 10.592 17.2685 12.3725 17.2685H21.4513C22.556 17.2685 23.6175 17.7912 24.2908 18.6667C28.7843 22.8425 25.0556 23.7622 35.1283 26.4648C35.9479 26.6826 36.6302 27.1919 37.0769 27.8627H36.7409C35.6069 27.8627 34.6843 28.7853 34.6843 29.9194C34.6843 31.0534 35.6069 31.976 36.7409 31.976H37.6454V33.7456H34.9725C33.2032 31.3927 29.689 31.393 27.9199 33.7456H13.2052V33.7457ZM31.4462 39.6287C29.6607 39.6287 28.2081 38.1762 28.2081 36.3908C28.2081 34.6052 29.6607 33.1527 31.4462 33.1527C33.2317 33.1527 34.6842 34.6053 34.6842 36.3908C34.6843 38.1762 33.2317 39.6287 31.4462 39.6287ZM38.5059 36.6873H35.8451C35.8871 36.0566 35.7973 35.4666 35.6022 34.9177H38.5059C38.9937 34.9177 39.3907 35.3146 39.3907 35.8025C39.3907 36.2904 38.9937 36.6873 38.5059 36.6873Z" fill="black"/>
<path d="M9.6661 34.334C8.53195 34.334 7.60938 35.2566 7.60938 36.3907C7.60938 37.5248 8.53203 38.4473 9.6661 38.4473C10.8002 38.4473 11.7228 37.5247 11.7228 36.3907C11.7229 35.2566 10.8002 34.334 9.6661 34.334ZM9.6661 37.2755C9.17821 37.2755 8.78125 36.8786 8.78125 36.3907C8.78125 35.9028 9.17821 35.5059 9.6661 35.5059C10.154 35.5059 10.5509 35.9028 10.5509 36.3907C10.551 36.8786 10.1541 37.2755 9.6661 37.2755Z" fill="black"/>
<path d="M31.4552 34.334C30.321 34.334 29.3984 35.2566 29.3984 36.3907C29.3984 37.5248 30.3211 38.4473 31.4552 38.4473C32.5893 38.4473 33.5119 37.5247 33.5119 36.3907C33.512 35.2566 32.5893 34.334 31.4552 34.334ZM31.4552 37.2755C30.9673 37.2755 30.5703 36.8786 30.5703 36.3907C30.5703 35.9028 30.9673 35.5059 31.4552 35.5059C31.9431 35.5059 32.34 35.9028 32.34 36.3907C32.3401 36.8786 31.9431 37.2755 31.4552 37.2755Z" fill="black"/>
<path d="M15.6797 27.875C15.356 27.875 15.0938 28.1373 15.0938 28.4609V29.4023C15.0938 29.7259 15.356 29.9882 15.6797 29.9882C16.0034 29.9882 16.2656 29.7259 16.2656 29.4023V28.4609C16.2656 28.1373 16.0033 27.875 15.6797 27.875Z" fill="black"/>
<path d="M25.4492 27.877C25.1255 27.877 24.8633 28.1393 24.8633 28.4629V29.4042C24.8633 29.7278 25.1255 29.9902 25.4492 29.9902C25.7729 29.9902 26.0352 29.7278 26.0352 29.4042V28.4629C26.0352 28.1393 25.7729 27.877 25.4492 27.877Z" fill="black"/>
<path d="M22.2375 28.9333C21.9934 28.7207 21.6233 28.7461 21.4108 28.9901C20.9499 29.5189 20.1511 29.4948 19.7113 28.9901C19.4987 28.7462 19.1285 28.7208 18.8846 28.9333C18.6406 29.146 18.6152 29.5161 18.8278 29.76C19.7433 30.8105 21.3763 30.8133 22.2942 29.76C22.5069 29.5161 22.4814 29.146 22.2375 28.9333Z" fill="black"/>
<path d="M22.7369 19.5457C22.2457 18.9234 21.5094 18.5665 20.7168 18.5665C20.5055 18.5665 13.1497 18.5664 13.1353 18.5664C11.7167 18.5664 10.5625 19.7205 10.5625 21.1393V22.4602C10.5625 23.8788 11.7166 25.033 13.1353 25.033C14.1863 25.033 18.4277 25.033 18.8566 25.033C19.1803 25.033 19.4425 24.7707 19.4425 24.447C19.4425 24.1234 19.1803 23.8611 18.8566 23.8611H18.2057V19.7384H20.7168C21.1485 19.7384 21.5495 19.9327 21.8168 20.2715L23.4131 22.2958C23.9134 22.9302 23.4637 23.861 22.6543 23.861H21.591C21.2674 23.861 21.0051 24.1233 21.0051 24.447C21.0051 24.7706 21.2674 25.0329 21.591 25.0329H22.6543C24.4372 25.0329 25.4406 22.9737 24.3332 21.5701L22.7369 19.5457ZM17.0338 23.8612H13.1353C12.3628 23.8612 11.7344 23.2327 11.7344 22.4602V21.1393C11.7344 20.3668 12.3628 19.7383 13.1353 19.7383H17.0338V23.8612Z" fill="black"/>
</g>
<defs>
<clipPath id="clip0_3195_15337">
<rect width="40.0001" height="40" fill="white" transform="translate(0.566406 0.800781)"/>
</clipPath>
</defs>
</svg>
