<svg width="80" height="81" viewBox="0 0 80 81" fill="none" xmlns="http://www.w3.org/2000/svg">
<path d="M70.6639 73.3984H3.9597C3.25206 73.3984 2.57339 73.1173 2.07302 72.617C1.57264 72.1166 1.29153 71.4379 1.29153 70.7303V68.0621H73.332V70.7303C73.332 71.4379 73.0509 72.1166 72.5505 72.617C72.0502 73.1173 71.3715 73.3984 70.6639 73.3984Z" fill="#23B54B"/>
<path d="M73.3921 68.0499V53.375L64.0535 40.0342H26.6991L13.3583 50.7069L1.35156 52.0409V68.0499H73.3921Z" fill="#23B54B"/>
<path d="M29.3343 45.374H50.6697V53.3748H20.0001L29.3343 45.374Z" fill="#AAD5E8"/>
<path d="M73.332 68.0605H67.9982V60.0598H73.332V68.0605Z" fill="#FCF05A"/>
<path d="M1.35156 57.3785H9.35231V51.1553L1.35156 52.0447V57.3785Z" fill="#FCF05A"/>
<path d="M67.4257 45.374L73.3662 53.3748H56.0312V45.374H67.4257Z" fill="#AAD5E8"/>
<path d="M36.0315 57.3838H48.0326V60.0507H36.0315V57.3838Z" fill="#23B54B"/>
<path d="M30.6993 57.3838H33.3663V60.0507H30.6993V57.3838Z" fill="#23B54B"/>
<path d="M65.3438 40.0361H44.0084V32.0354H65.3438V40.0361Z" fill="#FFD782"/>
<path d="M58.6642 32.0283H61.3311V36.0287H58.6642V32.0283Z" fill="#AD6327"/>
<path d="M53.3322 32.0283H55.9991V36.0287H53.3322V32.0283Z" fill="#AD6327"/>
<path d="M47.9962 32.0283H50.6631V36.0287H47.9962V32.0283Z" fill="#AD6327"/>
<path d="M67.9961 32.0283H46.6608V24.0276H67.9961V32.0283Z" fill="#D9833B"/>
<path d="M61.3595 24.0215H64.0264V28.0219H61.3595V24.0215Z" fill="#AD6327"/>
<path d="M56.0314 24.0205H58.6983V28.0209H56.0314V24.0205Z" fill="#AD6327"/>
<path d="M50.6954 24.0205H53.3624V28.0209H50.6954V24.0205Z" fill="#AD6327"/>
<path d="M46.6915 32.0283H25.3562V24.0276H46.6915V32.0283Z" fill="#F9BB4B"/>
<path d="M40 24.0205H42.6669V28.0209H40V24.0205Z" fill="#AD6327"/>
<path d="M34.6367 24.0205H37.3036V28.0209H34.6367V24.0205Z" fill="#AD6327"/>
<path d="M29.3008 24.0205H31.9677V28.0209H29.3008V24.0205Z" fill="#AD6327"/>
<path d="M53.3322 24.0205H31.9968V16.0198H53.3322V24.0205Z" fill="#FFD782"/>
<path d="M46.6915 16.0117H49.3584V20.0121H46.6915V16.0117Z" fill="#AD6327"/>
<path d="M41.3672 16.0117H44.0341V20.0121H41.3672V16.0117Z" fill="#AD6327"/>
<path d="M36.0312 16.0107H38.6982V20.0111H36.0312V16.0107Z" fill="#AD6327"/>
<path d="M43.9727 40.0381H22.6373V32.0373H43.9727V40.0381Z" fill="#D9833B"/>
<path d="M37.3477 32.0283H40.0146V36.0287H37.3477V32.0283Z" fill="#AD6327"/>
<path d="M32.0312 32.0273H34.6982V36.0277H32.0312V32.0273Z" fill="#AD6327"/>
<path d="M26.6992 32.0273H29.3661V36.0277H26.6992V32.0273Z" fill="#AD6327"/>
<path d="M69.3125 36.0312H79.9802V38.6982H69.3125V36.0312Z" fill="#87CEE9"/>
<path d="M58.6642 17.3486H79.9995V20.0156H58.6642V17.3486Z" fill="#87CEE9"/>
<path d="M56.0314 12.0078H77.3667V14.6747H56.0314V12.0078Z" fill="#87CEE9"/>
<path d="M18.6688 40.005C8.54897 40.005 4.79887e-09 30.8453 4.79887e-09 20.0027C-8.33876e-05 16.195 1.0867 12.4663 3.13263 9.25491C5.17856 6.04351 8.09863 3.48281 11.5497 1.87373C15.0007 0.264643 18.8394 -0.32596 22.6145 0.171322C26.3897 0.668604 29.9444 2.23311 32.8611 4.68098C33.3625 5.10236 36.4895 7.92402 36.9562 8.4014L35.052 10.2683C34.6893 9.89891 31.6289 7.12926 31.1449 6.72121C28.6169 4.6001 25.536 3.2446 22.2643 2.814C18.9925 2.38341 15.6658 2.8956 12.6751 4.2904C9.68443 5.68521 7.15397 7.90466 5.38112 10.688C3.60826 13.4713 2.66666 16.7028 2.66697 20.0027C2.66697 29.3998 9.99447 37.338 18.6688 37.338V40.005Z" fill="#87CEE9"/>
<path d="M35.9681 10.6687H29.3008V8.0018H34.6346V2.66797H37.3015V9.33526C37.3015 9.68891 37.161 10.0281 36.911 10.2782C36.6609 10.5282 36.3217 10.6687 35.9681 10.6687Z" fill="#2D75BB"/>
<path d="M19.9699 24.0045H7.96875V21.3376H18.6364V18.6707H9.30221C8.94855 18.6707 8.60938 18.5302 8.35931 18.2801C8.10924 18.03 7.96875 17.6909 7.96875 17.3372V12.0034C7.96875 11.6497 8.10924 11.3106 8.35931 11.0605C8.60938 10.8104 8.94855 10.6699 9.30221 10.6699H21.3033V13.3368H10.6357V16.0038H19.9699C20.3235 16.0038 20.6627 16.1442 20.9128 16.3943C21.1628 16.6444 21.3033 16.9836 21.3033 17.3372V22.671C21.3033 23.0247 21.1628 23.3639 20.9128 23.6139C20.6627 23.864 20.3235 24.0045 19.9699 24.0045Z" fill="#55B56A"/>
<path d="M13.3008 22.6855H15.9677V26.6859H13.3008V22.6855Z" fill="#55B56A"/>
<path d="M13.3008 8.00195H15.9677V12.0023H13.3008V8.00195Z" fill="#55B56A"/>
<path d="M54.6922 78.7232C59.1108 78.7232 62.6929 75.1411 62.6929 70.7224C62.6929 66.3037 59.1108 62.7217 54.6922 62.7217C50.2735 62.7217 46.6914 66.3037 46.6914 70.7224C46.6914 75.1411 50.2735 78.7232 54.6922 78.7232Z" fill="#394D5C"/>
<path d="M20.036 78.7232C24.4547 78.7232 28.0368 75.1411 28.0368 70.7224C28.0368 66.3037 24.4547 62.7217 20.036 62.7217C15.6173 62.7217 12.0353 66.3037 12.0353 70.7224C12.0353 75.1411 15.6173 78.7232 20.036 78.7232Z" fill="#394D5C"/>
<path d="M19.9702 54.7077H50.6397C50.9934 54.7077 51.3325 54.5672 51.5826 54.3172C51.8327 54.0671 51.9732 53.7279 51.9732 53.3743V45.3735C51.9732 45.0198 51.8327 44.6807 51.5826 44.4306C51.3325 44.1805 50.9934 44.04 50.6397 44.04H29.3044C28.9859 44.0401 28.678 44.1541 28.4363 44.3614L19.1021 52.3622C18.8953 52.5395 18.7479 52.7759 18.6795 53.0396C18.6112 53.3033 18.6252 53.5816 18.7197 53.8371C18.8143 54.0925 18.9848 54.3129 19.2084 54.4686C19.4319 54.6242 19.6978 54.7077 19.9702 54.7077ZM29.7978 46.707H49.3062V52.0408H23.5705L29.7978 46.707Z" fill="black"/>
<path d="M74.6663 53.0717C74.6091 52.9099 74.5432 52.7514 74.4689 52.5967L66.3201 40.9539C66.5668 40.7057 66.7054 40.37 66.7057 40.02V33.3495H68.0398C68.3936 33.3495 68.7329 33.2089 68.9831 32.9587C69.2333 32.7085 69.3739 32.3692 69.3739 32.0154V24.0107C69.3739 23.6568 69.2333 23.3175 68.9831 23.0673C68.7329 22.8171 68.3936 22.6766 68.0398 22.6766H54.6986V16.006C54.6986 15.6522 54.5581 15.3128 54.3079 15.0626C54.0577 14.8124 53.7184 14.6719 53.3645 14.6719H32.0187C31.6649 14.6719 31.3256 14.8124 31.0754 15.0626C30.8252 15.3128 30.6846 15.6522 30.6846 16.006V22.6766H25.3482C24.9943 22.6766 24.655 22.8171 24.4048 23.0673C24.1546 23.3175 24.014 23.6568 24.014 24.0107V30.6812H22.6799C22.3261 30.6812 21.9868 30.8218 21.7366 31.072C21.4864 31.3222 21.3458 31.6615 21.3458 32.0154V40.02C21.3458 40.3739 21.4864 40.7132 21.7366 40.9634C21.9868 41.2136 22.3261 41.3542 22.6799 41.3542H22.8787L12.8075 49.4095L1.18469 50.701C0.858733 50.7377 0.557734 50.8932 0.339197 51.1379C0.120659 51.3825 -9.56566e-05 51.6991 5.6855e-08 52.0271V70.7047C5.6855e-08 71.7662 0.421674 72.7842 1.17226 73.5348C1.92284 74.2853 2.94085 74.707 4.00234 74.707H11.5868C12.3413 76.3032 13.5338 77.6523 15.0253 78.597C16.5169 79.5417 18.2461 80.0433 20.0117 80.0433C21.7773 80.0433 23.5065 79.5417 24.9981 78.597C26.4896 77.6523 27.6821 76.3032 28.4366 74.707H46.2737C47.0283 76.3032 48.2207 77.6523 49.7123 78.597C51.2038 79.5417 52.9331 80.0433 54.6986 80.0433C56.4642 80.0433 58.1935 79.5417 59.685 78.597C61.1766 77.6523 62.369 76.3032 63.1236 74.707H70.708C71.7695 74.707 72.7875 74.2853 73.5381 73.5348C74.2887 72.7842 74.7103 71.7662 74.7103 70.7047V53.3612C74.7103 53.3438 74.6837 53.1504 74.6663 53.0717ZM72.0421 66.7023H69.3739V61.3659H72.0421V66.7023ZM70.724 52.0271H57.3669V46.6906H66.7617L70.724 52.0271ZM64.0374 38.6859H45.3599V33.3495H48.0281V36.0177H50.6963V33.3495H53.3645V36.0177H56.0328V33.3495H58.701V36.0177H61.3692V33.3495H64.0374V38.6859ZM66.7057 30.6812H48.0281V25.3448H50.6963V28.013H53.3645V25.3448H56.0328V28.013H58.701V25.3448H61.3692V28.013H64.0374V25.3448H66.7057V30.6812ZM33.3528 17.3401H36.0211V20.0083H38.6893V17.3401H41.3575V20.0083H44.0257V17.3401H46.694V20.0083H49.3622V17.3401H52.0304V22.6766H33.3528V17.3401ZM26.6823 25.3448H29.3505V28.013H32.0187V25.3448H34.6869V28.013H37.3552V25.3448H40.0234V28.013H42.6916V25.3448H45.3599V30.6812H26.6823V25.3448ZM24.014 33.3495H26.6823V36.0177H29.3505V33.3495H32.0187V36.0177H34.6869V33.3495H37.3552V36.0177H40.0234V33.3495H42.6916V38.6859H24.014V33.3495ZM13.4879 52.0191C13.7391 51.9909 13.9773 51.8924 14.175 51.7349L27.1505 41.3542H63.3424L65.2101 44.0224H56.0328C55.6789 44.0224 55.3396 44.1629 55.0894 44.4131C54.8392 44.6633 54.6986 45.0027 54.6986 45.3565V53.3612C54.6986 53.715 54.8392 54.0544 55.0894 54.3046C55.3396 54.5547 55.6789 54.6953 56.0328 54.6953H72.0421V58.6976H68.0398C67.6859 58.6976 67.3466 58.8382 67.0964 59.0884C66.8462 59.3386 66.7057 59.6779 66.7057 60.0318V66.7023H63.1236C62.369 65.1061 61.1766 63.7571 59.685 62.8124C58.1935 61.8676 56.4642 61.3661 54.6986 61.3661C52.9331 61.3661 51.2038 61.8676 49.7123 62.8124C48.2207 63.7571 47.0283 65.1061 46.2737 66.7023H28.4366C27.6821 65.1061 26.4896 63.7571 24.9981 62.8124C23.5065 61.8676 21.7773 61.3661 20.0117 61.3661C18.2461 61.3661 16.5169 61.8676 15.0253 62.8124C13.5338 63.7571 12.3413 65.1061 11.5868 66.7023H2.66823V58.6976H9.33879C9.69262 58.6976 10.032 58.5571 10.2822 58.3069C10.5323 58.0567 10.6729 57.7174 10.6729 57.3635V52.3326L13.4879 52.0191ZM8.00468 52.6288V56.0294H2.66823V53.2278L8.00468 52.6288ZM4.00234 72.0388C3.64851 72.0388 3.30917 71.8982 3.05898 71.648C2.80878 71.3978 2.66823 71.0585 2.66823 70.7047V69.3706H10.7796C10.6373 70.2543 10.6373 71.1551 10.7796 72.0388H4.00234ZM20.0117 77.3752C18.6924 77.3752 17.4027 76.984 16.3057 76.2511C15.2088 75.5181 14.3538 74.4763 13.8489 73.2574C13.344 72.0385 13.2119 70.6973 13.4693 69.4033C13.7267 68.1093 14.362 66.9208 15.2949 65.9879C16.2278 65.055 17.4164 64.4197 18.7103 64.1623C20.0043 63.9049 21.3455 64.037 22.5644 64.5419C23.7833 65.0468 24.8251 65.9017 25.5581 66.9987C26.291 68.0957 26.6823 69.3854 26.6823 70.7047C26.6801 72.4732 25.9767 74.1686 24.7262 75.4191C23.4756 76.6697 21.7802 77.3731 20.0117 77.3752ZM29.2438 72.0388C29.3861 71.1551 29.3861 70.2543 29.2438 69.3706H45.4666C45.3243 70.2543 45.3243 71.1551 45.4666 72.0388H29.2438ZM54.6986 77.3752C53.3793 77.3752 52.0896 76.984 50.9927 76.2511C49.8957 75.5181 49.0407 74.4763 48.5358 73.2574C48.031 72.0385 47.8989 70.6973 48.1562 69.4033C48.4136 68.1093 49.0489 66.9208 49.9818 65.9879C50.9147 65.055 52.1033 64.4197 53.3973 64.1623C54.6912 63.9049 56.0325 64.037 57.2514 64.5419C58.4702 65.0468 59.512 65.9017 60.245 66.9987C60.978 68.0957 61.3692 69.3854 61.3692 70.7047C61.3671 72.4732 60.6636 74.1686 59.4131 75.4191C58.1626 76.6697 56.4671 77.3731 54.6986 77.3752ZM72.0421 70.7047C72.0421 71.0585 71.9016 71.3978 71.6514 71.648C71.4012 71.8982 71.0618 72.0388 70.708 72.0388H63.9307C64.073 71.1551 64.073 70.2543 63.9307 69.3706H72.0421V70.7047Z" fill="black"/>
<path d="M36.0315 57.3838H48.0326V60.0507H36.0315V57.3838Z" fill="black"/>
<path d="M30.6993 57.3838H33.3663V60.0507H30.6993V57.3838Z" fill="black"/>
<path d="M69.3125 36.0312H79.9802V38.6982H69.3125V36.0312Z" fill="black"/>
<path d="M58.6642 17.3486H79.9995V20.0156H58.6642V17.3486Z" fill="black"/>
<path d="M56.0314 12.0078H77.3667V14.6747H56.0314V12.0078Z" fill="black"/>
<path d="M18.6688 40.005V37.338C9.99446 37.338 2.66697 29.3998 2.66697 20.0027C2.66666 16.7028 3.60825 13.4713 5.38111 10.688C7.15397 7.90466 9.68442 5.68521 12.6751 4.2904C15.6658 2.8956 18.9925 2.38341 22.2643 2.814C25.536 3.2446 28.6169 4.6001 31.1448 6.72121C31.3342 6.88123 31.9196 7.40396 32.5823 8.00136H29.3366V10.6683H36.0041C36.3577 10.6683 36.6969 10.5278 36.947 10.2778C37.1971 10.0277 37.3375 9.68851 37.3375 9.33484V2.66742H34.6706V6.29316C33.8572 5.55841 33.0877 4.87167 32.861 4.68098C29.9444 2.23311 26.3896 0.668604 22.6145 0.171322C18.8394 -0.32596 15.0007 0.264643 11.5497 1.87373C8.09862 3.48281 5.17855 6.04351 3.13263 9.25491C1.0867 12.4663 -8.33875e-05 16.195 4.79887e-09 20.0027C4.79887e-09 30.8453 8.54896 40.005 18.6688 40.005Z" fill="black"/>
<path d="M21.3033 13.3358V10.6689H15.9695V8.00195H13.3026V10.6689H9.30221C8.94855 10.6689 8.60938 10.8094 8.35931 11.0594C8.10924 11.3095 7.96875 11.6487 7.96875 12.0023V17.3362C7.96875 17.6898 8.10924 18.029 8.35931 18.2791C8.60938 18.5291 8.94855 18.6696 9.30221 18.6696H18.6364V21.3365H7.96875V24.0035H13.3026V26.6704H15.9695V24.0035H19.9699C20.3235 24.0035 20.6627 23.863 20.9128 23.6129C21.1628 23.3628 21.3033 23.0236 21.3033 22.67V17.3362C21.3033 16.9825 21.1628 16.6433 20.9128 16.3933C20.6627 16.1432 20.3235 16.0027 19.9699 16.0027H10.6357V13.3358H21.3033Z" fill="black"/>
</svg>
