<svg width="81" height="80" viewBox="0 0 81 80" fill="none" xmlns="http://www.w3.org/2000/svg">
<g clip-path="url(#clip0_3195_15392)">
<path d="M26.6055 62.3008V27.6026H48.2437C48.9041 27.6026 49.5374 27.3403 50.0044 26.8733C50.4714 26.4064 50.7337 25.773 50.7337 25.1126V22.7596C50.7266 20.9719 51.2505 19.2223 52.2391 17.7328C53.2277 16.2433 54.6363 15.081 56.2864 14.3932C56.5351 14.2971 56.7886 14.214 57.0459 14.1442L57.1579 14.1068C57.35 14.0522 57.5455 14.0106 57.7431 13.9823C57.9139 13.9352 58.0891 13.906 58.266 13.8952C58.365 13.8807 58.4648 13.8724 58.5648 13.8703C58.8247 13.8351 59.0869 13.8185 59.3492 13.8205C60.4815 13.8172 61.6033 14.0378 62.65 14.4696C63.6968 14.9014 64.6479 15.5359 65.4485 16.3365C66.2492 17.1372 66.8837 18.0883 67.3155 19.135C67.7473 20.1818 67.9679 21.3036 67.9646 22.4359V62.3008C67.9646 63.2914 67.5711 64.2414 66.8706 64.9418C66.1702 65.6423 65.2202 66.0358 64.2296 66.0358H30.3405C29.3499 66.0358 28.3999 65.6423 27.6994 64.9418C26.999 64.2414 26.6055 63.2914 26.6055 62.3008Z" fill="#23B54B"/>
<path d="M45.745 28.851H18.1569C17.1663 28.851 16.2163 28.4575 15.5158 27.757C14.8154 27.0566 14.4219 26.1066 14.4219 25.116V22.4417C14.4248 19.8272 15.4648 17.3205 17.3136 15.4718C19.1624 13.623 21.669 12.583 24.2836 12.5801H56.8505C57.1807 12.5801 57.4974 12.7112 57.7308 12.9447C57.9643 13.1782 58.0955 13.4949 58.0955 13.8251C58.0955 14.1553 57.9643 14.4719 57.7308 14.7054C57.4974 14.9389 57.1807 15.0701 56.8505 15.0701C54.8962 15.0724 53.0227 15.8498 51.6409 17.2318C50.2591 18.6138 49.482 20.4875 49.48 22.4417V25.116C49.48 26.1066 49.0865 27.0566 48.3861 27.757C47.6856 28.4575 46.7356 28.851 45.745 28.851ZM24.2836 15.0701C22.3292 15.0724 20.4555 15.8498 19.0736 17.2317C17.6916 18.6137 16.9142 20.4873 16.9119 22.4417V25.116C16.9119 25.4462 17.0431 25.7628 17.2765 25.9963C17.51 26.2298 17.8267 26.361 18.1569 26.361H45.745C46.0752 26.361 46.3919 26.2298 46.6254 25.9963C46.8589 25.7628 46.99 25.4462 46.99 25.116V22.4417C46.9891 21.0482 47.2843 19.6703 47.8561 18.3994C48.4279 17.1286 49.2632 15.9937 50.3067 15.0701H24.2836Z" fill="#1E272E"/>
<path d="M61.7338 67.2815H27.8472C26.5264 67.2815 25.2597 66.7568 24.3258 65.8229C23.3919 64.8889 22.8672 63.6222 22.8672 62.3015V27.6046C22.8672 27.2744 22.9984 26.9577 23.2318 26.7242C23.4653 26.4907 23.782 26.3596 24.1122 26.3596H45.7467C46.0769 26.3596 46.3936 26.2284 46.627 25.9949C46.8605 25.7614 46.9917 25.4447 46.9917 25.1146V22.764C46.9569 20.2288 47.8803 17.7739 49.5773 15.8901C51.2743 14.0064 53.6199 12.8326 56.145 12.6036C57.497 12.5025 58.8554 12.682 60.1347 13.1309C61.4141 13.5798 62.5868 14.2883 63.5793 15.2121C64.5718 16.1358 65.3625 17.2547 65.902 18.4986C66.4414 19.7425 66.7178 21.0845 66.7138 22.4403V62.3015C66.7138 63.6222 66.1892 64.8889 65.2552 65.8229C64.3213 66.7568 63.0546 67.2815 61.7338 67.2815ZM25.3572 28.8496V62.3015C25.3572 62.9618 25.6195 63.5952 26.0865 64.0622C26.5535 64.5291 27.1868 64.7915 27.8472 64.7915H61.7338C62.3942 64.7915 63.0276 64.5291 63.4945 64.0622C63.9615 63.5952 64.2238 62.9618 64.2238 62.3015V22.4403C64.2278 21.4261 64.0217 20.4222 63.6186 19.4916C63.2154 18.561 62.624 17.724 61.8814 17.0332C61.1388 16.3425 60.2613 15.813 59.304 15.4781C58.3468 15.1432 57.3305 15.0101 56.3193 15.0873C54.4224 15.271 52.6646 16.1635 51.3971 17.5866C50.1296 19.0097 49.4456 20.8586 49.4817 22.764V25.1146C49.4817 26.1051 49.0882 27.0552 48.3877 27.7556C47.6873 28.456 46.7373 28.8496 45.7467 28.8496H25.3572Z" fill="#1E272E"/>
<path d="M60.0382 57.0289H29.7958C29.4656 57.0289 29.1489 56.8977 28.9154 56.6642C28.682 56.4307 28.5508 56.1141 28.5508 55.7839V41.3954C28.5508 41.0652 28.682 40.7485 28.9154 40.515C29.1489 40.2816 29.4656 40.1504 29.7958 40.1504C30.126 40.1504 30.4427 40.2816 30.6761 40.515C30.9096 40.7485 31.0408 41.0652 31.0408 41.3954V54.5389H60.0382C60.3684 54.5389 60.6851 54.67 60.9186 54.9035C61.1521 55.137 61.2833 55.4537 61.2833 55.7839C61.2833 56.1141 61.1521 56.4307 60.9186 56.6642C60.6851 56.8977 60.3684 57.0289 60.0382 57.0289Z" fill="#1E272E"/>
<path d="M34.7114 51.4283C34.444 51.4287 34.1837 51.3429 33.9689 51.1838C33.7541 51.0247 33.5961 50.8007 33.5185 50.5449C33.4409 50.2891 33.4476 50.0151 33.5378 49.7634C33.628 49.5118 33.7967 49.2958 34.0192 49.1475L38.414 46.218C38.6183 46.0818 38.8583 46.009 39.1038 46.0088H44.5469L50.0748 41.8642C50.2903 41.7026 50.5524 41.6152 50.8218 41.6152H59.6103C59.9405 41.6152 60.2572 41.7464 60.4906 41.9799C60.7241 42.2134 60.8553 42.53 60.8553 42.8602C60.8553 43.1904 60.7241 43.5071 60.4906 43.7406C60.2572 43.9741 59.9405 44.1052 59.6103 44.1052H51.2301L45.7036 48.2498C45.488 48.4115 45.2259 48.4988 44.9565 48.4988H39.4785L35.3986 51.2192C35.1951 51.3549 34.956 51.4276 34.7114 51.4283Z" fill="#1E272E"/>
<path d="M49.3531 38.2459H28.8466C28.5164 38.2459 28.1997 38.1147 27.9662 37.8812C27.7327 37.6477 27.6016 37.3311 27.6016 37.0009C27.6016 36.6707 27.7327 36.354 27.9662 36.1205C28.1997 35.887 28.5164 35.7559 28.8466 35.7559H49.3531C49.6833 35.7559 50 35.887 50.2335 36.1205C50.4669 36.354 50.5981 36.6707 50.5981 37.0009C50.5981 37.3311 50.4669 37.6477 50.2335 37.8812C50 38.1147 49.6833 38.2459 49.3531 38.2459Z" fill="#1E272E"/>
<path d="M42.0299 33.8513H28.8466C28.5164 33.8513 28.1997 33.7202 27.9662 33.4867C27.7327 33.2532 27.6016 32.9365 27.6016 32.6063C27.6016 32.2761 27.7327 31.9595 27.9662 31.726C28.1997 31.4925 28.5164 31.3613 28.8466 31.3613H42.0299C42.3601 31.3613 42.6768 31.4925 42.9103 31.726C43.1438 31.9595 43.275 32.2761 43.275 32.6063C43.275 32.9365 43.1438 33.2532 42.9103 33.4867C42.6768 33.7202 42.3601 33.8513 42.0299 33.8513Z" fill="#1E272E"/>
<path d="M59.6113 33.8513H44.9638C44.6336 33.8513 44.3169 33.7202 44.0834 33.4867C43.8499 33.2532 43.7188 32.9365 43.7188 32.6063C43.7188 32.2761 43.8499 31.9595 44.0834 31.726C44.3169 31.4925 44.6336 31.3613 44.9638 31.3613H59.6113C59.9415 31.3613 60.2581 31.4925 60.4916 31.726C60.7251 31.9595 60.8563 32.2761 60.8563 32.6063C60.8563 32.9365 60.7251 33.2532 60.4916 33.4867C60.2581 33.7202 59.9415 33.8513 59.6113 33.8513Z" fill="#1E272E"/>
<path d="M42.0299 61.6814H28.8466C28.5164 61.6814 28.1997 61.5502 27.9662 61.3168C27.7327 61.0833 27.6016 60.7666 27.6016 60.4364C27.6016 60.1062 27.7327 59.7895 27.9662 59.5561C28.1997 59.3226 28.5164 59.1914 28.8466 59.1914H42.0299C42.3601 59.1914 42.6768 59.3226 42.9103 59.5561C43.1438 59.7895 43.275 60.1062 43.275 60.4364C43.275 60.7666 43.1438 61.0833 42.9103 61.3168C42.6768 61.5502 42.3601 61.6814 42.0299 61.6814Z" fill="#1E272E"/>
</g>
<defs>
<clipPath id="clip0_3195_15392">
<rect width="79.6805" height="79.68" fill="white" transform="translate(0.75 0.0898438)"/>
</clipPath>
</defs>
</svg>
