<svg width="80" height="80" viewBox="0 0 80 80" fill="none" xmlns="http://www.w3.org/2000/svg">
<g clip-path="url(#clip0_1297_58216)">
<path d="M9.53125 64.6094C5 64.6094 1.32812 60.9375 1.32812 56.4062V48.2031C1.32812 43.6734 5 40 9.53125 40C14.0584 40 17.7344 43.6717 17.7344 48.2031L19.8438 52.3047L17.7344 56.4062C17.7344 60.9375 14.0625 64.6094 9.53125 64.6094Z" fill="#6ED5A1"/>
<path d="M70.4688 64.6094C65.9391 64.6094 62.2656 60.9375 62.2656 56.4062L60.0391 52.3047L62.2656 48.2031C62.2656 43.6734 65.9391 40 70.4688 40C74.9959 40 78.6719 43.6717 78.6719 48.2031V56.4062C78.6719 60.9375 75 64.6094 70.4688 64.6094Z" fill="#6ED5A1"/>
<path d="M17.7344 9.53125V78.6719H31.7969L40 75.1562L48.2031 78.6719H62.2656C62.2656 76.4584 62.2656 12.0677 62.2656 9.53125H17.7344Z" fill="#23B54B"/>
<path d="M31.7969 57.5781H48.2031V78.6719H31.7969V57.5781Z" fill="#685E68"/>
<path d="M23.5938 22.4219H30.625V29.4531H23.5938V22.4219Z" fill="#62DBFB"/>
<path d="M23.5938 34.1406H30.625V41.1719H23.5938V34.1406Z" fill="#62DBFB"/>
<path d="M23.5938 45.8594H30.625V52.8906H23.5938V45.8594Z" fill="#62DBFB"/>
<path d="M49.375 45.8594H56.4062V52.8906H49.375V45.8594Z" fill="#62DBFB"/>
<path d="M49.375 34.1406H56.4062V41.1719H49.375V34.1406Z" fill="#62DBFB"/>
<path d="M49.375 22.4219H56.4062V29.4531H49.375V22.4219Z" fill="#62DBFB"/>
<path d="M36.4844 22.4219H43.5156V29.4531H36.4844V22.4219Z" fill="#62DBFB"/>
<path d="M36.4844 34.1406H43.5156V41.1719H36.4844V34.1406Z" fill="#62DBFB"/>
<path d="M36.4844 45.8594H43.5156V52.8906H36.4844V45.8594Z" fill="#62DBFB"/>
<path d="M49.375 17.7344H30.625C30.625 13.3159 30.625 3.90203 30.625 1.32812H49.375V17.7344Z" fill="#FFE177"/>
<path d="M31.7969 22.4219C31.7969 21.7747 31.2723 21.25 30.625 21.25H23.5938C22.9464 21.25 22.4219 21.7747 22.4219 22.4219V29.4531C22.4219 30.1003 22.9464 30.625 23.5938 30.625H30.625C31.2723 30.625 31.7969 30.1003 31.7969 29.4531V22.4219ZM29.4531 28.2812H24.7656V23.5938H29.4531V28.2812Z" fill="black"/>
<path d="M44.6875 22.4219C44.6875 21.7747 44.163 21.25 43.5156 21.25H36.4844C35.837 21.25 35.3125 21.7747 35.3125 22.4219V29.4531C35.3125 30.1003 35.837 30.625 36.4844 30.625H43.5156C44.163 30.625 44.6875 30.1003 44.6875 29.4531V22.4219ZM42.3438 28.2812H37.6562V23.5938H42.3438V28.2812Z" fill="black"/>
<path d="M57.5781 22.4219C57.5781 21.7747 57.0536 21.25 56.4062 21.25H49.375C48.7277 21.25 48.2031 21.7747 48.2031 22.4219V29.4531C48.2031 30.1003 48.7277 30.625 49.375 30.625H56.4062C57.0536 30.625 57.5781 30.1003 57.5781 29.4531V22.4219ZM55.2344 28.2812H50.5469V23.5938H55.2344V28.2812Z" fill="black"/>
<path d="M31.7969 34.1406C31.7969 33.4934 31.2723 32.9688 30.625 32.9688H23.5938C22.9464 32.9688 22.4219 33.4934 22.4219 34.1406V41.1719C22.4219 41.8192 22.9464 42.3438 23.5938 42.3438H30.625C31.2723 42.3438 31.7969 41.8192 31.7969 41.1719V34.1406ZM29.4531 40H24.7656V35.3125H29.4531V40Z" fill="black"/>
<path d="M44.6875 34.1406C44.6875 33.4934 44.163 32.9688 43.5156 32.9688H36.4844C35.837 32.9688 35.3125 33.4934 35.3125 34.1406V41.1719C35.3125 41.8192 35.837 42.3438 36.4844 42.3438H43.5156C44.163 42.3438 44.6875 41.8192 44.6875 41.1719V34.1406ZM42.3438 40H37.6562V35.3125H42.3438V40Z" fill="black"/>
<path d="M57.5781 34.1406C57.5781 33.4934 57.0536 32.9688 56.4062 32.9688H49.375C48.7277 32.9688 48.2031 33.4934 48.2031 34.1406V41.1719C48.2031 41.8192 48.7277 42.3438 49.375 42.3438H56.4062C57.0536 42.3438 57.5781 41.8192 57.5781 41.1719V34.1406ZM55.2344 40H50.5469V35.3125H55.2344V40Z" fill="black"/>
<path d="M30.625 44.6875H23.5938C22.9464 44.6875 22.4219 45.212 22.4219 45.8594V52.8906C22.4219 53.538 22.9464 54.0625 23.5938 54.0625H30.625C31.2723 54.0625 31.7969 53.538 31.7969 52.8906V45.8594C31.7969 45.212 31.2723 44.6875 30.625 44.6875ZM29.4531 51.7188H24.7656V47.0312H29.4531V51.7188Z" fill="black"/>
<path d="M43.5156 44.6875H36.4844C35.837 44.6875 35.3125 45.212 35.3125 45.8594V52.8906C35.3125 53.538 35.837 54.0625 36.4844 54.0625H43.5156C44.163 54.0625 44.6875 53.538 44.6875 52.8906V45.8594C44.6875 45.212 44.163 44.6875 43.5156 44.6875ZM42.3438 51.7188H37.6562V47.0312H42.3438V51.7188Z" fill="black"/>
<path d="M56.4062 44.6875H49.375C48.7277 44.6875 48.2031 45.212 48.2031 45.8594V52.8906C48.2031 53.538 48.7277 54.0625 49.375 54.0625H56.4062C57.0536 54.0625 57.5781 53.538 57.5781 52.8906V45.8594C57.5781 45.212 57.0536 44.6875 56.4062 44.6875ZM55.2344 51.7188H50.5469V47.0312H55.2344V51.7188Z" fill="black"/>
<path d="M79.8438 56.4062V48.2031C79.8438 43.0225 75.6491 38.8281 70.4688 38.8281C67.6706 38.8281 65.1567 40.0619 63.4375 42.012V31.2109C63.4375 30.5637 62.913 30.0391 62.2656 30.0391C61.6183 30.0391 61.0938 30.5637 61.0938 31.2109V77.5H49.375V57.5781C49.375 56.9308 48.8505 56.4062 48.2031 56.4062H31.7969C31.1495 56.4062 30.625 56.9308 30.625 57.5781V67.1094C30.625 67.7567 31.1495 68.2812 31.7969 68.2812C32.4442 68.2812 32.9688 67.7567 32.9688 67.1094V58.75H47.0312V77.5H32.9688V71.7969C32.9688 71.1495 32.4442 70.625 31.7969 70.625C31.1495 70.625 30.625 71.1495 30.625 71.7969V77.5H18.9062C18.9062 75.4559 18.9062 12.6933 18.9062 10.7031H29.4531V17.7344C29.4531 18.3816 29.9777 18.9062 30.625 18.9062H49.375C50.0223 18.9062 50.5469 18.3816 50.5469 17.7344V10.7031H61.0938V26.5234C61.0938 27.1706 61.6183 27.6953 62.2656 27.6953C62.913 27.6953 63.4375 27.1706 63.4375 26.5234V9.53125C63.4375 8.88406 62.913 8.35938 62.2656 8.35938H50.5469V1.32812C50.5469 0.680937 50.0223 0.15625 49.375 0.15625H30.625C29.9777 0.15625 29.4531 0.680937 29.4531 1.32812V8.35938H17.7344C17.087 8.35938 16.5625 8.88406 16.5625 9.53125V42.0033C14.845 40.0567 12.3331 38.8281 9.53125 38.8281C4.36188 38.8281 0.15625 43.0337 0.15625 48.2031V56.4062C0.15625 61.1786 3.74141 65.1266 8.35938 65.7055V77.5H1.32812C0.680781 77.5 0.15625 78.0245 0.15625 78.6719C0.15625 79.3192 0.680781 79.8438 1.32812 79.8438H78.6719C79.3192 79.8438 79.8438 79.3192 79.8438 78.6719C79.8438 78.0245 79.3192 77.5 78.6719 77.5H71.6406V65.7055C76.2586 65.1266 79.8438 61.1786 79.8438 56.4062ZM31.7969 2.5H48.2031V16.5625H31.7969V2.5ZM16.5625 77.5H10.7031V65.7055C13.0264 65.4142 15.0872 64.2708 16.5625 62.5973V77.5ZM16.5625 56.4062C16.5625 59.8839 14.0241 62.7783 10.7031 63.338V61.0938C10.7031 60.4464 10.1786 59.9219 9.53125 59.9219C8.88391 59.9219 8.35938 60.4464 8.35938 61.0938V63.338C5.03844 62.7783 2.5 59.8839 2.5 56.4062V48.2031C2.5 44.3261 5.65422 41.1719 9.53125 41.1719C13.4164 41.1719 16.5625 44.3183 16.5625 48.2031V56.4062ZM69.2969 77.5H63.4375V62.5973C64.9128 64.2708 66.9736 65.4142 69.2969 65.7055V77.5ZM70.4688 59.9219C69.8214 59.9219 69.2969 60.4464 69.2969 61.0938V63.338C65.9759 62.7783 63.4375 59.8839 63.4375 56.4062V48.2031C63.4375 44.3261 66.5917 41.1719 70.4688 41.1719C74.3539 41.1719 77.5 44.3183 77.5 48.2031V56.4062C77.5 59.8839 74.9616 62.7783 71.6406 63.338V61.0938C71.6406 60.4464 71.1161 59.9219 70.4688 59.9219Z" fill="black"/>
<path d="M37.0703 14.2188C37.7177 14.2188 38.2422 13.6941 38.2422 13.0469V10.7031H41.7578V13.0469C41.7578 13.6941 42.2823 14.2188 42.9297 14.2188C43.577 14.2188 44.1016 13.6941 44.1016 13.0469V6.01562C44.1016 5.36844 43.577 4.84375 42.9297 4.84375C42.2823 4.84375 41.7578 5.36844 41.7578 6.01562V8.35938H38.2422V6.01562C38.2422 5.36844 37.7177 4.84375 37.0703 4.84375C36.423 4.84375 35.8984 5.36844 35.8984 6.01562V13.0469C35.8984 13.6941 36.423 14.2188 37.0703 14.2188Z" fill="black"/>
</g>
<defs>
<clipPath id="clip0_1297_58216">
<rect width="80" height="80" fill="white"/>
</clipPath>
</defs>
</svg>
