<svg width="35" height="35" viewBox="0 0 35 35" fill="none" xmlns="http://www.w3.org/2000/svg">
<g clip-path="url(#clip0_3195_15543)">
<path d="M11.8899 0.511719H30.6069C32.6036 0.511719 34.2222 2.13033 34.2222 4.12704V30.871C34.2222 32.8677 32.6036 34.4863 30.6069 34.4863H27.6297L17.3507 33.5616L7.60254 20.3362L8.00333 2.93062L11.8899 0.511719Z" fill="#23B54B"/>
<path d="M11.8899 10.5182V0.511719H7.84091C5.8442 0.511719 4.22559 2.13033 4.22559 4.12704V30.8709C4.22559 32.8676 5.8442 34.4863 7.84091 34.4863H27.6297C18.3689 30.4746 11.8899 21.2532 11.8899 10.5182Z" fill="#23B54B"/>
<path d="M5.90917 10.6378H2.54254C1.56821 10.6378 0.77832 9.84799 0.77832 8.87359C0.77832 7.89927 1.56814 7.10938 2.54254 7.10938H5.90924C6.88356 7.10938 7.67346 7.8992 7.67346 8.87359C7.67339 9.84799 6.8835 10.6378 5.90917 10.6378Z" fill="#333333"/>
<path d="M5.90917 19.2627H2.54254C1.56821 19.2627 0.77832 18.4729 0.77832 17.4986C0.77832 16.5243 1.56814 15.7344 2.54254 15.7344H5.90924C6.88356 15.7344 7.67346 16.5242 7.67346 17.4986C7.67339 18.4729 6.8835 19.2627 5.90917 19.2627Z" fill="#333333"/>
<path d="M5.90917 27.8897H2.54254C1.56821 27.8897 0.77832 27.0999 0.77832 26.1255C0.77832 25.1512 1.56814 24.3613 2.54254 24.3613H5.90924C6.88356 24.3613 7.67346 25.1512 7.67346 26.1255C7.67339 27.0998 6.8835 27.8897 5.90917 27.8897Z" fill="#333333"/>
<path d="M27.8076 28.5573C27.2637 28.8221 26.7198 28.8221 26.1759 28.5573C25.2684 28.1154 24.7644 27.1235 24.9054 26.1239C25.4499 22.2629 25.3922 18.4017 24.7324 14.5406C26.2387 12.5099 27.7449 12.5099 29.2511 14.5406C28.5913 18.4017 28.5336 22.2629 29.0782 26.1239C29.2191 27.1235 28.7152 28.1154 27.8076 28.5573Z" fill="#D7DDF5"/>
<path d="M26.9913 17.719C29.6746 17.719 31.8498 15.1499 31.8498 11.9806C31.8498 8.81137 29.6746 6.24219 26.9913 6.24219C24.308 6.24219 22.1328 8.81137 22.1328 11.9806C22.1328 15.1499 24.308 17.719 26.9913 17.719Z" fill="#F3F5FC"/>
<path d="M15.4275 28.5207C14.8971 28.7789 14.3667 28.7789 13.8363 28.5207C12.9513 28.0898 12.4599 27.1225 12.5974 26.1478C13.1284 22.3827 13.0721 18.6176 12.4287 14.8524C13.8975 12.8721 15.3663 12.8721 16.8351 14.8524C16.1917 18.6175 16.1354 22.3827 16.6664 26.1478C16.8039 27.1225 16.3126 28.0898 15.4275 28.5207Z" fill="#D7DDF5"/>
<path d="M19.2873 7.24201C19.2873 6.71831 18.8588 6.27356 18.3352 6.28341C17.8274 6.29291 17.4187 6.70751 17.4187 7.21754C17.4187 7.21754 17.4196 9.51585 17.4209 10.8498C17.4215 11.3632 17.0054 11.7794 16.492 11.7794C15.9786 11.7794 15.5626 11.3633 15.5631 10.8498C15.5644 9.51585 15.5653 7.21754 15.5653 7.21754C15.5653 6.70156 15.147 6.2832 14.631 6.2832C14.115 6.2832 13.6966 6.70149 13.6966 7.21754C13.6966 7.21754 13.6975 9.51585 13.6989 10.8498C13.6994 11.3632 13.2834 11.7794 12.77 11.7794C12.2566 11.7794 11.8405 11.3633 11.841 10.8498C11.8424 9.51585 11.8433 7.21754 11.8433 7.21754C11.8433 6.70751 11.4346 6.29291 10.9268 6.28341C10.4032 6.27363 9.97461 6.71831 9.97461 7.24201V13.333C9.97461 15.9045 12.0593 17.9892 14.6308 17.9892C17.2024 17.9892 19.2871 15.9045 19.2871 13.333L19.2873 7.24201Z" fill="#F3F5FC"/>
<path d="M10.4362 33.9746H7.84094C6.13045 33.9746 4.73879 32.5827 4.73879 30.8718V28.4022H5.90924C7.16473 28.4022 8.18609 27.3809 8.18609 26.1253C8.18609 24.8699 7.16473 23.8485 5.90924 23.8485H4.73879V19.7767H5.90924C7.16473 19.7767 8.18609 18.7554 8.18609 17.4998C8.18609 16.2442 7.16473 15.2229 5.90924 15.2229H4.73879V11.1512H5.90924C7.16473 11.1512 8.18609 10.1298 8.18609 8.87428C8.18609 7.61872 7.16473 6.59736 5.90924 6.59736H4.73879V4.12822C4.73879 2.41732 6.13038 1.02539 7.84094 1.02539H25.0157C25.2988 1.02539 25.5284 0.795908 25.5284 0.512695C25.5284 0.229482 25.2988 0 25.0157 0H7.84094C5.56505 0 3.7134 1.85192 3.7134 4.12822V6.5975H2.54254C1.28705 6.5975 0.265625 7.61886 0.265625 8.87442C0.265625 10.13 1.28705 11.1513 2.54254 11.1513H3.7134V15.223H2.54254C1.28705 15.223 0.265625 16.2444 0.265625 17.4999C0.265625 18.7555 1.28705 19.7768 2.54254 19.7768H3.7134V23.8486H2.54254C1.28705 23.8486 0.265625 24.87 0.265625 26.1255C0.265625 27.3809 1.28705 28.4024 2.54254 28.4024H3.7134V30.8719C3.7134 33.1482 5.56498 35.0001 7.84094 35.0001H10.4362C10.7193 35.0001 10.9489 34.7707 10.9489 34.4874C10.9489 34.2042 10.7193 33.9746 10.4362 33.9746ZM1.29102 8.87435C1.29102 8.18426 1.85245 7.62282 2.54254 7.62282H5.90924C6.59933 7.62282 7.16069 8.18426 7.16069 8.87435C7.16069 9.56443 6.59933 10.1259 5.90924 10.1259H2.54254C1.85245 10.1259 1.29102 9.56443 1.29102 8.87435ZM1.29102 17.4999C1.29102 16.8098 1.85245 16.2483 2.54254 16.2483H5.90924C6.59933 16.2483 7.16069 16.8098 7.16069 17.4999C7.16069 18.19 6.59933 18.7514 5.90924 18.7514H2.54254C1.85245 18.7514 1.29102 18.19 1.29102 17.4999ZM1.29102 26.1254C1.29102 25.4353 1.85245 24.8739 2.54254 24.8739H5.90924C6.59933 24.8739 7.16069 25.4353 7.16069 26.1254C7.16069 26.8155 6.59933 27.3769 5.90924 27.3769H2.54254C1.85245 27.3768 1.29102 26.8154 1.29102 26.1254Z" fill="black"/>
<path d="M30.6072 0H27.6299C27.3467 0 27.1172 0.229482 27.1172 0.512695C27.1172 0.795908 27.3467 1.02539 27.6299 1.02539H30.6072C32.3177 1.02539 33.7094 2.41726 33.7094 4.12822V30.8718C33.7094 32.5827 32.3178 33.9746 30.6072 33.9746H12.9736C12.6905 33.9746 12.4609 34.2041 12.4609 34.4873C12.4609 34.7705 12.6905 35 12.9736 35H30.6072C32.8831 35 34.7347 33.1481 34.7347 30.8718V4.12822C34.7347 1.85192 32.8831 0 30.6072 0Z" fill="black"/>
<path d="M29.3702 17.5881C30.0347 17.2059 30.6322 16.6605 31.1103 15.9965C31.9178 14.8753 32.3626 13.4495 32.3626 11.982C32.3626 8.53484 29.9532 5.73047 26.9917 5.73047C24.0298 5.73047 21.6201 8.53484 21.6201 11.982C21.6201 13.2829 21.9601 14.5304 22.6034 15.5899C23.1216 16.4433 23.8127 17.1286 24.613 17.5882C24.6371 17.8538 24.6588 18.1293 24.6778 18.4104C24.6883 18.5651 24.6978 18.7199 24.7063 18.8748C24.8336 21.1985 24.7385 23.5483 24.4228 25.8688C24.4158 25.9218 24.4084 25.9743 24.4009 26.0271L24.3971 26.0538C24.2657 26.9869 24.5942 27.9226 25.2764 28.5572C25.4776 28.744 25.7047 28.8996 25.9513 29.02C26.2962 29.1879 26.6434 29.2719 26.9911 29.2719C27.3389 29.2719 27.687 29.1879 28.033 29.0195C28.186 28.9446 28.3303 28.8573 28.4617 28.7602C29.3032 28.141 29.7338 27.104 29.5856 26.0534C29.5629 25.8933 29.5414 25.7325 29.5211 25.5712C29.2169 23.1977 29.1444 20.7887 29.3056 18.4112C29.3244 18.1302 29.3462 17.8546 29.3702 17.5881ZM23.4798 15.0578C22.934 14.1588 22.6454 13.0952 22.6454 11.9821C22.6454 9.10038 24.5951 6.75593 26.9916 6.75593C29.3877 6.75593 31.3371 9.10038 31.3371 11.9821C31.3371 13.2363 30.9611 14.4492 30.2781 15.3973C29.8361 16.0113 29.2753 16.4993 28.6563 16.8086C28.6563 16.8086 28.6563 16.8087 28.6562 16.8087C28.6559 16.8088 28.6557 16.8089 28.6555 16.809C28.1287 17.0735 27.5689 17.2076 26.9916 17.2076C26.4145 17.2076 25.8546 17.0736 25.3273 16.8095C25.3272 16.8095 25.3272 16.8094 25.3271 16.8094C25.327 16.8093 25.327 16.8093 25.3269 16.8093C24.5908 16.4411 23.9521 15.8355 23.4798 15.0578ZM27.8536 27.9345C27.8533 27.9347 27.8529 27.935 27.8525 27.9352C27.7707 27.9958 27.6796 28.0507 27.5832 28.098C27.1793 28.2945 26.8035 28.2944 26.4004 28.0982C26.2446 28.0223 26.1011 27.9239 25.9743 27.8062C25.5378 27.4 25.3277 26.7984 25.4124 26.1971L25.4162 26.1706C25.4241 26.1146 25.432 26.0588 25.4391 26.0048C25.5256 25.3694 25.5959 24.7318 25.65 24.0929C25.7449 22.9749 25.7903 21.8533 25.786 20.734C25.783 19.9345 25.7546 19.1362 25.7008 18.3413C25.6941 18.2421 25.6871 18.1436 25.6797 18.046C26.1055 18.1702 26.5442 18.2329 26.9916 18.2329C27.4391 18.2329 27.8779 18.1702 28.3035 18.0458C28.2962 18.1438 28.2891 18.2426 28.2824 18.3419C28.1167 20.7859 28.1912 23.262 28.5038 25.7004C28.5246 25.8659 28.5468 26.032 28.5701 26.1971C28.6656 26.8733 28.391 27.5391 27.8536 27.9345Z" fill="black"/>
<path d="M12.0897 26.0786C11.9452 27.1072 12.3671 28.123 13.1913 28.73C13.3211 28.8254 13.4619 28.9108 13.6123 28.9847C13.9506 29.1488 14.2912 29.2309 14.6319 29.2309C14.9727 29.2309 15.3137 29.1486 15.6523 28.9842C15.893 28.8667 16.1154 28.7144 16.3141 28.5302C16.8722 28.0107 17.1956 27.2709 17.2014 26.5027C17.203 26.3626 17.1938 26.2199 17.1738 26.0785C16.8256 23.6062 16.7338 21.0993 16.9009 18.6271C16.9158 18.4032 16.9342 18.1764 16.9541 17.9497C18.6408 17.0976 19.8007 15.3492 19.8007 13.334V7.24302C19.8007 6.8488 19.6384 6.46352 19.3554 6.18571C19.0761 5.91152 18.709 5.76557 18.3262 5.77173C17.5435 5.78649 16.9067 6.4355 16.9067 7.21869C16.9067 7.21869 16.9076 9.5172 16.909 10.8514C16.9091 10.9625 16.8659 11.067 16.7875 11.1457C16.7088 11.2243 16.6042 11.2677 16.4928 11.2677C16.3815 11.2677 16.2768 11.2243 16.1981 11.1457C16.1197 11.067 16.0765 10.9625 16.0766 10.8514C16.078 9.5172 16.0788 7.21869 16.0788 7.21848C16.0788 6.42059 15.4297 5.77152 14.6319 5.77152C13.8341 5.77152 13.1849 6.42059 13.1849 7.21869C13.1849 7.21869 13.1857 9.5172 13.1871 10.8514C13.1872 10.9625 13.144 11.067 13.0656 11.1457C12.987 11.2243 12.8823 11.2677 12.7709 11.2677C12.6594 11.2677 12.5549 11.2243 12.4762 11.1457C12.3978 11.067 12.3546 10.9625 12.3547 10.8514C12.3561 9.5172 12.357 7.21869 12.357 7.21848C12.357 6.4355 11.7202 5.78649 10.9374 5.77173C10.552 5.76469 10.1876 5.91159 9.90825 6.18571C9.62524 6.46345 9.46289 6.8488 9.46289 7.24302V13.334C9.46289 15.3498 10.6234 17.0985 12.3108 17.9504C12.3297 18.1688 12.347 18.3922 12.3627 18.6276C12.5108 20.8083 12.4568 23.0226 12.2024 25.2078C12.1655 25.5196 12.1286 25.8042 12.0897 26.0786ZM10.4883 13.334V7.24296C10.4883 7.12223 10.5387 7.00363 10.6264 6.91743C10.7059 6.8395 10.8066 6.79684 10.9109 6.79684C10.9133 6.79684 10.9157 6.79684 10.9181 6.79691C11.146 6.80115 11.3314 6.99023 11.3314 7.21821C11.3314 7.21821 11.3305 9.51632 11.3292 10.8502C11.3288 11.2355 11.4785 11.5977 11.7507 11.8702C12.0231 12.1428 12.3853 12.293 12.7708 12.293C13.1563 12.293 13.5185 12.1429 13.7909 11.8702C14.0631 11.5977 14.2128 11.2355 14.2124 10.8502C14.2111 9.51632 14.2102 7.21821 14.2102 7.21841C14.2102 6.98599 14.3993 6.79684 14.6318 6.79684C14.8643 6.79684 15.0534 6.98599 15.0534 7.21821C15.0534 7.21821 15.0525 9.51632 15.0511 10.8502C15.0507 11.2355 15.2004 11.5977 15.4727 11.8702C15.745 12.1428 16.1073 12.293 16.4928 12.293C16.8782 12.293 17.2405 12.1429 17.5128 11.8702C17.785 11.5977 17.9347 11.2355 17.9344 10.8502C17.933 9.51632 17.9321 7.21821 17.9321 7.21841C17.9321 6.99023 18.1176 6.80115 18.3455 6.79691C18.4532 6.79561 18.556 6.83772 18.6372 6.91743C18.725 7.00363 18.7754 7.12223 18.7754 7.24296V13.3339C18.7754 15.6187 16.9166 17.4774 14.6318 17.4774C12.347 17.4774 10.4883 15.6187 10.4883 13.334ZM14.6318 18.5028C15.067 18.5028 15.4895 18.4481 15.8935 18.3464C15.8882 18.417 15.8825 18.4881 15.8777 18.5582C15.7059 21.1007 15.8004 23.679 16.1584 26.2215C16.1711 26.3117 16.1771 26.4022 16.176 26.4926C16.1723 26.9823 15.968 27.4514 15.6163 27.7787C15.4923 27.8937 15.353 27.9891 15.2034 28.0621C14.8135 28.2515 14.4501 28.2515 14.0622 28.0632C13.9684 28.0171 13.8797 27.9635 13.7989 27.9041C13.2788 27.5211 13.013 26.8763 13.1049 26.222C13.1449 25.9404 13.1827 25.6481 13.2207 25.3274C13.4826 23.0789 13.5381 20.8014 13.3858 18.5585C13.381 18.4868 13.376 18.4164 13.3709 18.3466C13.7747 18.4482 14.197 18.5028 14.6318 18.5028Z" fill="black"/>
</g>
<defs>
<clipPath id="clip0_3195_15543">
<rect width="35" height="35" fill="white"/>
</clipPath>
</defs>
</svg>
