<svg width="80" height="79" viewBox="0 0 80 79" fill="none" xmlns="http://www.w3.org/2000/svg">
<path d="M2.72359 78.3473C2.55137 78.3473 2.3862 78.2789 2.26442 78.1571C2.14263 78.0353 2.07422 77.8701 2.07422 77.6979V42.6318C2.07422 42.4596 2.14263 42.2944 2.26442 42.1726C2.3862 42.0508 2.55137 41.9824 2.72359 41.9824C2.89582 41.9824 3.06099 42.0508 3.18277 42.1726C3.30455 42.2944 3.37296 42.4596 3.37296 42.6318V77.6979C3.37296 77.8701 3.30455 78.0353 3.18277 78.1571C3.06099 78.2789 2.89582 78.3473 2.72359 78.3473Z" fill="#F07F35"/>
<path d="M1.42578 41.9824H79.3505V44.5799H1.42578V41.9824Z" fill="#FFA54F"/>
<path d="M2.72656 44.5801H78.0538V48.4763H2.72656V44.5801Z" fill="#F07F35"/>
<path d="M54.6758 41.9824H78.0532V78.3473H54.6758V41.9824Z" fill="#FFA54F"/>
<path d="M74.8056 45.2305V50.4254H57.9219V45.2305H74.8056ZM74.8056 51.7242V56.9192H57.9219V51.7242H74.8056ZM57.9219 68.6079V58.2179H74.8056V68.6079H57.9219Z" fill="#F07F35"/>
<path d="M66.3626 41.982H55.9727L57.2714 35.4883H65.0639L66.3626 41.982Z" fill="#3A69FF"/>
<path d="M79.3492 30.2936V32.2417C79.3494 32.6681 79.2655 33.0904 79.1023 33.4844C78.9392 33.8784 78.7001 34.2363 78.3985 34.5379C78.097 34.8394 77.739 35.0786 77.345 35.2417C76.9511 35.4048 76.5288 35.4887 76.1024 35.4886H46.2312C45.8048 35.4887 45.3826 35.4048 44.9886 35.2417C44.5946 35.0786 44.2366 34.8394 43.9351 34.5379C43.6335 34.2363 43.3944 33.8784 43.2313 33.4844C43.0681 33.0904 42.9842 32.6681 42.9844 32.2417V12.7605C42.9842 12.3341 43.0681 11.9118 43.2313 11.5179C43.3944 11.1239 43.6335 10.7659 43.9351 10.4644C44.2366 10.1628 44.5946 9.92369 44.9886 9.76056C45.3826 9.59744 45.8048 9.51354 46.2312 9.51367H76.1024C76.5288 9.51354 76.9511 9.59744 77.345 9.76056C77.739 9.92369 78.097 10.1628 78.3985 10.4644C78.7001 10.7659 78.9392 11.1239 79.1023 11.5179C79.2655 11.9118 79.3494 12.3341 79.3492 12.7605V30.2936Z" fill="#23B54B"/>
<path d="M79.3492 12.7605V30.2936H42.9844V12.7605C42.9842 12.3341 43.0681 11.9118 43.2313 11.5179C43.3944 11.1239 43.6335 10.7659 43.9351 10.4644C44.2366 10.1628 44.5946 9.92369 44.9886 9.76056C45.3826 9.59744 45.8048 9.51354 46.2312 9.51367H76.1024C76.5288 9.51354 76.9511 9.59744 77.345 9.76056C77.739 9.92369 78.097 10.1628 78.3985 10.4644C78.7001 10.7659 78.9392 11.1239 79.1023 11.5179C79.2655 11.9118 79.3494 12.3341 79.3492 12.7605Z" fill="#23B54B"/>
<path d="M53.3765 41.9829H48.1816L46.8828 33.541H54.6753L53.3765 41.9829Z" fill="#23B54B"/>
<path d="M3.24593 19.904C4.68048 19.904 5.84342 18.741 5.84342 17.3065C5.84342 15.8719 4.68048 14.709 3.24593 14.709C1.81137 14.709 0.648438 15.8719 0.648438 17.3065C0.648438 18.741 1.81137 19.904 3.24593 19.904Z" fill="#23B54B"/>
<path d="M28.4617 11.9683C30.2549 11.9683 31.7086 10.5147 31.7086 8.72147C31.7086 6.92828 30.2549 5.47461 28.4617 5.47461C26.6685 5.47461 25.2148 6.92828 25.2148 8.72147C25.2148 10.5147 26.6685 11.9683 28.4617 11.9683Z" fill="#85A2FF"/>
<path d="M22.0336 2.29456C22.3989 1.92927 22.8943 1.72405 23.4109 1.72405C23.9275 1.72405 24.4229 1.92927 24.7882 2.29456L25.7064 3.21277L22.9518 5.96741L22.0336 5.04919C21.6683 4.68391 21.4631 4.18847 21.4631 3.67187C21.4631 3.15528 21.6683 2.65984 22.0336 2.29456Z" fill="#3A69FF"/>
<path d="M76.7548 14.5467V24.9367H59.8711V14.5467V11.9492H76.7548V14.5467Z" fill="#23B54B"/>
<path d="M59.8711 11.9492H76.7548V14.5467H59.8711V11.9492Z" fill="#3A69FF"/>
<path d="M73.5879 39.3848H74.7243C75.2625 39.3848 75.7786 39.5986 76.1592 39.9791C76.5398 40.3597 76.7536 40.8759 76.7536 41.4141V41.9823H71.5586V41.4141C71.5586 40.8759 71.7724 40.3597 72.153 39.9791C72.5335 39.5986 73.0497 39.3848 73.5879 39.3848Z" fill="#23B54B"/>
<path d="M27.6987 44.644V48.7107C27.6986 49.0702 27.5558 49.415 27.3016 49.6692C27.0474 49.9234 26.7026 50.0662 26.3431 50.0663H20.9062V43.2885H22.9859L23.3446 42.8956C23.463 42.766 23.6137 42.6703 23.7814 42.6184C23.949 42.5665 24.1275 42.5602 24.2984 42.6002C24.4692 42.6403 24.6263 42.7251 24.7535 42.8461C24.8806 42.9671 24.9732 43.1198 25.0216 43.2885H26.3431C26.7026 43.2885 27.0474 43.4314 27.3016 43.6856C27.5558 43.9398 27.6986 44.2845 27.6987 44.644Z" fill="#FFB3D0"/>
<path d="M20.9089 43.2878V50.0656H9.43448C8.68232 50.0656 7.93954 49.8986 7.25972 49.5768C6.57989 49.2549 5.97995 48.7863 5.50319 48.2045C5.02642 47.6228 4.68469 46.9424 4.50266 46.2126C4.32063 45.4828 4.30283 44.7217 4.45055 43.9842L7.43441 29.0681C7.51956 28.6299 7.69048 28.2128 7.93736 27.8408C8.18424 27.4688 8.50221 27.1492 8.87299 26.9005C9.24377 26.6518 9.66004 26.4789 10.0979 26.3916C10.5357 26.3043 10.9865 26.3044 11.4243 26.3919C11.8621 26.4794 12.2783 26.6525 12.649 26.9014C13.0197 27.1503 13.3375 27.47 13.5842 27.8421C13.8309 28.2142 14.0016 28.6314 14.0866 29.0697C14.1715 29.508 14.169 29.9588 14.0791 30.3961L11.5011 43.2878H20.9089Z" fill="#23B54B"/>
<path d="M21.2634 20.9172L21.1916 26.5261C21.1894 26.7 21.1529 26.8718 21.0843 27.0316C21.0157 27.1914 20.9163 27.3361 20.7918 27.4575C20.6673 27.5789 20.52 27.6745 20.3585 27.739C20.197 27.8035 20.0244 27.8355 19.8505 27.8333C19.6762 27.8311 19.5041 27.7945 19.3439 27.7256C19.1838 27.6568 19.0389 27.557 18.9174 27.4319C18.7959 27.3069 18.7004 27.1591 18.6361 26.9971C18.5719 26.8351 18.5403 26.6619 18.5431 26.4876L18.6418 20.416L21.2634 20.9172Z" fill="#FFB3D0"/>
<path d="M19.1875 19.1211L23.254 19.1048L23.2692 22.9037C23.2709 23.3342 23.1016 23.7478 22.7983 24.0535C22.4951 24.3592 22.0829 24.5319 21.6523 24.5336L21.482 24.5343C20.8792 24.5367 20.3002 24.2995 19.8722 23.875C19.4443 23.4505 19.2025 22.8733 19.2001 22.2705L19.1875 19.1211Z" fill="#FFB3D0"/>
<path d="M40.3887 26.3973V37.6737C40.3887 39.1948 39.8438 40.6657 38.8528 41.8197C37.8617 42.9737 36.4901 43.7346 34.9864 43.9644C33.4827 44.1942 31.9464 43.8779 30.6559 43.0726C29.3654 42.2673 28.406 41.0264 27.9516 39.5747L23.8086 26.3438H28.3721C29.0739 26.3437 29.7569 26.5712 30.3186 26.9921C30.8803 27.4129 31.2904 28.0046 31.4874 28.6782L33.895 36.8977V26.3973H40.3887Z" fill="#23B54B"/>
<path d="M40.3883 23.1298V26.3978H33.8945V17.3066C33.8945 16.9621 34.0314 16.6318 34.2749 16.3882C34.5185 16.1446 34.8488 16.0078 35.1933 16.0078C35.5377 16.0078 35.8681 16.1446 36.1116 16.3882C36.3552 16.6318 36.492 16.9621 36.492 17.3066V20.245L38.5846 20.7937C39.1013 20.9288 39.5585 21.2314 39.8849 21.6541C40.2112 22.0768 40.3883 22.5958 40.3883 23.1298Z" fill="#FFB3D0"/>
<path d="M23.0913 16.17L22.7736 16.1722C22.2472 16.1758 21.7336 16.3349 21.2973 16.6295C20.8591 16.9253 20.3431 17.0846 19.8144 17.087C19.554 17.0882 19.2963 17.1406 19.0561 17.2414C18.8159 17.3421 18.5979 17.4892 18.4145 17.6742C18.2312 17.8592 18.086 18.0785 17.9874 18.3196C17.8888 18.5607 17.8387 18.8188 17.8399 19.0793L17.8514 21.625L18.5956 21.7921C19.1536 21.9174 19.7382 21.8315 20.2366 21.551C20.735 21.2705 21.1118 20.8152 21.2942 20.2732L24.3834 20.2594C24.6267 20.2583 24.8595 20.1606 25.0308 19.9878C25.202 19.815 25.2976 19.5813 25.2966 19.3381C25.2959 19.1897 25.2593 19.0438 25.1898 18.9127C25.1203 18.7816 25.0201 18.6693 24.8977 18.5855L24.3167 18.1876L24.3183 17.3911C24.3186 17.2202 24.283 17.0511 24.2138 16.8949C24.1445 16.7386 24.0432 16.5987 23.9164 16.4841C23.6903 16.2799 23.396 16.1678 23.0913 16.17Z" fill="#535049"/>
<path d="M19.0298 22.7081C19.6806 22.7081 20.2081 22.1806 20.2081 21.5299C20.2081 20.8791 19.6806 20.3516 19.0298 20.3516C18.3791 20.3516 17.8516 20.8791 17.8516 21.5299C17.8516 22.1806 18.3791 22.7081 19.0298 22.7081Z" fill="#FFB3D0"/>
<path d="M26.6509 26.3438H10.7852L14.8517 48.032H31.118L26.6509 26.3438Z" fill="#23B54B"/>
<path d="M41.7086 78.3559L37.8955 56.2701H16.2071L14.8516 48.1367H38.9852C40.4677 48.1367 41.9056 48.644 43.0599 49.5743C44.2142 50.5046 45.0155 51.8019 45.3305 53.2505L50.2289 75.7687L54.1616 78.3561L41.7086 78.3559Z" fill="#3A69FF"/>
<path d="M52.6769 75.7663L44.5701 53.3553L23.4296 57.4321C22.3044 57.6488 21.1391 57.4128 20.1868 56.7755C19.2344 56.1381 18.572 55.1508 18.3434 54.0279L17.5117 49.9388L44.274 44.7079C45.8566 44.3986 47.4976 44.6636 48.9023 45.4555C50.307 46.2473 51.3834 47.5141 51.938 49.0282L59.7001 70.2164L63.7667 71.7262L52.6769 75.7663Z" fill="#23B54B"/>
<path d="M23.0234 58.8672H33.4134V61.4647H23.0234V58.8672Z" fill="#535049"/>
<path d="M46.8828 14.709H62.4678V27.6964H46.8828V14.709Z" fill="#85A2FF"/>
<path d="M46.8828 14.709H62.4678V17.3065H46.8828V14.709Z" fill="#23B54B"/>
<path d="M23.4072 3.67285C24.3813 2.69875 25.7025 2.15151 27.0801 2.15151C28.4577 2.15151 29.7788 2.69875 30.7529 3.67285L32.5894 5.50928L25.2437 12.855L23.4072 11.0186C22.4331 10.0445 21.8859 8.72329 21.8859 7.3457C21.8859 5.96812 22.4331 4.64695 23.4072 3.67285Z" fill="#23B54B"/>
<path d="M40.5575 78.3474C41.6334 78.3474 42.5056 77.4752 42.5056 76.3993C42.5056 75.3234 41.6334 74.4512 40.5575 74.4512C39.4816 74.4512 38.6094 75.3234 38.6094 76.3993C38.6094 77.4752 39.4816 78.3474 40.5575 78.3474Z" fill="#535049"/>
<path d="M26.918 61.4648H29.5155V64.0623H26.918V61.4648Z" fill="#737069"/>
<path d="M15.8778 78.3474C16.9537 78.3474 17.8259 77.4752 17.8259 76.3993C17.8259 75.3234 16.9537 74.4512 15.8778 74.4512C14.8019 74.4512 13.9297 75.3234 13.9297 76.3993C13.9297 77.4752 14.8019 78.3474 15.8778 78.3474Z" fill="#535049"/>
<path d="M28.2176 78.3474C29.2936 78.3474 30.1658 77.4752 30.1658 76.3993C30.1658 75.3234 29.2936 74.4512 28.2176 74.4512C27.1417 74.4512 26.2695 75.3234 26.2695 76.3993C26.2695 77.4752 27.1417 78.3474 28.2176 78.3474Z" fill="#535049"/>
<path d="M13.9297 56.2695H39.3904C39.8713 56.2695 40.3324 56.4605 40.6723 56.8005C41.0123 57.1405 41.2033 57.6016 41.2033 58.0824V58.867H13.9297V56.2695Z" fill="#535049"/>
<path d="M11.6492 32.8926H23.5642C24.348 32.8926 25.1052 33.1761 25.6963 33.6908C26.2873 34.2055 26.6723 34.9166 26.7801 35.6928L29.9989 58.8675H14.3548C13.5711 58.8674 12.8138 58.5839 12.2228 58.0693C11.6317 57.5546 11.2468 56.8435 11.139 56.0672L8.43321 36.586C8.36937 36.1263 8.40482 35.6583 8.53719 35.2135C8.66955 34.7686 8.89574 34.3573 9.20052 34.0073C9.5053 33.6573 9.88157 33.3767 10.304 33.1844C10.7264 32.9921 11.1851 32.8926 11.6492 32.8926Z" fill="#737069"/>
<path d="M65.0634 47.828H67.6609C67.8331 47.828 67.9983 47.7596 68.1201 47.6378C68.2419 47.5161 68.3103 47.3509 68.3103 47.1787C68.3103 47.0064 68.2419 46.8413 68.1201 46.7195C67.9983 46.5977 67.8331 46.5293 67.6609 46.5293H65.0634C64.8912 46.5293 64.726 46.5977 64.6043 46.7195C64.4825 46.8413 64.4141 47.0064 64.4141 47.1787C64.4141 47.3509 64.4825 47.5161 64.6043 47.6378C64.726 47.7596 64.8912 47.828 65.0634 47.828Z" fill="black"/>
<path d="M67.6609 53.0215H65.0634C64.8912 53.0215 64.726 53.0899 64.6043 53.2117C64.4825 53.3335 64.4141 53.4986 64.4141 53.6709C64.4141 53.8431 64.4825 54.0083 64.6043 54.13C64.726 54.2518 64.8912 54.3202 65.0634 54.3202H67.6609C67.8331 54.3202 67.9983 54.2518 68.1201 54.13C68.2419 54.0083 68.3103 53.8431 68.3103 53.6709C68.3103 53.4986 68.2419 53.3335 68.1201 53.2117C67.9983 53.0899 67.8331 53.0215 67.6609 53.0215Z" fill="black"/>
<path d="M67.6609 60.8144C67.8331 60.8144 67.9983 60.746 68.1201 60.6242C68.2419 60.5024 68.3103 60.3372 68.3103 60.165C68.3103 59.9928 68.2419 59.8276 68.1201 59.7058C67.9983 59.584 67.8331 59.5156 67.6609 59.5156H65.0634C64.8912 59.5156 64.726 59.584 64.6043 59.7058C64.4825 59.8276 64.4141 59.9928 64.4141 60.165C64.4141 60.3372 64.4825 60.5024 64.6043 60.6242C64.726 60.746 64.8912 60.8144 65.0634 60.8144H67.6609Z" fill="black"/>
<path d="M76.1052 8.86523H46.234C45.2011 8.86639 44.2107 9.27726 43.4803 10.0077C42.7498 10.7381 42.339 11.7285 42.3378 12.7615V32.2426C42.3362 32.8333 42.4701 33.4164 42.7291 33.9472C42.7648 34.0264 42.816 34.0976 42.8798 34.1566C42.9435 34.2156 43.0185 34.2613 43.1002 34.2908C43.1818 34.3203 43.2686 34.3332 43.3554 34.3285C43.4421 34.3239 43.527 34.302 43.6051 34.264C43.6832 34.2259 43.7529 34.1726 43.8101 34.1072C43.8672 34.0418 43.9106 33.9656 43.9378 33.883C43.9649 33.8005 43.9752 33.7134 43.9681 33.6268C43.961 33.5403 43.9366 33.456 43.8963 33.379C43.724 33.0251 43.6352 32.6363 43.6366 32.2426V30.9439H78.7027V32.2426C78.7018 32.9313 78.4279 33.5915 77.941 34.0784C77.454 34.5654 76.7938 34.8393 76.1052 34.8401H56.624C56.4648 34.8413 56.3115 34.9009 56.1933 35.0077C56.0752 35.1145 56.0004 35.261 55.9832 35.4193C55.966 35.5776 56.0075 35.7367 56.1 35.8664C56.1924 35.9961 56.3293 36.0873 56.4845 36.1226L55.4423 41.3339H54.134L55.3176 33.6401C55.3319 33.5476 55.3259 33.4531 55.3002 33.363C55.2745 33.273 55.2296 33.1896 55.1687 33.1186C55.1077 33.0475 55.0321 32.9905 54.9471 32.9514C54.862 32.9123 54.7695 32.892 54.6759 32.892H46.8834C46.7898 32.892 46.6973 32.9123 46.6122 32.9514C46.5272 32.9905 46.4516 33.0475 46.3906 33.1186C46.3297 33.1896 46.2848 33.273 46.2591 33.363C46.2334 33.4531 46.2274 33.5476 46.2417 33.6401L46.4263 34.8401H45.5879C44.899 34.8401 44.2383 35.1138 43.7512 35.6009C43.2641 36.088 42.9904 36.7487 42.9904 37.4376C42.9904 38.1265 43.2641 38.7872 43.7512 39.2743C44.2383 39.7614 44.899 40.0351 45.5879 40.0351H47.2255L47.4253 41.3339H41.6884C41.5162 41.3339 41.351 41.4023 41.2293 41.5241C41.1075 41.6458 41.0391 41.811 41.0391 41.9832C41.0391 42.1555 41.1075 42.3206 41.2293 42.4424C41.351 42.5642 41.5162 42.6326 41.6884 42.6326H78.7027V43.9313H51.429C51.2568 43.9313 51.0916 43.9998 50.9698 44.1215C50.8481 44.2433 50.7796 44.4085 50.7796 44.5807C50.7796 44.7529 50.8481 44.9181 50.9698 45.0399C51.0916 45.1617 51.2568 45.2301 51.429 45.2301H54.0265V47.8276H53.8262C53.654 47.8276 53.4888 47.896 53.367 48.0178C53.2452 48.1396 53.1768 48.3047 53.1768 48.477C53.1768 48.6492 53.2452 48.8143 53.367 48.9361C53.4888 49.0579 53.654 49.1263 53.8262 49.1263H54.0265V50.2627C54.0265 50.435 54.0949 50.6001 54.2167 50.7219C54.3385 50.8437 54.5037 50.9121 54.6759 50.9121C54.8481 50.9121 55.0133 50.8437 55.1351 50.7219C55.2568 50.6001 55.3253 50.435 55.3253 50.2627V45.2301H56.624V58.0552C56.6238 58.213 56.6812 58.3655 56.7855 58.4841C56.8897 58.6026 57.0337 58.679 57.1903 58.6989C57.3468 58.7188 57.5053 58.6809 57.6359 58.5923C57.7666 58.5037 57.8603 58.3704 57.8997 58.2175H74.8064V68.6075H62.4684C62.2961 68.6075 62.131 68.6759 62.0092 68.7977C61.8874 68.9195 61.819 69.0846 61.819 69.2569C61.819 69.4291 61.8874 69.5943 62.0092 69.716C62.131 69.8378 62.2961 69.9062 62.4684 69.9062H75.4558C75.628 69.9062 75.7932 69.8378 75.915 69.716C76.0368 69.5943 76.1052 69.4291 76.1052 69.2569V45.2301H77.4039V77.6987H56.624C56.4518 77.6987 56.2866 77.7671 56.1648 77.8889C56.043 78.0107 55.9746 78.1759 55.9746 78.3481C55.9746 78.5203 56.043 78.6855 56.1648 78.8073C56.2866 78.929 56.4518 78.9975 56.624 78.9975H78.0533C78.2255 78.9975 78.3907 78.929 78.5125 78.8073C78.6342 78.6855 78.7027 78.5203 78.7027 78.3481V45.2301H79.352C79.5243 45.2301 79.6894 45.1617 79.8112 45.0399C79.933 44.9181 80.0014 44.7529 80.0014 44.5807V41.9832C80.0014 41.811 79.933 41.6458 79.8112 41.5241C79.6894 41.4023 79.5243 41.3339 79.352 41.3339H77.3999C77.3784 40.6384 77.0873 39.9786 76.5882 39.4938C76.0891 39.0091 75.421 38.7375 74.7253 38.7364H73.5889C72.8931 38.7375 72.225 39.0091 71.7259 39.4938C71.2268 39.9786 70.9357 40.6384 70.9143 41.3339H66.8969L65.8579 36.1389H76.1052C77.1382 36.1377 78.1285 35.7269 78.8589 34.9964C79.5894 34.266 80.0002 33.2756 80.0014 32.2426V12.7615C80.0002 11.7285 79.5894 10.7381 78.8589 10.0077C78.1285 9.27726 77.1382 8.86639 76.1052 8.86523ZM57.9227 56.9188V51.7238H74.8064V56.9188H57.9227ZM74.8064 50.4251H57.9227V45.2301H74.8064V50.4251ZM45.5879 38.7364C45.2435 38.7364 44.9131 38.5995 44.6696 38.356C44.426 38.1124 44.2892 37.7821 44.2892 37.4376C44.2892 37.0932 44.426 36.7628 44.6696 36.5193C44.9131 36.2757 45.2435 36.1389 45.5879 36.1389H46.6269L47.0264 38.7364H45.5879ZM48.7393 41.3339L47.6403 34.1908H53.919L52.82 41.3339H48.7393ZM73.5889 40.0351H74.7253C75.0771 40.0355 75.4155 40.1701 75.6714 40.4114C75.9274 40.6528 76.0817 40.9827 76.1027 41.3339H72.2114C72.2325 40.9827 72.3867 40.6528 72.6427 40.4114C72.8987 40.1701 73.2371 40.0355 73.5889 40.0351ZM65.5725 41.3339H56.7667L57.8057 36.1389H64.5335L65.5725 41.3339ZM43.6366 29.6452V12.7615C43.6374 12.0728 43.9113 11.4126 44.3982 10.9257C44.8852 10.4387 45.5454 10.1648 46.234 10.164H76.1052C76.7938 10.1648 77.454 10.4387 77.941 10.9257C78.4279 11.4126 78.7018 12.0728 78.7027 12.7615V29.6452H43.6366Z" fill="black"/>
<path d="M3.24678 20.5537C3.58429 20.5536 3.9197 20.5006 4.2408 20.3966L7.89352 26.8918C7.33366 27.4519 6.95175 28.1649 6.79576 28.9414L4.31694 41.3337H1.42593C1.25371 41.3337 1.08854 41.4021 0.966759 41.5239C0.844978 41.6456 0.776563 41.8108 0.776563 41.983V44.5805C0.776563 44.7527 0.844978 44.9179 0.966759 45.0397C1.08854 45.1615 1.25371 45.2299 1.42593 45.2299H2.07531V78.3479C2.07531 78.5201 2.14372 78.6853 2.2655 78.8071C2.38729 78.9288 2.55246 78.9973 2.72468 78.9973C2.8969 78.9973 3.06207 78.9288 3.18386 78.8071C3.30564 78.6853 3.37405 78.5201 3.37405 78.3479V49.1261H5.47234C6.53456 50.1523 7.95578 50.7227 9.4327 50.7155H9.74001L10.4957 56.1556C10.6283 57.0858 11.0912 57.9372 11.7998 58.5543C12.5084 59.1713 13.4153 59.5127 14.3549 59.5161H22.3737V61.4642C22.3737 61.6364 22.4421 61.8016 22.5639 61.9234C22.6857 62.0452 22.8509 62.1136 23.0231 62.1136H26.2699V64.0617C26.2699 64.2339 26.3384 64.3991 26.4601 64.5209C26.5819 64.6427 26.7471 64.7111 26.9193 64.7111H27.5687V69.4489L15.0834 73.92L15.0861 73.9274C14.537 74.1031 14.0618 74.4563 13.7353 74.9316C13.4088 75.4068 13.2496 75.9771 13.2826 76.5527C13.3156 77.1283 13.5391 77.6766 13.9177 78.1114C14.2964 78.5462 14.8089 78.8427 15.3745 78.9544C15.9402 79.0661 16.5269 78.9866 17.0425 78.7285C17.558 78.4703 17.9731 78.0481 18.2224 77.5282C18.4718 77.0084 18.5413 76.4204 18.42 75.8567C18.2987 75.2931 17.9934 74.7857 17.5523 74.4145L27.5689 70.8267V73.8862C26.9567 74.0443 26.4232 74.4201 26.0684 74.9434C25.7136 75.4666 25.5618 76.1013 25.6414 76.7285C25.7211 77.3557 26.0268 77.9323 26.5011 78.3502C26.9755 78.7681 27.586 78.9987 28.2182 78.9987C28.8504 78.9987 29.4609 78.7681 29.9353 78.3502C30.4097 77.9323 30.7154 77.3557 30.795 76.7285C30.8747 76.1013 30.7229 75.4666 30.368 74.9434C30.0132 74.4201 29.4797 74.0443 28.8676 73.8862V70.8295L38.8741 74.4242C38.419 74.8114 38.1114 75.3437 38.0032 75.9313C37.895 76.5189 37.9929 77.1259 38.2802 77.6498C38.5675 78.1736 39.0268 78.5823 39.5805 78.8069C40.1342 79.0315 40.7484 79.0582 41.3195 78.8825C41.4275 78.9572 41.5557 78.9973 41.687 78.9973H54.1631C54.3028 78.9973 54.4388 78.9522 54.5508 78.8688C54.6629 78.7854 54.7451 78.6681 54.7852 78.5343C54.8253 78.4005 54.8212 78.2573 54.7735 78.126C54.7257 77.9947 54.6369 77.8823 54.5202 77.8055L50.8153 75.3673L49.5652 69.0586L52.0653 75.9713C52.0943 76.0517 52.1389 76.1255 52.1965 76.1886C52.2541 76.2517 52.3236 76.3028 52.4009 76.339C52.4783 76.3752 52.5621 76.3958 52.6474 76.3995C52.7328 76.4033 52.818 76.3902 52.8983 76.361L63.9878 72.3219C64.1126 72.2764 64.2205 72.1937 64.2969 72.085C64.3733 71.9762 64.4145 71.8467 64.4149 71.7138C64.4153 71.5809 64.375 71.4511 64.2993 71.3419C64.2236 71.2327 64.1162 71.1493 63.9917 71.103L60.2055 69.6974L52.5478 48.7889C52.0876 47.5313 51.2957 46.4215 50.256 45.5774C49.2163 44.7332 47.9676 44.1862 46.6422 43.9941C46.3151 43.9492 45.9851 43.9281 45.6549 43.9311H45.5279C45.0654 43.9278 44.6036 43.9694 44.1491 44.0552L31.4743 46.532L30.9479 43.9763C32.017 44.4982 33.2014 44.7396 34.3896 44.6776C35.5777 44.6157 36.7306 44.2525 37.7397 43.6222C38.7488 42.9919 39.581 42.1153 40.1579 41.0748C40.7348 40.0342 41.0376 38.864 41.0377 37.6743V23.1303C41.0376 22.4524 40.813 21.7936 40.3988 21.257C39.9847 20.7203 39.4044 20.336 38.7486 20.1641L37.1414 19.7438V17.3069C37.1414 16.7902 36.9362 16.2947 36.5708 15.9294C36.2055 15.564 35.71 15.3588 35.1933 15.3588C34.6766 15.3588 34.1811 15.564 33.8158 15.9294C33.4504 16.2947 33.2452 16.7902 33.2452 17.3069V32.3712L32.1102 28.4957C31.8705 27.6892 31.3774 26.9812 30.704 26.4767C30.0306 25.9722 29.2126 25.698 28.3712 25.6947H21.8683L21.8771 25.1127C22.4404 25.0567 22.9626 24.7928 23.3418 24.3726C23.721 23.9524 23.9301 23.4059 23.9281 22.8399L23.9163 20.7494L24.3871 20.7471C24.7209 20.7454 25.0454 20.6372 25.3134 20.4382C25.5814 20.2391 25.7788 19.9597 25.8768 19.6406C25.9748 19.3215 25.9684 18.9795 25.8584 18.6643C25.7484 18.3491 25.5406 18.0774 25.2654 17.8886L24.9684 17.6848L24.9694 17.2291C24.9694 16.9827 24.9207 16.7386 24.826 16.5111C24.7314 16.2835 24.5927 16.0769 24.418 15.9031C24.2433 15.7292 24.0359 15.5917 23.8078 15.4983C23.5797 15.4049 23.3355 15.3575 23.089 15.3588L22.768 15.3604C22.1146 15.3653 21.4771 15.563 20.9355 15.9286C20.6036 16.1532 20.2124 16.274 19.8116 16.2755C19.1141 16.2807 18.447 16.5617 17.956 17.0572C17.465 17.5526 17.19 18.2222 17.1911 18.9198L17.2026 21.4685V21.4698C17.2054 21.7589 17.2764 22.0433 17.4098 22.2998C17.5433 22.5562 17.7355 22.7776 17.9706 22.9457L17.9271 25.6938H10.7558C10.1297 25.6949 9.51259 25.8424 8.95378 26.1247L5.37087 19.7568C5.8663 19.3314 6.22072 18.7655 6.38714 18.134C6.55356 17.5026 6.52412 16.8355 6.30272 16.2211L21.2445 7.20768C21.2435 7.25297 21.2412 7.2981 21.2412 7.34339C21.239 8.11118 21.3892 8.87177 21.683 9.58113C21.9767 10.2905 22.4083 10.9345 22.9526 11.476L24.7899 13.3132C24.9116 13.435 25.0768 13.5034 25.249 13.5034C25.4212 13.5034 25.5863 13.435 25.7081 13.3132L26.7834 12.238C27.5105 12.5853 28.3273 12.6986 29.1214 12.5623C29.9156 12.4261 30.6479 12.047 31.2176 11.4773C31.7874 10.9075 32.1665 10.1752 32.3027 9.38106C32.4389 8.58694 32.3257 7.77012 31.9784 7.04306L33.0554 5.96608C33.1157 5.90577 33.1635 5.83419 33.1962 5.7554C33.2288 5.67661 33.2456 5.59217 33.2456 5.50689C33.2456 5.42161 33.2288 5.33716 33.1962 5.25838C33.1635 5.17959 33.1157 5.108 33.0554 5.0477L31.2183 3.21079C30.4481 2.44219 29.4789 1.90362 28.4194 1.65558C27.36 1.40754 26.2524 1.45987 25.221 1.80668C24.9801 1.56542 24.6941 1.37398 24.3792 1.24327C24.0643 1.11257 23.7267 1.04517 23.3858 1.04492C22.6972 1.04442 22.0367 1.31747 21.5494 1.804C21.0622 2.29054 20.7882 2.9507 20.7877 3.63927C20.7872 4.32783 21.0602 4.98839 21.5467 5.47564C21.542 5.48976 21.5373 5.50372 21.5328 5.51785L5.63062 15.1099C5.26513 14.7134 4.80657 14.4142 4.29641 14.2394C3.78624 14.0646 3.24055 14.0197 2.70869 14.1088C2.17682 14.1979 1.67555 14.4182 1.25019 14.7497C0.824829 15.0812 0.4888 15.5135 0.272483 16.0074C0.0561659 16.5014 -0.0336173 17.0415 0.011251 17.579C0.0561194 18.1164 0.234224 18.6341 0.529462 19.0854C0.824701 19.5367 1.22776 19.9073 1.7022 20.1636C2.17664 20.42 2.7075 20.5541 3.24678 20.5537ZM15.88 77.6985C15.6231 77.6985 15.372 77.6223 15.1584 77.4796C14.9449 77.3369 14.7784 77.1341 14.6801 76.8968C14.5818 76.6595 14.5561 76.3983 14.6062 76.1464C14.6563 75.8945 14.78 75.6631 14.9616 75.4814C15.1433 75.2998 15.3747 75.1761 15.6266 75.126C15.8785 75.0759 16.1397 75.1016 16.377 75.1999C16.6143 75.2982 16.8171 75.4647 16.9599 75.6782C17.1026 75.8918 17.1787 76.1429 17.1787 76.3998C17.1783 76.7441 17.0414 77.0742 16.7979 77.3177C16.5544 77.5612 16.2243 77.6981 15.88 77.6985ZM2.07531 42.6324H4.05703L3.81238 43.8553C3.80718 43.8807 3.80426 43.9058 3.79939 43.9311H2.07531V42.6324ZM3.37405 45.2299H3.70702C3.74715 46.1433 4.00496 47.0338 4.45899 47.8274H3.37405V45.2299ZM11.7821 55.977L9.07587 36.4958C9.02482 36.1281 9.0532 35.7537 9.1591 35.3978C9.265 35.0419 9.44595 34.7129 9.68977 34.4329C9.93359 34.1529 10.2346 33.9284 10.5725 33.7746C10.9104 33.6208 11.2774 33.5412 11.6487 33.5412H23.563C24.1895 33.5433 24.7942 33.7709 25.2666 34.1823C25.739 34.5936 26.0476 35.1613 26.1359 35.7815L29.2528 58.2173H14.3549C13.7285 58.2152 13.1238 57.9876 12.6514 57.5763C12.1789 57.1649 11.8704 56.5972 11.7821 55.977ZM33.413 58.2173H30.5638L30.3832 56.9186H39.3933C39.7017 56.9192 39.9972 57.042 40.2152 57.2602C40.4331 57.4785 40.5555 57.7742 40.5557 58.0826V58.2173H33.413ZM23.6725 59.5161H32.7637V60.8148H23.6725V59.5161ZM28.8674 62.1136V63.4123H27.5687V62.1136H28.8674ZM29.5168 76.3998C29.5168 76.6566 29.4406 76.9077 29.2979 77.1213C29.1552 77.3349 28.9524 77.5014 28.7151 77.5997C28.4778 77.698 28.2166 77.7237 27.9647 77.6736C27.7128 77.6234 27.4813 77.4998 27.2997 77.3181C27.1181 77.1365 26.9944 76.9051 26.9443 76.6531C26.8942 76.4012 26.9199 76.1401 27.0182 75.9028C27.1165 75.6655 27.2829 75.4626 27.4965 75.3199C27.7101 75.1772 27.9612 75.101 28.2181 75.101C28.5624 75.1014 28.8925 75.2384 29.136 75.4818C29.3795 75.7253 29.5164 76.0554 29.5168 76.3998ZM28.8674 64.7111H29.5168C29.689 64.7111 29.8542 64.6427 29.976 64.5209C30.0978 64.3991 30.1662 64.2339 30.1662 64.0617V62.1136H33.413C33.5853 62.1136 33.7504 62.0452 33.8722 61.9234C33.994 61.8016 34.0624 61.6364 34.0624 61.4642V59.5161H37.7992L40.2181 73.5263L28.8678 69.4486L28.8674 64.7111ZM39.2574 76.3998C39.2574 76.1429 39.3336 75.8918 39.4763 75.6782C39.619 75.4647 39.8218 75.2982 40.0591 75.1999C40.2964 75.1016 40.5576 75.0759 40.8095 75.126C41.0614 75.1761 41.2929 75.2998 41.4745 75.4814C41.6561 75.6631 41.7798 75.8945 41.8299 76.1464C41.88 76.3983 41.8543 76.6595 41.756 76.8968C41.6577 77.1341 41.4913 77.3369 41.2777 77.4796C41.0641 77.6223 40.813 77.6985 40.5561 77.6985C40.2118 77.6981 39.8817 77.5612 39.6382 77.3177C39.3947 77.0742 39.2578 76.7441 39.2574 76.3998ZM46.6533 61.0522L49.4159 74.9874H44.9745C44.8022 74.9874 44.6371 75.0558 44.5153 75.1776C44.3935 75.2994 44.3251 75.4645 44.3251 75.6368C44.3251 75.809 44.3935 75.9742 44.5153 76.0959C44.6371 76.2177 44.8022 76.2861 44.9745 76.2861H49.854C49.861 76.2912 49.8668 76.2977 49.8742 76.3024L51.9958 77.6985H42.8022C42.9848 77.3848 43.0994 77.0362 43.1385 76.6753C43.1777 76.3143 43.1404 75.9493 43.0292 75.6037C42.9181 75.2581 42.7354 74.9398 42.4932 74.6694C42.2509 74.399 41.9545 74.1826 41.6232 74.0343L39.117 59.5161H41.2049C41.3771 59.5161 41.5423 59.4477 41.664 59.3259C41.7858 59.2041 41.8542 59.0389 41.8542 58.8667V58.0826C41.8537 57.4299 41.5943 56.804 41.1329 56.3423C40.6715 55.8806 40.0458 55.6208 39.3931 55.6199H36.1769L44.1467 54.0833L46.6479 60.9968C46.65 61.0153 46.6495 61.0337 46.6533 61.0522ZM44.4056 45.3283C44.7755 45.2594 45.1511 45.2265 45.5273 45.2299H45.6542C45.9219 45.227 46.1894 45.2435 46.4547 45.2794C47.5484 45.4378 48.5787 45.8893 49.4366 46.5858C50.2945 47.2824 50.9479 48.1981 51.3276 49.2359L58.9337 69.9996L53.935 71.8735C53.8552 71.9034 53.782 71.9488 53.7197 72.007C53.6573 72.0652 53.6071 72.1352 53.5718 72.2128C53.5365 72.2904 53.5169 72.3743 53.514 72.4595C53.5111 72.5447 53.525 72.6297 53.555 72.7096C53.5849 72.7894 53.6303 72.8626 53.6885 72.9249C53.7467 72.9872 53.8166 73.0374 53.8943 73.0727C53.9719 73.108 54.0557 73.1277 54.141 73.1306C54.2262 73.1335 54.3112 73.1195 54.391 73.0896L59.9756 70.9962L61.8845 71.7048L53.0653 74.9176L45.1793 53.1198C45.1267 52.9743 45.0239 52.8524 44.8894 52.776C44.7549 52.6996 44.5976 52.6737 44.4457 52.703L30.1798 55.4536L29.1866 48.3024L44.4056 45.3283ZM35.1933 16.6575C35.3655 16.6575 35.5307 16.7259 35.6525 16.8477C35.7743 16.9695 35.8427 17.1347 35.8427 17.3069V20.2453C35.8427 20.3889 35.8902 20.5284 35.978 20.6421C36.0657 20.7558 36.1887 20.8372 36.3276 20.8736L38.4195 21.4208C38.7975 21.5198 39.132 21.7413 39.3707 22.0506C39.6094 22.3599 39.7389 22.7396 39.7389 23.1303V25.7487H34.5439V17.3069C34.5439 17.1347 34.6123 16.9695 34.7341 16.8477C34.8559 16.7259 35.0211 16.6575 35.1933 16.6575ZM19.8184 17.5747C20.4757 17.572 21.1173 17.3739 21.6618 17.0057C21.9915 16.783 22.3795 16.6624 22.7773 16.6591L23.0987 16.6575C23.25 16.6576 23.3951 16.7176 23.5023 16.8245C23.6094 16.9314 23.6698 17.0763 23.6702 17.2277L23.6686 18.0248C23.6683 18.1304 23.6939 18.2346 23.743 18.3281C23.7922 18.4217 23.8634 18.5018 23.9506 18.5616L24.5308 18.9597C24.5668 18.9847 24.5961 19.0182 24.6163 19.0571C24.6369 19.0948 24.6476 19.1372 24.6475 19.1802C24.6478 19.2153 24.6411 19.2501 24.6279 19.2827C24.6146 19.3153 24.5951 19.3449 24.5703 19.3698C24.5456 19.3948 24.5162 19.4146 24.4838 19.4282C24.4513 19.4418 24.4166 19.4488 24.3814 19.4488L21.292 19.4634C21.1568 19.464 21.0251 19.5068 20.9153 19.5859C20.8056 19.6649 20.7232 19.7763 20.6798 19.9044C20.6298 20.0539 20.5587 20.1955 20.4688 20.325C20.2981 20.1076 20.08 19.932 19.8312 19.8115C19.5824 19.691 19.3094 19.6288 19.033 19.6297H19.0234C18.8444 19.6303 18.6663 19.6561 18.4944 19.7063L18.4908 18.9073C18.4917 18.555 18.6317 18.2173 18.8804 17.9678C19.129 17.7182 19.4662 17.577 19.8184 17.5747ZM18.8486 21.9551C18.7476 21.9192 18.66 21.8531 18.5979 21.7657C18.5358 21.6783 18.5021 21.574 18.5013 21.4668V21.4291C18.5019 21.3612 18.5161 21.2942 18.5432 21.2319C18.5703 21.1697 18.6096 21.1135 18.6588 21.0668C18.7081 21.0201 18.7663 20.9838 18.8298 20.9601C18.8934 20.9364 18.9612 20.9257 19.029 20.9288H19.0317C19.1674 20.9283 19.2979 20.9805 19.3959 21.0744C19.4938 21.1682 19.5516 21.2965 19.5569 21.432C19.5615 21.5421 19.594 21.6492 19.6514 21.7432C19.7088 21.8373 19.7892 21.9151 19.885 21.9695C19.9808 22.024 20.0889 22.0531 20.199 22.0542C20.3092 22.0554 20.4178 22.0285 20.5147 21.976C21.0283 21.6984 21.4481 21.2746 21.7209 20.7585L22.6169 20.7541L22.6288 22.8451C22.6297 23.1033 22.5281 23.3514 22.3463 23.5348C22.1645 23.7183 21.9173 23.8221 21.6591 23.8235H21.4894C21.4281 23.8238 21.3669 23.8204 21.306 23.8133C21.2162 23.8036 21.1254 23.8128 21.0394 23.8403C20.9534 23.8677 20.8741 23.9128 20.8064 23.9726C20.7388 24.0324 20.6844 24.1057 20.6467 24.1877C20.609 24.2697 20.5888 24.3587 20.5875 24.449L20.5686 25.6929H19.2252L19.2739 22.5736C19.2758 22.4392 19.2359 22.3075 19.1597 22.1967C19.0835 22.0859 18.9748 22.0015 18.8486 21.9551ZM28.3712 26.9934C28.932 26.9956 29.4773 27.1784 29.9262 27.5146C30.3752 27.8509 30.7039 28.3227 30.8638 28.8604L33.2713 37.0811C33.3152 37.231 33.4117 37.3601 33.5431 37.4447C33.6744 37.5293 33.8319 37.5637 33.9866 37.5415C34.1412 37.5194 34.2827 37.4422 34.3851 37.3242C34.4875 37.2062 34.5439 37.0552 34.5439 36.8989V27.0475H39.7389V37.6743C39.739 38.7925 39.411 39.8861 38.7955 40.8198C38.1801 41.7534 37.3042 42.4859 36.2765 42.9266C35.2488 43.3673 34.1144 43.4968 33.0138 43.299C31.9132 43.1012 30.8949 42.5849 30.0848 41.814C30.023 41.7553 29.9502 41.7093 29.8706 41.6786C29.791 41.648 29.7061 41.6333 29.6209 41.6355C29.5356 41.6377 29.4516 41.6566 29.3736 41.6912C29.2957 41.7259 29.2253 41.7755 29.1666 41.8373C29.1078 41.8992 29.0618 41.972 29.0311 42.0516C29.0005 42.1312 28.9859 42.216 28.988 42.3013C28.9902 42.3866 29.0091 42.4706 29.0437 42.5485C29.0784 42.6265 29.128 42.6969 29.1899 42.7556C29.2621 42.8245 29.336 42.891 29.411 42.9563L30.199 46.7822L29.0074 47.015L27.4223 35.6029C27.2897 34.6727 26.8268 33.8213 26.1182 33.2043C25.4096 32.5873 24.5026 32.2458 23.563 32.2424H11.6487C11.0918 32.2425 10.5414 32.3619 10.0345 32.5927C9.52771 32.8234 9.07623 33.1602 8.71054 33.5802C8.34485 34.0002 8.07344 34.4937 7.91461 35.0274C7.75578 35.5612 7.71321 36.1228 7.78978 36.6744L9.55932 49.4167H9.4327C8.82006 49.4198 8.21359 49.2943 7.65242 49.0485C7.09124 48.8028 6.58782 48.4421 6.17463 47.9897C5.75976 47.5398 5.44246 47.0089 5.24268 46.4304C5.04289 45.8519 4.96494 45.2383 5.01372 44.6283C5.02666 44.4549 5.05062 44.2825 5.08547 44.1122L8.0695 29.1959C8.19495 28.5755 8.53082 28.0175 9.02031 27.6163C9.50981 27.215 10.1229 26.9952 10.7558 26.9939L28.3712 26.9934ZM30.3003 10.5571C29.9773 10.8787 29.5757 11.11 29.1355 11.228C28.6953 11.346 28.2319 11.3465 27.7914 11.2296L30.9724 8.04894C31.0893 8.48929 31.0888 8.9526 30.9709 9.39268C30.8529 9.83277 30.6217 10.2343 30.3003 10.5571ZM30.3003 4.12932L31.6778 5.50664L25.249 11.9354L23.8715 10.5578C23.019 9.70528 22.54 8.54903 22.54 7.34339C22.54 6.13776 23.019 4.98151 23.8715 4.129C24.724 3.27649 25.8803 2.79755 27.0859 2.79755C28.2915 2.79755 29.4478 3.27649 30.3003 4.129V4.12932ZM22.4948 2.75087C22.6151 2.63014 22.758 2.53444 22.9155 2.46929C23.0729 2.40414 23.2417 2.37084 23.4121 2.37131C23.5713 2.3714 23.7291 2.40067 23.8778 2.45768C23.2108 2.89666 22.6401 3.46686 22.2005 4.13355C22.111 3.89926 22.0911 3.6441 22.1433 3.39878C22.1954 3.15347 22.3174 2.92846 22.4945 2.75087H22.4948ZM3.24678 15.3588C3.63208 15.3588 4.00873 15.473 4.32909 15.6871C4.64946 15.9011 4.89915 16.2054 5.0466 16.5614C5.19405 16.9173 5.23263 17.309 5.15746 17.6869C5.08229 18.0648 4.89675 18.412 4.6243 18.6844C4.35185 18.9569 4.00473 19.1424 3.62683 19.2176C3.24894 19.2927 2.85723 19.2542 2.50126 19.1067C2.14529 18.9593 1.84104 18.7096 1.62698 18.3892C1.41291 18.0688 1.29866 17.6922 1.29866 17.3069C1.29922 16.7904 1.50464 16.2952 1.86987 15.93C2.23509 15.5647 2.73027 15.3593 3.24678 15.3588Z" fill="black"/>
<path d="M76.7549 11.4629H59.8712C59.699 11.4629 59.5338 11.5313 59.412 11.6531C59.2902 11.7749 59.2218 11.94 59.2218 12.1123V14.0604H46.8837C46.7115 14.0604 46.5464 14.1288 46.4246 14.2506C46.3028 14.3724 46.2344 14.5375 46.2344 14.7098V27.6972C46.2344 27.8694 46.3028 28.0346 46.4246 28.1564C46.5464 28.2782 46.7115 28.3466 46.8837 28.3466H62.4687C62.6409 28.3466 62.8061 28.2782 62.9279 28.1564C63.0496 28.0346 63.1181 27.8694 63.1181 27.6972V25.7491H76.7549C76.9271 25.7491 77.0923 25.6807 77.2141 25.5589C77.3358 25.4371 77.4043 25.2719 77.4043 25.0997V12.1123C77.4043 11.94 77.3358 11.7749 77.2141 11.6531C77.0923 11.5313 76.9271 11.4629 76.7549 11.4629ZM76.1055 12.7616V14.0604H60.5206V12.7616H76.1055ZM47.5331 15.3591H61.8193V16.6579H47.5331V15.3591ZM61.8193 27.0478H47.5331V17.9566H61.8193V27.0478ZM63.1181 24.4503V23.1516H66.3649C66.5371 23.1516 66.7023 23.0832 66.8241 22.9614C66.9459 22.8396 67.0143 22.6744 67.0143 22.5022C67.0143 22.33 66.9459 22.1648 66.8241 22.043C66.7023 21.9213 66.5371 21.8528 66.3649 21.8528H63.1181V20.5541H71.5599C71.7321 20.5541 71.8973 20.4857 72.0191 20.3639C72.1409 20.2421 72.2093 20.077 72.2093 19.9047C72.2093 19.7325 72.1409 19.5673 72.0191 19.4456C71.8973 19.3238 71.7321 19.2554 71.5599 19.2554H63.1181V17.9566H68.9624C69.1346 17.9566 69.2998 17.8882 69.4216 17.7664C69.5434 17.6446 69.6118 17.4795 69.6118 17.3072C69.6118 17.135 69.5434 16.9698 69.4216 16.8481C69.2998 16.7263 69.1346 16.6579 68.9624 16.6579H63.1181V15.3591H76.1055V24.4503H63.1181Z" fill="black"/>
<path d="M74.1569 21.8516H68.9619C68.7896 21.8516 68.6245 21.92 68.5027 22.0418C68.3809 22.1635 68.3125 22.3287 68.3125 22.5009C68.3125 22.6732 68.3809 22.8383 68.5027 22.9601C68.6245 23.0819 68.7896 23.1503 68.9619 23.1503H74.1569C74.3291 23.1503 74.4942 23.0819 74.616 22.9601C74.7378 22.8383 74.8062 22.6732 74.8062 22.5009C74.8062 22.3287 74.7378 22.1635 74.616 22.0418C74.4942 21.92 74.3291 21.8516 74.1569 21.8516Z" fill="black"/>
<path d="M60.158 19.3225C60.0817 19.2843 59.9986 19.2616 59.9136 19.2555C59.8285 19.2495 59.7431 19.2603 59.6621 19.2872C59.5812 19.3142 59.5064 19.3568 59.442 19.4127C59.3776 19.4686 59.3248 19.5366 59.2867 19.6129L57.1897 23.8071L55.2128 20.8419C55.1497 20.7472 55.0629 20.6708 54.961 20.6203C54.8591 20.5697 54.7457 20.5469 54.6321 20.5539C54.5186 20.561 54.4089 20.5978 54.3141 20.6606C54.2192 20.7233 54.1425 20.8099 54.0917 20.9117L53.2934 22.5083L51.3166 19.5431C51.2468 19.4384 51.1481 19.3563 51.0325 19.3066C50.9169 19.257 50.7894 19.242 50.6654 19.2635C50.5414 19.2849 50.4264 19.342 50.3342 19.4276C50.242 19.5132 50.1767 19.6238 50.1463 19.7459L48.8475 24.9409C48.8268 25.0236 48.8226 25.1096 48.8352 25.194C48.8478 25.2783 48.8768 25.3594 48.9207 25.4325C48.9646 25.5056 49.0224 25.5694 49.091 25.6202C49.1595 25.6709 49.2373 25.7077 49.3201 25.7284C49.4028 25.7491 49.4888 25.7532 49.5732 25.7407C49.6575 25.7281 49.7386 25.6991 49.8117 25.6552C49.8849 25.6113 49.9486 25.5535 49.9994 25.4849C50.0502 25.4164 50.0869 25.3385 50.1076 25.2558L51.0503 21.4849L52.8335 24.1598C52.8966 24.2545 52.9835 24.3309 53.0854 24.3814C53.1873 24.4319 53.3007 24.4548 53.4142 24.4477C53.5277 24.4407 53.6374 24.4039 53.7322 24.3411C53.8271 24.2783 53.9038 24.1918 53.9547 24.09L54.7529 22.4934L56.7298 25.4586C56.7928 25.5532 56.8797 25.6296 56.9816 25.6802C57.0835 25.7307 57.1969 25.7536 57.3104 25.7465C57.4239 25.7394 57.5336 25.7027 57.6285 25.6399C57.7233 25.5771 57.8 25.4905 57.8509 25.3888L60.4484 20.1938C60.4865 20.1175 60.5093 20.0345 60.5153 19.9494C60.5214 19.8643 60.5106 19.7789 60.4836 19.698C60.4567 19.6171 60.414 19.5423 60.3581 19.4778C60.3023 19.4134 60.2342 19.3606 60.158 19.3225Z" fill="black"/>
</svg>
