<svg width="206" height="106" viewBox="0 0 206 106" fill="none" xmlns="http://www.w3.org/2000/svg">
<path fill-rule="evenodd" clip-rule="evenodd" d="M178.133 47.8421C177.23 48.3125 176.406 48.8971 175.675 49.5733L173.05 48.6386L170.582 52.5339L172.548 54.509C172.249 55.4578 172.072 56.4526 172.032 57.4709L169.516 58.6661L170.525 63.1653L173.311 63.1714C173.781 64.0747 174.367 64.8987 175.043 65.629L174.108 68.2549L178.003 70.7227L179.978 68.7563C180.927 69.0555 181.922 69.2322 182.94 69.2715L184.135 71.7883L188.635 70.779L188.641 67.9928C189.544 67.5227 190.368 66.9378 191.098 66.2616L193.725 67.1963L196.193 63.301L194.225 61.3259C194.525 60.3771 194.701 59.3822 194.741 58.3643L197.258 57.1691L196.249 52.6696L193.463 52.6638C192.992 51.7605 192.407 50.9362 191.731 50.2059L192.666 47.58L188.771 45.1122L186.796 47.0789C185.847 46.7797 184.852 46.6027 183.834 46.5634L182.639 44.0469L178.139 45.0562L178.133 47.8421ZM182.1 53.1365C184.765 52.5387 187.412 54.2146 188.009 56.8805C188.607 59.5461 186.931 62.1918 184.265 62.7899C181.599 63.3877 178.954 61.7115 178.356 59.0459C177.758 56.38 179.434 53.7346 182.1 53.1365Z" fill="#23B54B"/>
<g opacity="0.8">
<path fill-rule="evenodd" clip-rule="evenodd" d="M178.133 47.8421C177.23 48.3125 176.406 48.8971 175.675 49.5733L173.05 48.6386L170.582 52.5339L172.548 54.509C172.249 55.4578 172.072 56.4526 172.032 57.4709L169.516 58.6661L170.525 63.1653L173.311 63.1714C173.781 64.0747 174.367 64.8987 175.043 65.629L174.108 68.2549L178.003 70.7227L179.978 68.7563C180.927 69.0555 181.922 69.2322 182.94 69.2715L184.135 71.7883L188.635 70.779L188.641 67.9928C189.544 67.5227 190.368 66.9378 191.098 66.2616L193.725 67.1963L196.193 63.301L194.225 61.3259C194.525 60.3771 194.701 59.3822 194.741 58.3643L197.258 57.1691L196.249 52.6696L193.463 52.6638C192.992 51.7605 192.407 50.9362 191.731 50.2059L192.666 47.58L188.771 45.1122L186.796 47.0789C185.847 46.7797 184.852 46.6027 183.834 46.5634L182.639 44.0469L178.139 45.0562L178.133 47.8421ZM182.1 53.1365C184.765 52.5387 187.412 54.2146 188.009 56.8805C188.607 59.5461 186.931 62.1918 184.265 62.7899C181.599 63.3877 178.954 61.7115 178.356 59.0459C177.758 56.38 179.434 53.7346 182.1 53.1365Z" fill="white"/>
</g>
<path d="M174.161 88.291C174.161 88.291 173.758 88.3192 173.103 88.6219C172.463 88.9202 171.555 89.5714 170.995 90.7557C170.723 91.3413 170.536 92.0498 170.565 92.8168C170.597 93.5778 170.8 94.4018 171.274 95.1275C171.499 95.4952 171.793 95.8338 172.135 96.1288C172.472 96.4287 172.866 96.6821 173.298 96.867C174.155 97.2568 175.172 97.3586 176.147 97.1487C177.119 96.9221 177.996 96.3957 178.605 95.6773C178.917 95.3253 179.164 94.9285 179.342 94.5128C179.525 94.1 179.646 93.6687 179.692 93.2399C179.811 92.3813 179.642 91.549 179.346 90.8472C179.045 90.1413 178.573 89.5806 178.077 89.1675C177.064 88.3358 175.965 88.1349 175.259 88.1387C174.538 88.1442 174.161 88.291 174.161 88.291C174.166 88.3224 174.553 88.2133 175.257 88.2386C175.948 88.2648 177.003 88.4901 177.96 89.3064C178.43 89.7119 178.872 90.2549 179.151 90.9311C179.424 91.6037 179.577 92.3966 179.458 93.2095C179.41 93.6159 179.293 94.0235 179.117 94.4133C178.947 94.8059 178.711 95.1803 178.415 95.5119C177.837 96.1893 177.01 96.6831 176.091 96.8978C175.169 97.0955 174.211 97.0021 173.399 96.6366C172.989 96.4635 172.616 96.2258 172.295 95.9432C171.97 95.6658 171.69 95.3474 171.473 95.0002C171.019 94.3163 170.818 93.5342 170.778 92.8091C170.741 92.0782 170.909 91.3986 171.16 90.8315C171.677 89.6843 172.535 89.0299 173.148 88.7112C173.774 88.3877 174.17 88.3214 174.161 88.291Z" fill="#263238"/>
<path d="M170.567 83.501C170.571 83.5029 170.574 83.4501 170.577 83.3442C170.58 83.2271 170.583 83.0703 170.588 82.8671C170.594 82.4296 170.603 81.7992 170.614 80.9813L170.582 81.021C171.626 80.7935 172.998 80.4939 174.657 80.1317L174.584 80.0962C174.909 80.7871 175.27 81.5551 175.656 82.3768L175.675 82.4181L175.721 82.42C176.568 82.4562 177.468 82.6018 178.378 82.8914L178.426 82.9067L178.463 82.8706C179.021 82.3176 179.626 81.7192 180.255 81.0968L180.141 81.1093C181.249 81.8149 182.425 82.5634 183.659 83.3496L183.618 83.2303C183.355 83.965 183.065 84.7743 182.768 85.6037L182.746 85.6642L182.79 85.7116C183.358 86.3263 183.903 87.0773 184.336 87.9138L184.366 87.9733L184.434 87.9736C185.215 87.9765 186.077 87.9794 186.954 87.9826L186.842 87.8933C187.127 89.172 187.435 90.5512 187.75 91.9643L187.815 91.8303C187.106 92.1663 186.327 92.5352 185.538 92.9093L185.472 92.941L185.469 93.0149C185.436 93.8565 185.288 94.7727 185.006 95.661L184.983 95.7327L185.036 95.7861C185.593 96.3461 186.201 96.9567 186.814 97.5736L186.797 97.4178C186.09 98.533 185.332 99.7285 184.564 100.94L184.714 100.889C183.964 100.621 183.155 100.333 182.339 100.042L182.266 100.017L182.209 100.069C181.583 100.65 180.834 101.19 180.016 101.614L180.015 101.615L180.014 101.615C179.983 101.666 180.083 101.502 179.945 101.729V101.732V101.737V101.747V101.767V101.806L179.944 101.886L179.944 102.044L179.943 102.361L179.942 102.993C179.941 103.414 179.94 103.833 179.939 104.249L180.04 104.125C178.664 104.433 177.307 104.738 175.969 105.039L176.112 105.108C175.748 104.342 175.387 103.583 175.03 102.832L174.997 102.763L174.921 102.76C174.013 102.725 173.121 102.568 172.274 102.301L172.202 102.278L172.149 102.331C171.545 102.933 170.951 103.526 170.364 104.112L170.516 104.095C169.312 103.334 168.137 102.591 166.99 101.866L167.038 102.006C167.325 101.2 167.605 100.408 167.881 99.6296L167.904 99.5637L167.857 99.5128C167.232 98.8396 166.712 98.0962 166.305 97.317L166.274 97.2572H166.206C165.342 97.2568 164.505 97.2562 163.687 97.2559L163.791 97.3394C163.467 95.9083 163.16 94.5573 162.869 93.2716L162.815 93.382C163.615 92.9999 164.365 92.6411 165.089 92.2952L165.14 92.2712L165.142 92.2156C165.178 91.2536 165.345 90.3695 165.597 89.5583L165.612 89.5093L165.576 89.4735C164.928 88.8264 164.344 88.2437 163.792 87.693L163.802 87.7871C164.661 86.4184 165.392 85.2523 166.019 84.2539L165.951 84.2773C166.902 84.6088 167.681 84.8808 168.331 85.1074L168.355 85.1157L168.374 85.0988C169.043 84.4732 169.612 84.093 169.992 83.852C170.178 83.7397 170.321 83.6539 170.425 83.5909C170.525 83.5314 170.57 83.5029 170.567 83.501C170.565 83.4994 170.512 83.5228 170.414 83.5704C170.315 83.6216 170.164 83.6991 169.969 83.8143C169.58 84.0447 169 84.4159 168.316 85.0367L168.358 85.028C167.711 84.7931 166.935 84.5112 165.989 84.1672L165.946 84.1516L165.921 84.1906C165.285 85.1835 164.544 86.3432 163.673 87.7042L163.64 87.7551L163.683 87.7983C164.231 88.3525 164.812 88.9394 165.456 89.5906L165.435 89.5058C165.173 90.3285 164.998 91.2274 164.957 92.2066L165.009 92.1269C164.284 92.4693 163.532 92.8242 162.73 93.2024L162.659 93.236L162.676 93.3128C162.962 94.5999 163.263 95.9522 163.581 97.3845L163.6 97.4677L163.685 97.468C164.503 97.4712 165.341 97.4744 166.205 97.478L166.107 97.4181C166.52 98.2159 167.05 98.9778 167.687 99.668L167.663 99.5512C167.385 100.329 167.102 101.12 166.815 101.925L166.783 102.014L166.863 102.065C168.008 102.792 169.182 103.537 170.384 104.301L170.466 104.353L170.536 104.284C171.124 103.7 171.719 103.108 172.324 102.507L172.199 102.537C173.065 102.811 173.98 102.974 174.911 103.01L174.802 102.939C175.158 103.69 175.518 104.449 175.881 105.216L175.925 105.308L176.024 105.285C177.362 104.986 178.719 104.682 180.095 104.374L180.195 104.351L180.195 104.249C180.196 103.832 180.197 103.413 180.198 102.993L180.199 102.361L180.2 102.044L180.2 101.885V101.806V101.766V101.746V101.736V101.731V101.729C180.062 101.955 180.163 101.791 180.132 101.842L180.132 101.841L180.133 101.841C180.973 101.405 181.741 100.851 182.382 100.256L182.252 100.283C183.068 100.573 183.877 100.861 184.628 101.128L184.724 101.162L184.779 101.076C185.546 99.8636 186.303 98.6674 187.009 97.5516L187.063 97.4664L186.992 97.3954C186.378 96.7791 185.769 96.1692 185.212 95.6101L185.242 95.7349C185.53 94.8242 185.68 93.8853 185.712 93.0235L185.643 93.1288C186.431 92.7535 187.209 92.3829 187.918 92.0453L188.004 92.0043L187.983 91.9112C187.664 90.4988 187.353 89.1205 187.065 87.8424L187.045 87.7531H186.953C186.076 87.7528 185.214 87.7522 184.434 87.7516L184.532 87.8111C184.087 86.9573 183.527 86.1922 182.945 85.5669L182.967 85.6744C183.26 84.8437 183.548 84.0335 183.808 83.2975L183.835 83.221L183.767 83.1781C182.529 82.3976 181.35 81.6546 180.239 80.9541L180.177 80.9151L180.125 80.9666C179.5 81.5925 178.899 82.1944 178.343 82.7506L178.428 82.7298C177.502 82.4408 176.586 82.2991 175.726 82.2687L175.791 82.3116C175.399 81.493 175.032 80.7279 174.701 80.0396L174.679 79.9922L174.628 80.0037C172.973 80.3852 171.604 80.7003 170.563 80.94L170.531 80.9474L170.531 80.98C170.539 81.7909 170.544 82.4159 170.549 82.8495C170.552 83.0552 170.555 83.2143 170.558 83.333C170.561 83.4427 170.565 83.4994 170.567 83.501Z" fill="#263238"/>
<path fill-rule="evenodd" clip-rule="evenodd" d="M194.398 74.3483C193.873 74.6222 193.393 74.9623 192.968 75.3559L191.439 74.812L190.002 77.0795L191.147 78.2292C190.973 78.7816 190.87 79.3608 190.847 79.9534L189.382 80.6491L189.969 83.2683L191.591 83.2718C191.865 83.7979 192.206 84.2776 192.599 84.7025L192.055 86.2312L194.322 87.6676L195.472 86.523C196.025 86.6974 196.604 86.7998 197.196 86.8228L197.892 88.2878L200.512 87.7003L200.515 86.0782C201.041 85.8046 201.521 85.4641 201.946 85.0705L203.475 85.6145L204.911 83.347L203.766 82.1972C203.94 81.6449 204.043 81.0657 204.066 80.4731L205.531 79.7774L204.944 77.1582L203.322 77.1547C203.048 76.6286 202.708 76.1489 202.314 75.724L202.858 74.1953L200.591 72.7588L199.441 73.9038C198.889 73.7294 198.309 73.6267 197.717 73.6036L197.021 72.1387L194.402 72.7262L194.398 74.3483ZM196.707 77.4305C198.259 77.0823 199.8 78.058 200.147 79.61C200.496 81.1617 199.52 82.7019 197.968 83.05C196.416 83.3982 194.876 82.4222 194.528 80.8705C194.18 79.3185 195.155 77.7783 196.707 77.4305Z" fill="#23B54B"/>
<g opacity="0.4">
<path fill-rule="evenodd" clip-rule="evenodd" d="M194.398 74.3483C193.873 74.6222 193.393 74.9623 192.968 75.3559L191.439 74.812L190.002 77.0795L191.147 78.2292C190.973 78.7816 190.87 79.3608 190.847 79.9534L189.382 80.6491L189.969 83.2683L191.591 83.2718C191.865 83.7979 192.206 84.2776 192.599 84.7025L192.055 86.2312L194.322 87.6676L195.472 86.523C196.025 86.6974 196.604 86.7998 197.196 86.8228L197.892 88.2878L200.512 87.7003L200.515 86.0782C201.041 85.8046 201.521 85.4641 201.946 85.0705L203.475 85.6145L204.911 83.347L203.766 82.1972C203.94 81.6449 204.043 81.0657 204.066 80.4731L205.531 79.7774L204.944 77.1582L203.322 77.1547C203.048 76.6286 202.708 76.1489 202.314 75.724L202.858 74.1953L200.591 72.7588L199.441 73.9038C198.889 73.7294 198.309 73.6267 197.717 73.6036L197.021 72.1387L194.402 72.7262L194.398 74.3483ZM196.707 77.4305C198.259 77.0823 199.8 78.058 200.147 79.61C200.496 81.1617 199.52 82.7019 197.968 83.05C196.416 83.3982 194.876 82.4222 194.528 80.8705C194.18 79.3185 195.155 77.7783 196.707 77.4305Z" fill="white"/>
</g>
<path fill-rule="evenodd" clip-rule="evenodd" d="M26.0613 29.0148C25.3192 29.1079 24.6018 29.2999 23.9259 29.5786L22.3566 28.2634L19.6606 30.3153L20.5099 32.1783C20.0609 32.7553 19.6846 33.3953 19.3972 34.0865L17.3582 34.266L16.9031 37.6231L18.8202 38.3399C18.913 39.0823 19.1054 39.7997 19.3844 40.4753L18.0692 42.0449L20.1208 44.7405L21.9841 43.8913C22.5611 44.3402 23.2014 44.7159 23.8926 45.0036L24.0718 47.0426L27.4293 47.4983L28.1458 45.5809C28.8882 45.4881 29.6054 45.2957 30.2812 45.0167L31.8512 46.3322L34.5472 44.2804L33.6976 42.417C34.1466 41.8401 34.5223 41.2001 34.8103 40.5092L36.849 40.3293L37.3047 36.9722L35.3872 36.2557C35.2944 35.5133 35.1021 34.7959 34.823 34.1201L36.1386 32.5505L34.087 29.8548L32.2237 30.7044C31.6467 30.2554 31.0067 29.8794 30.3155 29.5917L30.1359 27.553L26.7788 27.0977L26.0613 29.0148ZM27.0684 33.6445C29.3775 33.7271 31.0198 35.8839 30.4844 38.1322C30.0883 39.7949 28.5398 40.9729 26.8316 40.9108C24.5237 40.8266 22.8837 38.6714 23.4178 36.425C23.8126 34.762 25.3605 33.5834 27.0684 33.6445Z" fill="#263238"/>
<path d="M12.8943 8.92764C12.8943 8.92764 12.5138 8.81564 11.8089 8.87068C11.1183 8.92636 10.0623 9.215 9.14259 10.1126C8.69234 10.5577 8.27889 11.1456 8.04369 11.8604C7.81328 12.5708 7.71921 13.3977 7.90673 14.2265C7.98865 14.6416 8.14257 15.0528 8.35633 15.4406C8.56433 15.8316 8.83954 16.1987 9.17363 16.5161C9.82868 17.167 10.7285 17.6073 11.6969 17.7475C12.6678 17.871 13.6527 17.6861 14.4579 17.2336C14.8646 17.0166 15.2278 16.736 15.5328 16.4147C15.8419 16.0979 16.1001 15.7427 16.2896 15.3641C16.6915 14.6153 16.8208 13.7929 16.7881 13.047C16.7517 12.2953 16.5097 11.6188 16.1945 11.0697C15.5472 9.95964 14.6064 9.39996 13.9555 9.16252C13.2908 8.92124 12.8943 8.92764 12.8943 8.92764C12.8879 8.95804 13.2806 8.98972 13.919 9.25308C14.5449 9.51292 15.438 10.0803 16.0397 11.1574C16.3328 11.6902 16.5539 12.3404 16.5798 13.0572C16.6016 13.7689 16.471 14.55 16.0841 15.2563C15.902 15.6137 15.655 15.9484 15.3603 16.2467C15.07 16.5497 14.7254 16.8134 14.3398 17.0169C13.5769 17.4425 12.6482 17.614 11.7308 17.4979C10.8159 17.3648 9.96692 16.9523 9.34515 16.3388C9.02803 16.04 8.76594 15.694 8.5669 15.3248C8.36242 14.9587 8.2136 14.5705 8.13328 14.1776C7.94864 13.3936 8.03089 12.6064 8.24178 11.926C8.45746 11.2419 8.84401 10.6745 9.26834 10.2387C10.1352 9.3606 11.1471 9.0518 11.8197 8.96796C12.5055 8.88444 12.8924 8.95868 12.8943 8.92764Z" fill="#263238"/>
<path d="M11.2348 3.30013C11.237 3.30301 11.2578 3.25565 11.2972 3.15901C11.3397 3.05245 11.3967 2.90941 11.4703 2.72413C11.6252 2.32413 11.8482 1.74749 12.1378 0.999326L12.0949 1.02493C13.1318 1.17181 14.4953 1.36477 16.1443 1.59805L16.0892 1.54045C16.152 2.28637 16.2214 3.11549 16.296 4.00253L16.2995 4.04701L16.3411 4.06461C17.1072 4.38685 17.8854 4.82813 18.6224 5.40477L18.6618 5.43549L18.7075 5.41469C19.4096 5.09693 20.1696 4.75325 20.96 4.39549L20.8516 4.36829C21.6292 5.39485 22.4541 6.48445 23.3207 7.62813L23.3236 7.50429C22.8308 8.08989 22.2881 8.73469 21.7319 9.39582L21.6912 9.44381L21.7152 9.50237C22.0279 10.2611 22.2727 11.1376 22.3847 12.0544L22.3927 12.1197L22.4545 12.1427C23.1716 12.4118 23.9623 12.7088 24.7678 13.0109L24.6958 12.8905C24.5214 14.1632 24.3335 15.536 24.1409 16.9427L24.2468 16.8419C23.4801 16.9088 22.6385 16.9821 21.7853 17.0566L21.7133 17.063L21.6855 17.1299C21.368 17.8921 20.9191 18.6838 20.3568 19.4045L20.3114 19.4627L20.3421 19.5299C20.6631 20.2345 21.0128 21.0035 21.3665 21.7798L21.4039 21.6307C20.3731 22.4144 19.2682 23.2547 18.1485 24.1062L18.3046 24.1097C17.7062 23.608 17.0605 23.0665 16.4099 22.5213L16.3516 22.4723L16.2812 22.5014C15.5081 22.8214 14.6351 23.0621 13.7382 23.1734L13.7369 23.1737H13.7362C13.6905 23.2099 13.838 23.0931 13.6335 23.2547L13.6326 23.2569L13.631 23.2614L13.6274 23.2707L13.6207 23.2889L13.607 23.3254L13.5798 23.3984L13.5254 23.544L13.4166 23.8349L13.1996 24.4153C13.0553 24.8016 12.9116 25.1862 12.7685 25.5693L12.9033 25.4886C11.5337 25.303 10.182 25.12 8.85009 24.9395L8.9573 25.0521C8.88402 24.2237 8.81138 23.4032 8.7397 22.5907L8.73298 22.5161L8.66386 22.4873C7.84081 22.1456 7.07438 21.6963 6.38765 21.1622L6.32941 21.1168L6.26222 21.1475C5.50189 21.4947 4.75307 21.8368 4.01353 22.1744L4.15883 22.2109C3.31242 21.1008 2.4852 20.0163 1.67911 18.959L1.67559 19.1037C2.21352 18.4601 2.74185 17.8281 3.26122 17.207L3.30505 17.1545L3.27882 17.0915C2.93385 16.2595 2.70985 15.3987 2.60136 14.5433L2.59304 14.4777L2.53129 14.4547C1.73703 14.1593 0.967102 13.8733 0.215411 13.5936L0.2826 13.7056C0.473003 12.2793 0.652538 10.9331 0.823741 9.65181L0.736689 9.73469C1.6023 9.65629 2.41447 9.58269 3.19753 9.51197L3.25225 9.50717L3.27305 9.45693C3.63402 8.58493 4.0897 7.82909 4.59819 7.16957L4.62891 7.12957L4.60811 7.08445C4.23275 6.26845 3.89481 5.53309 3.57513 4.83869L3.55273 4.92861C4.80907 3.96349 5.87982 3.14109 6.79631 2.43741L6.7259 2.43581C7.48687 3.06493 8.11088 3.58141 8.63089 4.01149L8.65009 4.02717L8.67249 4.01789C9.5013 3.67133 10.1541 3.51613 10.5858 3.42429C10.7954 3.38461 10.9557 3.35421 11.0732 3.33213C11.1855 3.31325 11.237 3.30269 11.2348 3.30013C11.2325 3.29757 11.1762 3.30141 11.0703 3.31165C10.9612 3.32477 10.7967 3.34461 10.5781 3.38365C10.142 3.46269 9.48242 3.60573 8.64177 3.94333L8.68306 3.94973C8.16881 3.51293 7.55152 2.98877 6.79887 2.34973L6.76463 2.32061L6.72846 2.34781C5.80588 3.04349 4.72811 3.85661 3.46314 4.81053L3.41577 4.84605L3.44042 4.90045C3.75531 5.59709 4.08842 6.33437 4.45835 7.15325L4.46827 7.06813C3.94698 7.73501 3.47914 8.50173 3.10698 9.38749L3.18249 9.33213C2.3988 9.39933 1.58631 9.46877 0.72038 9.54301L0.643894 9.54973L0.633328 9.62621C0.457005 10.9072 0.271728 12.2525 0.0755654 13.6777L0.0640418 13.7606L0.142441 13.7901C0.893173 14.0723 1.66215 14.3613 2.45544 14.6592L2.38537 14.5705C2.49353 15.4451 2.71976 16.3261 3.07016 17.1779L3.08809 17.0624C2.56744 17.6822 2.03752 18.3129 1.49799 18.9552L1.43846 19.0259L1.49447 19.0998C2.29865 20.1587 3.12328 21.2448 3.96777 22.3565L4.0257 22.4326L4.11307 22.3929C4.85292 22.0563 5.60236 21.7155 6.36334 21.3696L6.23822 21.3549C6.94127 21.9027 7.72592 22.3645 8.56913 22.7155L8.4936 22.6125C8.56464 23.4249 8.63665 24.2454 8.70898 25.0742L8.71761 25.1734L8.8165 25.1869C10.1484 25.368 11.4997 25.552 12.8694 25.7382L12.9689 25.7517L13.0041 25.6576C13.1471 25.2745 13.2911 24.8899 13.4355 24.5037L13.6524 23.9232L13.7612 23.6323L13.8156 23.4867L13.8428 23.4137L13.8562 23.3773L13.863 23.359L13.8662 23.3501L13.8678 23.3456L13.8687 23.3433C13.6642 23.5049 13.8124 23.3881 13.767 23.424H13.7676L13.7689 23.4237C14.6892 23.3097 15.5843 23.0627 16.3766 22.7344L16.248 22.7145C16.8985 23.2595 17.5446 23.8006 18.1434 24.3021L18.2202 24.3664L18.2995 24.3059C19.4189 23.4531 20.5229 22.6121 21.553 21.8275L21.6314 21.7677L21.5904 21.6781C21.2359 20.9021 20.8848 20.1337 20.5632 19.4294L20.5485 19.5545C21.1239 18.8157 21.5821 18.0038 21.906 17.2227L21.8061 17.296C22.6589 17.2198 23.5006 17.1449 24.267 17.0765L24.3604 17.0681L24.3729 16.9753C24.562 15.5683 24.7466 14.1952 24.9179 12.9219L24.9297 12.8329L24.8455 12.8016C24.0394 12.5017 23.2477 12.2073 22.5297 11.9401L22.5994 12.0281C22.482 11.0918 22.2289 10.1974 21.9069 9.42365L21.8906 9.53021C22.4442 8.86685 22.9844 8.21981 23.4746 7.63229L23.5255 7.57117L23.4775 7.50845C22.6058 6.36861 21.7757 5.28285 20.9933 4.25981L20.9495 4.20285L20.8845 4.23261C20.096 4.59485 19.3382 4.94269 18.6378 5.26429L18.7229 5.27421C17.9702 4.69245 17.1766 4.24957 16.3968 3.92829L16.4419 3.99005C16.3603 3.10365 16.2841 2.27517 16.2153 1.52957L16.2105 1.47837L16.1603 1.47197C14.5084 1.25757 13.143 1.08029 12.1045 0.945566L12.0722 0.941406L12.0614 0.971487C11.7913 1.71965 11.5836 2.29565 11.4393 2.69565C11.3724 2.88637 11.3209 3.03325 11.2825 3.14301C11.2492 3.24445 11.2325 3.29725 11.2348 3.30013Z" fill="#263238"/>
</svg>
