<svg width="90" height="90" viewBox="0 0 90 90" fill="none" xmlns="http://www.w3.org/2000/svg">
<path d="M47.4543 55.2812H42.543V79.551H47.4543V55.2812Z" fill="#F2F2F2"/>
<path d="M44.9986 55.2812H42.543V79.551H44.9986V55.2812Z" fill="#E3E5E5"/>
<path d="M68.6519 1.31836H21.3497C18.7381 1.31836 16.6133 3.44338 16.6133 6.05514V50.8961C16.6133 53.5078 18.7381 55.6327 21.3497 55.6327H68.6519C71.2635 55.6327 73.3883 53.5078 73.3883 50.8961V6.05514C73.3883 3.44338 71.2637 1.31836 68.6519 1.31836Z" fill="#3BBC56"/>
<path d="M21.5246 50.8962V6.05514C21.5246 3.44338 23.6494 1.31836 26.261 1.31836H21.3497C18.7381 1.31836 16.6133 3.44338 16.6133 6.05514V50.8961C16.6133 53.5078 18.7381 55.6327 21.3497 55.6327H26.261C23.6494 55.6328 21.5246 53.508 21.5246 50.8962Z" fill="#2EAF43"/>
<path d="M68.4762 48.6125C68.4762 49.7776 67.5319 50.7221 66.3666 50.7221H23.633C22.4679 50.7221 21.5234 49.7778 21.5234 48.6125V8.34002C21.5234 7.17512 22.4677 6.23047 23.633 6.23047H66.3668C67.5319 6.23047 68.4764 7.17494 68.4764 8.34002V48.6125H68.4762Z" fill="#23B54B"/>
<path d="M26.2599 48.6126V8.34002C26.2599 7.17512 27.2043 6.23047 28.3694 6.23047H23.633C22.4679 6.23047 21.5234 7.17494 21.5234 8.34002V48.6127C21.5234 49.7778 22.4677 50.7223 23.633 50.7223H28.3694C27.2042 50.7219 26.2599 49.7776 26.2599 48.6126Z" fill="#54DD6B"/>
<path d="M51.4409 83.9404C50.041 83.9404 39.7996 83.9404 38.5588 83.9404C37.3937 83.9404 36.4492 84.8847 36.4492 86.05V86.5719C36.4492 87.737 37.3935 88.6814 38.5588 88.6814C44.23 88.6814 45.8073 88.6814 51.4409 88.6814C52.606 88.6814 53.5505 87.7371 53.5505 86.5719V86.05C53.5505 84.8847 52.6062 83.9404 51.4409 83.9404Z" fill="#BABABA"/>
<path d="M44.9999 86.5719V86.05C44.9999 84.8849 45.9442 83.9404 47.1095 83.9404C43.8185 83.9404 41.5954 83.9404 38.5588 83.9404C37.3937 83.9404 36.4492 84.8847 36.4492 86.05V86.5719C36.4492 87.737 37.3935 88.6814 38.5588 88.6814C42.5427 88.6814 43.0865 88.6814 47.1095 88.6814C45.9442 88.6814 44.9999 87.737 44.9999 86.5719Z" fill="#989DA0"/>
<path d="M50.9136 81.831C50.9136 82.9959 49.9693 83.9406 48.804 83.9406H41.1955C40.0304 83.9406 39.0859 82.9961 39.0859 81.831V81.3088C39.0859 80.1439 40.0302 79.1992 41.1955 79.1992H48.804C49.9691 79.1992 50.9136 80.1437 50.9136 81.3088V81.831Z" fill="#E3E5E5"/>
<path d="M44.9998 81.831V81.3088C44.9998 80.1439 45.944 79.1992 47.1093 79.1992H41.1955C40.0304 79.1992 39.0859 80.1437 39.0859 81.3088V81.831C39.0859 82.9959 40.0302 83.9406 41.1955 83.9406H47.1093C45.944 83.9406 44.9998 82.9961 44.9998 81.831Z" fill="#D6D6D6"/>
<path d="M50.2358 17.2671C48.2649 16.2936 47.6727 16.5147 36.7344 16.5147C36.3461 16.5147 36.0312 16.8296 36.0312 17.2179V41.2473C36.0312 41.6357 36.3461 41.9505 36.7344 41.9505H41.2034C41.5917 41.9505 41.9066 41.6357 41.9066 41.2473V33.7464C47.3247 33.7464 48.5108 33.9287 50.397 33.0301C56.6173 30.0684 56.9601 20.5908 50.2358 17.2671ZM41.9066 21.6736C46.9756 21.6736 46.8423 21.615 47.4941 21.8703C50.1344 22.9079 49.7919 28.6236 46.7071 28.6236H41.9064L41.9066 21.6736Z" fill="#F5F5F5"/>
<path d="M47.9735 20.6426C47.0229 20.2705 46.8789 20.3549 41.9043 20.3549C41.1762 20.3549 40.5859 20.9452 40.5859 21.6733V28.6233C40.5859 29.3514 41.1762 29.9417 41.9043 29.9417H46.7051C51.2518 29.9418 51.9637 22.2118 47.9735 20.6426ZM47.4862 26.8799C47.0223 27.4324 47.119 27.3049 43.2227 27.3049V22.9918H46.4899C48.2853 22.9918 48.1517 26.0887 47.4862 26.8799Z" fill="black"/>
<path d="M46.8843 15.1963H36.0293C35.3012 15.1963 34.7109 15.7866 34.7109 16.5146V41.9506C34.7109 42.6786 35.3012 43.2689 36.0293 43.2689H41.9046C42.6327 43.2689 43.223 42.6786 43.223 41.9506V35.065H47.0633C54.0625 35.065 58.2662 27.5919 55.7899 21.4986C54.3062 17.8581 50.9668 15.1963 46.8843 15.1963ZM47.0633 32.4283H41.9044C41.1764 32.4283 40.5861 33.0186 40.5861 33.7467V40.6322H37.3475V17.8332C47.7689 17.8332 48.0381 17.6534 49.6495 18.4491C56.5486 21.8595 54.3972 32.4283 47.0633 32.4283Z" fill="black"/>
<path d="M20.207 6.22949V50.7211C20.207 51.4492 20.7973 52.0395 21.5254 52.0395H68.4782C69.2064 52.0395 69.7965 51.4492 69.7965 50.7211V6.22949C69.7965 5.50141 69.2064 4.91113 68.4782 4.91113H21.5256C20.7975 4.91113 20.207 5.50141 20.207 6.22949ZM22.8439 7.54803H67.1598V49.4028H22.8439V7.54803Z" fill="black"/>
<path d="M68.6501 0H30.6747C29.9466 0 29.3563 0.590273 29.3563 1.31836C29.3563 2.04644 29.9466 2.63672 30.6747 2.63672H68.65C70.5347 2.63672 72.0679 4.17023 72.0679 6.05496V50.8959C72.0679 52.7808 70.5343 54.3139 68.65 54.3139C67.2673 54.3139 22.8579 54.3139 21.3478 54.3139C19.463 54.3139 17.9299 52.7804 17.9299 50.8959V6.05513C17.9299 4.17023 19.4634 2.63689 21.3479 2.63689H24.522C25.2501 2.63689 25.8404 2.04662 25.8404 1.31853C25.8404 0.590449 25.2503 0.000175781 24.522 0.000175781H21.3478C18.0093 0 15.293 2.71635 15.293 6.05513V50.896C15.293 54.2348 18.0091 56.951 21.3478 56.951H41.2248V77.8807C39.2368 77.8807 37.7668 79.474 37.7668 81.3086C37.7668 81.8653 37.7459 82.1726 37.8802 82.6898C36.3134 83.0053 35.1299 84.3917 35.1299 86.0498V86.5717C35.1299 88.4619 36.6678 89.9996 38.5578 89.9996H51.4399C53.3301 89.9996 54.8678 88.4617 54.8678 86.5717V86.0498C54.8678 84.3915 53.6843 83.0053 52.1176 82.6898C52.7941 80.0824 51.1256 77.8806 48.7726 77.8806V73.582C48.7726 72.8539 48.1825 72.2636 47.4543 72.2636C46.726 72.2636 46.1359 72.8539 46.1359 73.582V77.8806H43.8615V56.9513H46.1359V67.4297C46.1359 68.1577 46.726 68.748 47.4543 68.748C48.1825 68.748 48.7726 68.1577 48.7726 67.4297V56.9513H68.6498C71.9884 56.9513 74.7046 54.235 74.7046 50.8964V6.05513C74.7049 2.71635 71.9888 0 68.6501 0ZM52.2313 86.5721C52.2313 87.0082 51.8764 87.3631 51.4403 87.3631H38.5581C38.122 87.3631 37.7671 87.0082 37.7671 86.5721V86.0502C37.7671 85.614 38.122 85.2591 38.5581 85.2591C40.0261 85.2591 50.2121 85.2591 51.4403 85.2591C51.8764 85.2591 52.2313 85.614 52.2313 86.0502V86.5721ZM48.8032 80.5178C49.2393 80.5178 49.5942 80.8727 49.5942 81.3088V81.8311C49.5942 82.2672 49.2393 82.6221 48.8032 82.6221H41.1949C40.7588 82.6221 40.4039 82.2672 40.4039 81.8311V81.3088C40.4039 80.8727 40.7588 80.5178 41.1949 80.5178C50.2761 80.5178 39.9382 80.5178 48.8032 80.5178Z" fill="black"/>
</svg>
