<svg width="38" height="46" viewBox="0 0 38 46" fill="none" xmlns="http://www.w3.org/2000/svg">
<path d="M17.1836 24.4199C14.8808 25.224 11.8769 24.5053 9.907 23.0669C7.93705 21.6285 6.51944 19.5674 5.2631 17.4765C4.72677 16.5844 4.20356 15.6541 4.03396 14.6272C3.86468 13.6003 4.11395 12.4448 4.91044 11.7747C6.14822 10.7331 8.0449 11.2615 9.45068 12.0621C13.8498 14.5677 16.8537 19.368 17.1836 24.4199Z" fill="#23B54B"/>
<path d="M14.7109 29.9317C13.3282 31.7564 10.9518 32.5685 8.66508 32.6745C6.37833 32.7804 4.11846 32.1481 1.98082 31.3279C1.20513 31.0303 0.356484 30.6223 0.0905596 29.8354C-0.110723 29.2399 0.0963244 28.5612 0.49537 28.0751C0.894417 27.5893 1.4605 27.2693 2.03875 27.0233C4.14279 26.1273 6.55305 26.085 8.76684 26.6591C10.9806 27.2332 12.9144 28.5167 14.7109 29.9317Z" fill="#23B54B"/>
<path d="M17.2221 14.5546C15.3159 14.5927 13.8729 12.9229 13.0099 11.2227C11.8147 8.86849 11.4099 6.12161 11.8745 3.52257C12.0489 2.54849 12.4172 1.49825 13.2889 1.02945C14.1747 0.553291 15.3274 0.866888 16.0704 1.54497C16.8132 2.22305 17.2199 3.19041 17.5168 4.15137C18.5396 7.46241 18.3191 11.2675 17.2221 14.5546Z" fill="#23B54B"/>
<path d="M23.4709 25.0978C20.221 19.5663 19.6792 12.7986 21.5989 6.67669C21.9103 5.68373 22.4978 4.54709 23.5365 4.48149C24.6866 4.40853 25.4079 5.69109 25.7253 6.79893C26.8399 10.6863 26.6028 14.8153 26.3564 18.8514C26.2047 21.3378 25.3506 23.4633 23.4709 25.0978Z" fill="#23B54B"/>
<path d="M26.8638 27.3725C28.0414 23.584 31.0376 20.4067 34.7506 19.0093C35.6137 18.6845 36.711 18.4992 37.3548 19.1594C37.9862 19.807 37.7916 20.8896 37.3865 21.6986C36.7321 23.0051 35.6697 24.0544 34.6114 25.0618C33.6489 25.9779 32.6485 26.8976 31.4309 27.4301C30.213 27.9626 27.9768 28.0983 26.8638 27.3725Z" fill="#23B54B"/>
<path d="M6.70199 13.1624C6.70039 13.1646 6.71959 13.1816 6.75863 13.2129C6.80535 13.2491 6.86263 13.2936 6.93368 13.3486C7.09912 13.4724 7.32695 13.6424 7.61496 13.858C7.7644 13.9684 7.92952 14.09 8.10904 14.2228C8.28665 14.3601 8.47193 14.5192 8.67577 14.6843C9.07802 15.0206 9.55356 15.3822 10.032 15.8372C10.2761 16.0593 10.5318 16.2916 10.798 16.5336C11.063 16.7771 11.3184 17.052 11.5942 17.3243C12.1536 17.8622 12.6954 18.49 13.2781 19.138C14.4058 20.4673 15.5632 21.9998 16.6295 23.707C17.6801 25.4248 18.5338 27.1454 19.2186 28.7486C19.538 29.5598 19.8574 30.3253 20.0884 31.0661C20.2087 31.4347 20.3406 31.7857 20.4398 32.1317C20.5374 32.4779 20.6308 32.8107 20.7201 33.1285C20.9134 33.7598 21.0241 34.347 21.1451 34.8571C21.2017 35.1131 21.2609 35.3499 21.3044 35.5701C21.3428 35.7902 21.378 35.9921 21.4097 36.1752C21.4737 36.5291 21.524 36.8088 21.5608 37.012C21.5784 37.1 21.5924 37.1717 21.604 37.2293C21.6145 37.2782 21.6213 37.3029 21.6238 37.3025C21.6264 37.3022 21.6248 37.2766 21.6193 37.227C21.612 37.1688 21.6027 37.0965 21.5912 37.0075C21.5614 36.8027 21.5204 36.5214 21.4683 36.1649C21.4404 35.9809 21.4094 35.7777 21.3758 35.5563C21.3364 35.3349 21.2814 35.0965 21.2286 34.8392C21.1153 34.3262 21.0113 33.7355 20.8244 33.1003C20.7377 32.7806 20.6471 32.4459 20.5527 32.0977C20.4561 31.7496 20.3268 31.3963 20.2084 31.0257C19.9815 30.2804 19.6657 29.5102 19.3486 28.6945C18.6682 27.0817 17.8145 25.3515 16.7594 23.6264C15.6883 21.9118 14.5226 20.3752 13.3843 19.0459C12.7965 18.3976 12.249 17.7707 11.6838 17.2347C11.4051 16.963 11.1469 16.6894 10.8787 16.4475C10.6093 16.2072 10.3507 15.9764 10.1033 15.7563C9.61882 15.3051 9.13691 14.948 8.72858 14.6174C8.52186 14.4552 8.33338 14.299 8.15289 14.1649C7.96985 14.036 7.80184 13.9176 7.64984 13.81C7.35415 13.6043 7.12054 13.4417 6.95094 13.3236C6.87638 13.2737 6.81592 13.2331 6.76695 13.2004C6.72567 13.1729 6.70359 13.1601 6.70199 13.1624Z" fill="#263238"/>
<path d="M2.40486 28.4966C2.40614 28.5017 2.48295 28.4889 2.62791 28.4595C2.77351 28.4333 2.98406 28.3773 3.26087 28.3312C3.81096 28.2237 4.6145 28.1021 5.61387 28.0435C7.60238 27.9165 10.428 28.152 13.2559 29.3289C16.0851 30.5056 18.2441 32.3446 19.5555 33.8445C20.2182 34.5949 20.6986 35.2505 21.0096 35.7165C21.1722 35.9453 21.2807 36.1341 21.3648 36.2557C21.4461 36.3792 21.4909 36.4429 21.4957 36.44C21.5002 36.4374 21.4643 36.3686 21.3914 36.2397C21.3159 36.1126 21.2151 35.9181 21.0599 35.6835C20.7629 35.2061 20.2938 34.5373 19.6371 33.7728C18.3389 32.2454 16.1711 30.3747 13.3151 29.1869C10.4603 27.9987 7.60591 27.7792 5.60715 27.9347C4.60234 28.0077 3.7972 28.1462 3.24903 28.2723C2.97319 28.3277 2.76423 28.3933 2.62055 28.4291C2.47782 28.4685 2.40358 28.4915 2.40486 28.4966Z" fill="#263238"/>
<path d="M14.4007 3.23829C14.3981 3.23893 14.4023 3.26805 14.4131 3.32405C14.4266 3.38837 14.4435 3.47029 14.465 3.57237C14.5162 3.80085 14.5875 4.11958 14.6787 4.5247C14.8659 5.35126 15.1514 6.5439 15.5104 8.0159C16.2263 10.9605 17.2669 15.0153 18.3511 19.5084C18.8897 21.7567 19.3774 23.9039 19.7975 25.862C20.2097 27.8217 20.5614 29.5906 20.8232 31.0821C20.9633 31.8265 21.0689 32.5029 21.1688 33.0962C21.2712 33.6892 21.3499 34.2012 21.411 34.6204C21.4747 35.0303 21.5249 35.3532 21.5611 35.5842C21.5787 35.6873 21.5928 35.7695 21.604 35.8345C21.6145 35.8908 21.6212 35.9193 21.6238 35.9189C21.6264 35.9186 21.6248 35.8892 21.6196 35.8322C21.6123 35.7669 21.6033 35.6837 21.5918 35.5801C21.5627 35.3481 21.522 35.0239 21.4702 34.6117C21.418 34.1909 21.348 33.6773 21.2536 33.0828C21.1617 32.4879 21.0635 31.8092 20.9297 31.0633C20.6814 29.5679 20.3406 27.7954 19.9355 25.8325C19.5223 23.8713 19.0385 21.7215 18.4999 19.4722C17.4154 14.9772 16.3581 10.9269 15.6154 7.98934C15.2464 6.52854 14.9469 5.34293 14.7367 4.51029C14.6339 4.10805 14.553 3.79158 14.4951 3.56502C14.4675 3.46422 14.4458 3.38357 14.4285 3.31989C14.4125 3.26549 14.4032 3.23765 14.4007 3.23829Z" fill="#263238"/>
<path d="M21.8692 35.4736C21.8717 35.4743 21.8788 35.4516 21.89 35.4068C21.9021 35.353 21.9172 35.2874 21.9354 35.2074C21.9745 35.0186 22.0279 34.7616 22.0954 34.4375C22.233 33.7684 22.4158 32.7968 22.6238 31.5933C23.0404 29.1869 23.5348 25.8445 23.8385 22.1277C23.9857 20.2685 24.0676 18.4931 24.1038 16.8778C24.1307 15.2621 24.1166 13.8067 24.066 12.5859C24.051 11.9751 24.0107 11.4237 23.9841 10.9392C23.9591 10.4547 23.9252 10.0381 23.8939 9.69794C23.8635 9.36802 23.8391 9.10658 23.8215 8.91458C23.8123 8.83298 23.8049 8.7661 23.7988 8.71138C23.7927 8.66562 23.7886 8.64226 23.786 8.64258C23.7835 8.6429 23.7825 8.66658 23.7835 8.71266C23.7854 8.76802 23.7879 8.8349 23.7908 8.91714C23.8014 9.10946 23.8161 9.37122 23.8343 9.7021C23.8567 10.0426 23.882 10.4592 23.8987 10.9437C23.9172 11.4282 23.9496 11.9792 23.9579 12.5891C23.9944 13.8087 23.9972 15.2618 23.9627 16.8746C23.9191 18.4871 23.8327 20.2589 23.6859 22.1152C23.3825 25.8263 22.906 29.1661 22.5169 31.5754C22.3227 32.7802 22.1562 33.754 22.0369 34.4263C21.9815 34.753 21.9373 35.0116 21.905 35.2016C21.8929 35.2829 21.883 35.3492 21.8746 35.4039C21.8686 35.4496 21.8666 35.4733 21.8692 35.4736Z" fill="#263238"/>
<path d="M21.6305 36.1762C21.6357 36.1778 21.6644 36.1119 21.715 35.9852C21.7694 35.8437 21.8405 35.6587 21.9291 35.429C21.9755 35.3064 22.0264 35.1724 22.0817 35.0268C22.1464 34.8821 22.2161 34.726 22.2904 34.5592C22.3653 34.3906 22.4446 34.2114 22.5288 34.0216C22.613 33.8312 22.7218 33.6392 22.8245 33.4325C22.9304 33.2267 23.0411 33.0117 23.1563 32.7877C23.2834 32.5695 23.4152 32.3426 23.5515 32.108C23.8123 31.6312 24.1499 31.157 24.4757 30.6408C25.1727 29.6373 25.9916 28.5707 26.9237 27.5122C27.8658 26.4616 28.8271 25.5211 29.7331 24.7C30.2003 24.3061 30.6281 23.9122 31.0601 23.5819C31.2726 23.4127 31.4777 23.2491 31.6752 23.0917C31.878 22.9423 32.0729 22.7983 32.2592 22.661C32.6278 22.3813 32.9744 22.1474 33.2797 21.9429C33.5818 21.7336 33.8458 21.5592 34.0679 21.4261C34.2762 21.2939 34.4435 21.188 34.5715 21.1071C34.6858 21.0325 34.7447 20.9912 34.7421 20.9867C34.7395 20.9823 34.6755 21.0146 34.5562 21.0805C34.424 21.1554 34.2519 21.2536 34.0371 21.3755C33.8099 21.501 33.5405 21.6687 33.233 21.8715C32.9222 22.0699 32.5699 22.2981 32.1961 22.5733C32.0073 22.7087 31.8096 22.8504 31.6041 22.9976C31.4041 23.1535 31.1961 23.3154 30.9811 23.4827C30.5439 23.8101 30.111 24.2018 29.6396 24.5947C28.7247 25.413 27.7561 26.3551 26.8095 27.4104C25.8728 28.4738 25.053 29.5487 24.3592 30.5618C24.0347 31.0831 23.6997 31.5618 23.4421 32.044C23.3077 32.2811 23.1777 32.5106 23.0526 32.7314C22.94 32.9579 22.8315 33.1755 22.7278 33.3839C22.6274 33.5932 22.5214 33.7874 22.4405 33.9803C22.3598 34.1727 22.2833 34.3544 22.2117 34.525C22.1409 34.6943 22.075 34.8524 22.0139 34.9992C21.963 35.1471 21.916 35.2834 21.8734 35.4079C21.796 35.6424 21.7336 35.8309 21.6859 35.9752C21.6446 36.1058 21.6254 36.1746 21.6305 36.1762Z" fill="#263238"/>
<path d="M7.9011 19.5772C7.90174 19.6015 8.29503 19.6015 8.92768 19.6367C9.56033 19.6712 10.432 19.7541 11.3812 19.9336C12.33 20.1148 13.1719 20.3573 13.7729 20.557C14.3745 20.756 14.7403 20.9004 14.7499 20.878C14.754 20.8684 14.667 20.8216 14.5057 20.7455C14.3451 20.668 14.107 20.5682 13.809 20.4549C13.2132 20.2277 12.3677 19.966 11.4096 19.7832C10.4515 19.6021 9.56898 19.5359 8.93153 19.5285C8.61248 19.5247 8.35456 19.5304 8.17663 19.5436C7.99871 19.5551 7.90078 19.5666 7.9011 19.5772Z" fill="#263238"/>
<path d="M5.45525 31.5537C5.50133 31.5777 5.86901 30.5182 6.79287 29.5358C7.70488 28.5415 8.73401 28.0967 8.70649 28.0525C8.69977 28.0369 8.43608 28.1249 8.04599 28.3447C7.65623 28.5633 7.14807 28.9297 6.68054 29.4317C6.21461 29.9351 5.8866 30.4686 5.69748 30.8737C5.5074 31.2788 5.43893 31.5482 5.45525 31.5537Z" fill="#263238"/>
<path d="M13.8173 7.72771C13.7862 7.76067 14.385 8.35395 15.0378 9.15747C15.6941 9.95907 16.1546 10.6644 16.1933 10.6407C16.2275 10.6215 15.8208 9.87203 15.1565 9.06083C14.4954 8.24739 13.8429 7.69795 13.8173 7.72771Z" fill="#263238"/>
<path d="M15.7607 4.33795C15.7191 4.33091 15.5863 4.90531 15.4647 5.62083C15.3428 6.33667 15.2778 6.92227 15.3197 6.92931C15.3613 6.93635 15.4938 6.36227 15.6157 5.64643C15.7377 4.93091 15.8026 4.34531 15.7607 4.33795Z" fill="#263238"/>
<path d="M21.8496 14.9788C21.8121 14.9984 22.2381 15.8947 22.801 16.9808C23.3642 18.0672 23.8509 18.9318 23.8883 18.9123C23.9258 18.8928 23.4998 17.9964 22.937 16.91C22.3741 15.8243 21.8873 14.9593 21.8496 14.9788Z" fill="#263238"/>
<path d="M25.4577 11.3656C25.4199 11.3468 25.0586 11.9951 24.6513 12.814C24.2436 13.6328 23.944 14.3119 23.9821 14.3308C24.0199 14.3496 24.3812 13.7013 24.7885 12.8824C25.1959 12.0636 25.4958 11.3845 25.4577 11.3656Z" fill="#263238"/>
<path d="M30.8176 23.7219C30.8279 23.7658 31.473 23.6403 32.2775 23.5853C33.082 23.5264 33.7383 23.5597 33.7422 23.5146C33.7473 23.4755 33.0861 23.3725 32.2666 23.4323C31.4474 23.4886 30.8071 23.6838 30.8176 23.7219Z" fill="#263238"/>
<path d="M27.1797 34.6465L25.3704 44.162C25.2507 44.7915 24.7006 45.2468 24.06 45.2468H18.7146C18.0621 45.2468 17.5053 44.7748 17.3987 44.1313L15.8259 34.6468H27.1797V34.6465Z" fill="#263238"/>
<path d="M26.5918 37.739H16.369L15.8259 34.6465H27.1797L26.5918 37.739Z" fill="#455A64"/>
<path d="M26.582 37.7383L26.3676 38.866H16.516L16.3592 37.7383H26.582Z" fill="#FAFAFA"/>
</svg>
