<svg width="40" height="40" viewBox="0 0 40 40" fill="none" xmlns="http://www.w3.org/2000/svg">
<path d="M38.75 11.25V16.875L32.8312 19.8312C31.7922 20.3547 30.6447 20.6266 29.4812 20.625H23.75C22.7554 20.625 21.8016 21.0201 21.0983 21.7233C20.3951 22.4266 20 23.3804 20 24.375V30.625C20 32.6141 19.2098 34.5218 17.8033 35.9283C16.3968 37.3348 14.4891 38.125 12.5 38.125H5.625C6.74989 36.5553 7.72104 34.8809 8.525 33.125H11.25C12.2446 33.125 13.1984 32.7299 13.9017 32.0267C14.6049 31.3234 15 30.3696 15 29.375V23.125C15 21.1359 15.7902 19.2282 17.1967 17.8217C18.6032 16.4152 20.5109 15.625 22.5 15.625H28.2312C29.3947 15.6266 30.5422 15.3547 31.5812 14.8312L31.6188 14.8125C32.4625 16.05 33.125 16.875 33.125 16.875C34.1838 15.5191 35.1525 14.0952 36.025 12.6125L38.75 11.25Z" fill="#23B54B"/>
<path d="M38.125 6.875C38.125 8.55 37.1312 10.7188 36.025 12.6125C35.1525 14.0952 34.1838 15.5191 33.125 16.875C33.125 16.875 32.4625 16.05 31.6188 14.8125C30.15 12.6563 28.125 9.2625 28.125 6.875C28.125 5.54892 28.6518 4.27715 29.5895 3.33947C30.5271 2.40178 31.7989 1.875 33.125 1.875C34.4511 1.875 35.7229 2.40178 36.6605 3.33947C37.5982 4.27715 38.125 5.54892 38.125 6.875Z" fill="#FF3051"/>
<path d="M38.125 6.875C38.125 8.55 37.1312 10.7188 36.025 12.6125C35.1525 14.0952 34.1838 15.5191 33.125 16.875C33.125 16.875 32.5937 16.2125 31.875 15.1813C32.3688 14.4625 32.9625 13.575 33.525 12.6125C34.6312 10.7188 35.625 8.55 35.625 6.875C35.6249 5.76625 35.2566 4.68893 34.5778 3.81222C33.8991 2.93551 32.9484 2.30906 31.875 2.03125C32.2837 1.9282 32.7035 1.87573 33.125 1.875C34.4511 1.875 35.7229 2.40178 36.6605 3.33947C37.5982 4.27715 38.125 5.54892 38.125 6.875Z" fill="#CD2A00"/>
<path d="M33.125 9.375C34.5057 9.375 35.625 8.25571 35.625 6.875C35.625 5.49429 34.5057 4.375 33.125 4.375C31.7443 4.375 30.625 5.49429 30.625 6.875C30.625 8.25571 31.7443 9.375 33.125 9.375Z" fill="#FEE9AB"/>
<path d="M35.625 6.87507C35.625 7.53811 35.3616 8.174 34.8928 8.64284C34.4239 9.11168 33.788 9.37507 33.125 9.37507C32.8029 9.37754 32.4838 9.31372 32.1875 9.18757C32.6489 9.002 33.0443 8.68262 33.3228 8.27051C33.6012 7.85841 33.75 7.37243 33.75 6.87507C33.75 6.37771 33.6012 5.89173 33.3228 5.47962C33.0443 5.06752 32.6489 4.74814 32.1875 4.56257C32.4838 4.43642 32.8029 4.3726 33.125 4.37507C33.788 4.37507 34.4239 4.63846 34.8928 5.1073C35.3616 5.57614 35.625 6.21203 35.625 6.87507Z" fill="#FFD422"/>
<path d="M9.375 30C9.29385 31.0864 9.00532 32.1472 8.525 33.125C7.72104 34.8809 6.74989 36.5553 5.625 38.125C4.075 35.9562 1.875 32.1813 1.875 30C1.875 29.0054 2.27009 28.0516 2.97335 27.3483C3.67661 26.6451 4.63044 26.25 5.625 26.25C6.61956 26.25 7.57339 26.6451 8.27665 27.3483C8.97991 28.0516 9.375 29.0054 9.375 30Z" fill="#FEE9AB"/>
<path d="M9.375 30C9.29385 31.0864 9.00532 32.1472 8.525 33.125C7.72104 34.8809 6.74989 36.5553 5.625 38.125C5.23125 37.575 4.8 36.925 4.375 36.225C4.99208 35.2288 5.54326 34.1933 6.025 33.125C6.50532 32.1472 6.79385 31.0864 6.875 30C6.87585 29.2249 6.63571 28.4686 6.18781 27.8359C5.73991 27.2033 5.10641 26.7255 4.375 26.4688C4.77556 26.3229 5.19871 26.2489 5.625 26.25C6.61956 26.25 7.57339 26.6451 8.27665 27.3484C8.97991 28.0516 9.375 29.0055 9.375 30Z" fill="#FFD422"/>
<path d="M5.625 31.25C6.31536 31.25 6.875 30.6904 6.875 30C6.875 29.3096 6.31536 28.75 5.625 28.75C4.93464 28.75 4.375 29.3096 4.375 30C4.375 30.6904 4.93464 31.25 5.625 31.25Z" fill="#FF3051"/>
<path d="M6.875 30.0007C6.87478 30.22 6.81685 30.4354 6.70705 30.6252C6.59725 30.8151 6.43943 30.9727 6.24945 31.0822C6.05946 31.1918 5.84399 31.2494 5.62468 31.2494C5.40537 31.2493 5.18993 31.1916 5 31.0819C5.18942 30.972 5.34666 30.8143 5.45596 30.6246C5.56526 30.4348 5.62279 30.2197 5.62279 30.0007C5.62279 29.7817 5.56526 29.5665 5.45596 29.3768C5.34666 29.187 5.18942 29.0293 5 28.9194C5.18993 28.8098 5.40537 28.752 5.62468 28.752C5.84399 28.7519 6.05946 28.8095 6.24945 28.9191C6.43943 29.0287 6.59725 29.1863 6.70705 29.3761C6.81685 29.566 6.87478 29.7814 6.875 30.0007Z" fill="#CD2A00"/>
<path d="M36.25 6.875C36.25 6.25693 36.0667 5.65275 35.7233 5.13884C35.38 4.62494 34.8919 4.2244 34.3209 3.98788C33.7499 3.75135 33.1215 3.68947 32.5153 3.81005C31.9092 3.93063 31.3523 4.22825 30.9153 4.66529C30.4783 5.10233 30.1806 5.65915 30.06 6.26534C29.9395 6.87153 30.0014 7.49987 30.2379 8.07089C30.4744 8.64191 30.8749 9.12996 31.3888 9.47334C31.9027 9.81672 32.5069 10 33.125 10C33.9535 9.99901 34.7478 9.66945 35.3336 9.08361C35.9194 8.49778 36.249 7.7035 36.25 6.875ZM31.25 6.875C31.25 6.50416 31.36 6.14165 31.566 5.83331C31.772 5.52496 32.0649 5.28464 32.4075 5.14273C32.7501 5.00081 33.1271 4.96368 33.4908 5.03603C33.8545 5.10838 34.1886 5.28695 34.4508 5.54918C34.713 5.8114 34.8916 6.14549 34.964 6.50921C35.0363 6.87292 34.9992 7.24992 34.8573 7.59253C34.7154 7.93514 34.475 8.22798 34.1667 8.43401C33.8584 8.64003 33.4958 8.75 33.125 8.75C32.6277 8.75 32.1508 8.55246 31.7992 8.20083C31.4475 7.8492 31.25 7.37228 31.25 6.875Z" fill="black"/>
<path d="M7.5 30C7.5 29.6292 7.39003 29.2666 7.18401 28.9583C6.97798 28.65 6.68514 28.4096 6.34253 28.2677C5.99992 28.1258 5.62292 28.0887 5.25921 28.161C4.89549 28.2334 4.5614 28.412 4.29918 28.6742C4.03695 28.9364 3.85838 29.2705 3.78603 29.6342C3.71368 29.9979 3.75081 30.3749 3.89273 30.7175C4.03464 31.0601 4.27496 31.353 4.58331 31.559C4.89165 31.765 5.25416 31.875 5.625 31.875C6.12228 31.875 6.5992 31.6775 6.95083 31.3258C7.30246 30.9742 7.5 30.4973 7.5 30ZM5 30C5 29.8764 5.03666 29.7556 5.10533 29.6528C5.17401 29.55 5.27162 29.4699 5.38582 29.4226C5.50003 29.3753 5.62569 29.3629 5.74693 29.387C5.86817 29.4111 5.97953 29.4707 6.06694 29.5581C6.15435 29.6455 6.21388 29.7568 6.23799 29.8781C6.26211 29.9993 6.24973 30.125 6.20243 30.2392C6.15512 30.3534 6.07501 30.451 5.97223 30.5197C5.86945 30.5883 5.74861 30.625 5.625 30.625C5.45924 30.625 5.30027 30.5592 5.18306 30.4419C5.06585 30.3247 5 30.1658 5 30Z" fill="black"/>
<path d="M32.5563 19.275C31.601 19.751 30.5485 19.9991 29.4812 20H23.75C22.5901 20.0013 21.4781 20.4627 20.6579 21.2829C19.8377 22.1031 19.3763 23.2151 19.375 24.375V30.625C19.3738 32.448 18.6491 34.196 17.3601 35.4851C16.071 36.7741 14.323 37.4988 12.5 37.5H6.80625C7.597 36.2997 8.30489 35.0467 8.925 33.75H11.25C12.4099 33.7487 13.5219 33.2873 14.3421 32.4671C15.1623 31.6469 15.6237 30.5349 15.625 29.375V23.125C15.6262 21.302 16.3509 19.554 17.6399 18.2649C18.929 16.9759 20.677 16.2512 22.5 16.25H28.2312C29.3194 16.2455 30.3953 16.0202 31.3937 15.5875C32.0687 16.5438 32.575 17.1875 32.6375 17.2625C32.6954 17.3364 32.7694 17.3962 32.8539 17.4373C32.9384 17.4784 33.0311 17.4998 33.125 17.4998C33.2189 17.4998 33.3116 17.4784 33.3961 17.4373C33.4806 17.3962 33.5546 17.3364 33.6125 17.2625C34.6553 15.9351 35.6094 14.5404 36.4687 13.0875L39.0313 11.8062L38.4687 10.6938L37.5 11.175C38.2186 9.84722 38.6448 8.38108 38.75 6.875C38.75 5.38316 38.1574 3.95242 37.1025 2.89752C36.0476 1.84263 34.6168 1.25 33.125 1.25C31.6332 1.25 30.2024 1.84263 29.1475 2.89752C28.0926 3.95242 27.5 5.38316 27.5 6.875C27.5 9.2 29.2312 12.325 30.6875 14.5375C29.904 14.8409 29.0714 14.9977 28.2312 15H22.5C20.3457 15.002 18.2803 15.8586 16.757 17.382C15.2336 18.9053 14.377 20.9707 14.375 23.125V29.375C14.375 30.2038 14.0458 30.9987 13.4597 31.5847C12.8737 32.1708 12.0788 32.5 11.25 32.5H9.45625C9.77701 31.7032 9.96085 30.858 10 30C10 28.8397 9.53906 27.7269 8.71859 26.9064C7.89812 26.0859 6.78532 25.625 5.625 25.625C4.46468 25.625 3.35188 26.0859 2.53141 26.9064C1.71094 27.7269 1.25 28.8397 1.25 30C1.25 32.9812 4.71875 37.9313 5.11875 38.4875C5.17626 38.5683 5.25216 38.6342 5.34019 38.6799C5.42822 38.7255 5.52584 38.7495 5.625 38.75H12.5C14.6543 38.748 16.7197 37.8914 18.243 36.368C19.7664 34.8447 20.623 32.7793 20.625 30.625V24.375C20.625 23.5462 20.9542 22.7513 21.5403 22.1653C22.1263 21.5792 22.9212 21.25 23.75 21.25H29.4812C30.7416 21.2495 31.9847 20.9564 33.1125 20.3938L39.0313 17.4312L38.4687 16.3188L32.5563 19.275ZM28.75 6.875C28.75 5.71468 29.2109 4.60188 30.0314 3.78141C30.8519 2.96094 31.9647 2.5 33.125 2.5C34.2853 2.5 35.3981 2.96094 36.2186 3.78141C37.0391 4.60188 37.5 5.71468 37.5 6.875C37.5 9.69375 34.3563 14.1875 33.125 15.8438C31.8937 14.1875 28.75 9.69375 28.75 6.875ZM2.5 30C2.5 29.1712 2.82924 28.3763 3.41529 27.7903C4.00134 27.2042 4.7962 26.875 5.625 26.875C6.4538 26.875 7.24866 27.2042 7.83471 27.7903C8.42076 28.3763 8.75 29.1712 8.75 30C8.75 31.6563 7.2125 34.65 5.625 37.025C4.0375 34.65 2.5 31.6563 2.5 30Z" fill="black"/>
<path d="M23.125 18.75V17.5C21.468 17.5018 19.8793 18.1609 18.7076 19.3326C17.5359 20.5043 16.8768 22.093 16.875 23.75H18.125C18.1265 22.4244 18.6538 21.1535 19.5911 20.2161C20.5285 19.2788 21.7994 18.7515 23.125 18.75Z" fill="black"/>
<path d="M11.875 35V36.25C13.532 36.2482 15.1207 35.5891 16.2924 34.4174C17.4641 33.2457 18.1232 31.657 18.125 30H16.875C16.8735 31.3256 16.3462 32.5965 15.4089 33.5339C14.4715 34.4712 13.2006 34.9985 11.875 35Z" fill="black"/>
<path d="M9.375 35H10.625V36.25H9.375V35Z" fill="black"/>
<path d="M16.875 25H18.125V26.25H16.875V25Z" fill="black"/>
<path d="M16.875 27.5H18.125V28.75H16.875V27.5Z" fill="black"/>
<path d="M24.375 17.5H25.625V18.75H24.375V17.5Z" fill="black"/>
<path d="M26.875 17.5H28.125V18.75H26.875V17.5Z" fill="black"/>
<path d="M29.375 17.5H30.625V18.75H29.375V17.5Z" fill="black"/>
</svg>
