<svg width="202" height="202" viewBox="0 0 202 202" fill="none" xmlns="http://www.w3.org/2000/svg">
<path d="M100.877 194.577C49.5214 194.577 7.88989 170.542 7.88989 140.892C7.88989 111.243 49.5214 87.207 100.877 87.207C152.232 87.207 193.863 111.243 193.863 140.892C193.863 170.542 152.232 194.577 100.877 194.577Z" fill="#F0F0F0"/>
<path d="M71.1228 155.045C71.0947 154.205 71.3851 153.257 71.8654 152.434C71.9638 152.265 72.0706 152.103 72.1843 151.946C72.1899 151.939 72.1951 151.931 72.2008 151.924C72.3112 151.773 72.4273 151.63 72.5494 151.496C72.5602 151.484 72.571 151.473 72.5819 151.461C72.7028 151.331 72.8277 151.208 72.9582 151.097C72.9698 151.087 72.9815 151.078 72.9931 151.069C73.1269 150.957 73.2646 150.853 73.406 150.765C73.4867 150.715 73.567 150.67 73.6461 150.63C73.6831 150.612 73.7188 150.598 73.755 150.582C73.7967 150.563 73.8389 150.542 73.8803 150.526C73.9409 150.504 73.9996 150.486 74.0586 150.469C74.0747 150.465 74.0911 150.458 74.1068 150.454C74.1767 150.436 74.2453 150.423 74.3128 150.414C74.3168 150.414 74.3212 150.412 74.3253 150.412C74.6104 150.375 74.8698 150.416 75.0923 150.529L75.0931 150.529C75.0947 150.53 75.0963 150.53 75.0979 150.531L75.0988 150.53C77.2225 151.596 89.465 159.384 95.0983 162.895L97.8903 164.59C97.9718 164.634 98.0381 164.704 98.0963 164.785C98.1035 164.795 98.1104 164.805 98.1172 164.815C98.1409 164.852 98.1626 164.891 98.1811 164.935C98.1927 164.961 98.2015 164.99 98.2108 165.019C98.2224 165.055 98.2349 165.089 98.2429 165.128C98.2481 165.151 98.2505 165.177 98.2546 165.202C98.3831 165.271 98.5397 165.356 98.716 165.454L99.1284 165.677C100.01 164.825 101.075 164.032 102.313 163.317C106.174 161.088 111.291 159.86 116.721 159.86C122.151 159.86 127.268 161.088 131.129 163.317C135.129 165.627 137.332 168.746 137.332 172.1C137.332 175.454 135.129 178.572 131.129 180.882C127.268 183.111 122.151 184.339 116.721 184.339C111.291 184.339 106.174 183.111 102.313 180.882C98.3124 178.572 96.1096 175.453 96.1096 172.1C96.1096 170.588 96.5614 169.124 97.4196 167.761L97.0513 167.561C96.7481 167.729 96.4694 167.751 96.2606 167.639L96.2433 167.629C94.3313 166.576 75.6963 158.635 71.8863 156.592L71.8851 156.592C71.8843 156.591 71.8835 156.591 71.8827 156.591C71.4373 156.35 71.1486 155.817 71.1228 155.045ZM104.073 177.831C107.408 179.756 111.9 180.817 116.72 180.817C121.542 180.817 126.033 179.756 129.367 177.831C132.232 176.177 133.81 174.142 133.81 172.1C133.81 170.057 132.232 168.021 129.367 166.368C126.033 164.442 121.542 163.382 116.72 163.382C111.899 163.382 107.408 164.442 104.073 166.368C101.209 168.021 99.6313 170.057 99.6313 172.1C99.6317 174.142 101.209 176.177 104.073 177.831Z" fill="#E0E0E0"/>
<path d="M68.2748 107.87L87.1776 96.9335C88.1379 96.3789 89.6953 96.3789 90.6555 96.9335L186.674 152.369C187.635 152.924 187.635 153.823 186.674 154.377L167.772 165.314C166.812 165.868 165.255 165.868 164.294 165.314L128.311 144.539L122.78 147.754C119.852 149.445 115.103 149.446 112.174 147.755L95.6848 138.305C92.7555 136.615 92.7551 133.874 95.6841 132.183L101.211 128.969L68.2748 109.877C67.3146 109.323 67.3146 108.424 68.2748 107.87Z" fill="#E0E0E0"/>
<path d="M36.5668 159.636C26.3305 159.636 18.0323 154.845 18.0323 148.935C18.0323 143.025 26.3305 138.234 36.5668 138.234C46.8031 138.234 55.1013 143.025 55.1013 148.935C55.1013 154.845 46.8031 159.636 36.5668 159.636Z" fill="#E0E0E0"/>
<path d="M26.0363 136.851C26.0335 134.343 26.5347 129.718 24.411 125.381C22.8725 122.239 20.1195 119.186 17.5588 119.49C15.1741 119.772 14.958 123.438 17.2383 125.948C19.5187 128.458 22.4215 131.93 23.054 137.479L24.6962 141.597L26.0363 136.851Z" fill="#23B54B"/>
<g opacity="0.2">
<path d="M26.0363 136.851C26.0335 134.343 26.5347 129.718 24.411 125.381C22.8725 122.239 20.1195 119.186 17.5588 119.49C15.1741 119.772 14.958 123.438 17.2383 125.948C19.5187 128.458 22.4215 131.93 23.054 137.479L24.6962 141.597L26.0363 136.851Z" fill="black"/>
</g>
<path d="M25.1853 138.614C25.1006 138.599 25.0376 138.523 25.0412 138.435C25.3299 131.301 23.0082 125.379 18.3271 121.309C18.2544 121.246 18.2468 121.136 18.3098 121.064C18.3733 120.991 18.4833 120.984 18.5556 121.046C23.3199 125.188 25.6829 131.206 25.3898 138.449C25.3857 138.545 25.3046 138.62 25.2086 138.616C25.2002 138.616 25.193 138.615 25.1853 138.614Z" fill="white"/>
<path d="M26.4889 145.821C26.4889 145.821 24.7616 146.985 22.0773 147.049C19.3925 147.113 18.4009 145.7 18.4009 145.7C18.4009 145.7 19.7664 143.373 21.352 142.882C21.352 142.882 18.752 143.059 16.5387 144.142C16.5387 144.142 14.9303 143.951 14.6198 141.415C14.6198 141.415 15.7684 140.068 19.0664 139.7C19.0664 139.7 17.1905 138.951 14.2973 139.29C14.0765 139.345 13.6066 136.057 13.5319 134.56C13.4572 133.062 14.0423 133.156 15.2226 133.005C16.4026 132.854 20.3078 133.182 20.9371 133.904C21.5664 134.626 21.6415 136.817 21.6415 136.817C21.6415 136.817 22.4861 135.696 22.4676 134.592C22.4676 134.592 23.6636 134.358 24.8837 134.975C26.1038 135.593 26.4961 136.087 26.5564 137.025C26.6166 137.963 26.6961 139.364 26.3198 140.453C26.3198 140.453 27.4319 138.66 27.3748 137.1C27.3748 137.1 27.9857 138.11 28.5098 139.475C29.0335 140.841 28.4114 144.146 26.4889 145.821Z" fill="#23B54B"/>
<path d="M26.4442 145.989C26.3892 145.974 26.3426 145.933 26.3237 145.875C24.7956 141.189 17.6053 135.02 14.8575 134.093C14.7663 134.062 14.7173 133.963 14.7482 133.872C14.7792 133.781 14.8711 133.728 14.9691 133.763C17.7699 134.707 25.0988 140.994 26.6555 145.767C26.6852 145.858 26.6354 145.957 26.5438 145.986C26.5101 145.997 26.4759 145.997 26.4442 145.989Z" fill="white"/>
<path d="M112.18 146.159L97.9732 137.945C96.509 137.1 95.7768 135.992 95.7764 134.884C95.7764 133.775 95.7704 132.907 95.7704 132.907L109.139 125.32C109.919 124.869 110.553 123.772 110.553 122.87V105.355L135.366 119.694L135.367 137.209C135.367 138.111 134.734 139.207 133.953 139.658L122.786 146.159C119.857 147.85 115.109 147.85 112.18 146.159Z" fill="#37474F"/>
<path d="M129.407 140.31V142.277L133.955 139.656C134.73 139.207 135.367 138.113 135.367 137.207V119.694L130.64 116.967C130.542 118.167 130.436 119.408 130.338 120.617L133.653 122.535V136.22C133.653 137.126 133.024 138.22 132.24 138.669L129.407 140.31Z" fill="#263238"/>
<path d="M133.648 136.223C133.648 137.125 133.015 138.221 132.234 138.672L122.781 144.183C119.852 145.874 115.103 145.875 112.174 144.184L97.9601 135.971C95.0308 134.28 95.0304 131.539 97.9593 129.848L107.42 124.332C108.201 123.881 108.834 122.785 108.834 121.883V108.197L133.648 122.536L133.648 136.223Z" fill="#455A64"/>
<path opacity="0.15" d="M104.539 125.999V125.997L107.42 124.334C108.201 123.883 108.834 122.787 108.834 121.885V108.199L133.648 122.538V136.224C133.648 137.126 133.015 138.222 132.234 138.673L129.403 140.308L104.539 125.999Z" fill="black"/>
<path d="M95.7708 132.908C95.7708 132.908 95.7708 133.774 95.7708 134.884C95.7708 135.994 96.5058 137.096 97.9672 137.946L112.176 146.155C113.58 146.972 115.401 147.38 117.238 147.413V145.445C115.401 145.42 113.58 144.996 112.176 144.188L97.9672 135.97C96.5058 135.129 95.7708 134.019 95.7708 132.908Z" fill="#37474F"/>
<path d="M173.494 155.119C172.578 155.648 171.044 155.62 170.068 155.056C157.868 148.012 86.3022 106.695 74.1047 99.6533C73.1283 99.0895 72.3376 97.7192 72.3376 96.5919V12.5977C72.3376 11.4704 73.0802 10.1278 73.9958 9.59933C74.9115 9.07082 76.4456 9.09893 77.4215 9.66278L173.384 65.0647C174.36 65.6286 175.152 66.9992 175.152 68.1265L175.152 152.12C175.152 153.248 174.41 154.59 173.494 155.119Z" fill="#455A64"/>
<path d="M170.072 155.054L74.109 99.652C73.1327 99.0882 72.3411 97.7175 72.3411 96.5902V12.596C72.3411 11.4687 73.1323 11.0117 74.109 11.5755L170.071 66.9779C171.047 67.5413 171.839 68.9124 171.839 70.0397L171.84 154.034C171.84 155.161 171.048 155.618 170.072 155.054Z" fill="#37474F"/>
<path d="M168.516 142.937L168.515 71.1388C168.515 70.4625 168.04 69.6401 167.454 69.3019L76.7125 16.9124C76.1265 16.5742 75.6518 16.8485 75.6518 17.5248L75.649 89.3241C75.649 90.0004 76.1237 90.8229 76.7097 91.161L167.455 143.549C168.041 143.887 168.516 143.613 168.516 142.937Z" fill="#23B54B"/>
<path opacity="0.7" d="M168.516 142.937L168.515 71.1388C168.515 70.4625 168.04 69.6401 167.454 69.3019L76.7125 16.9124C76.1265 16.5742 75.6518 16.8485 75.6518 17.5248L75.649 89.3241C75.649 90.0004 76.1237 90.8229 76.7097 91.161L167.455 143.549C168.041 143.887 168.516 143.613 168.516 142.937Z" fill="white"/>
<path d="M122.268 123.954C122.461 123.954 122.641 123.908 122.8 123.816C123.178 123.598 123.387 123.155 123.387 122.568C123.387 121.429 122.614 120.091 121.628 119.522C121.119 119.229 120.631 119.188 120.254 119.405C119.876 119.623 119.668 120.067 119.668 120.653C119.667 121.792 120.44 123.13 121.427 123.7C121.719 123.868 122.006 123.954 122.268 123.954ZM120.787 119.669C120.978 119.669 121.196 119.736 121.426 119.869C122.286 120.365 122.985 121.576 122.985 122.568C122.985 123.004 122.848 123.324 122.599 123.467C122.351 123.61 122.005 123.569 121.627 123.351C120.767 122.855 120.069 121.644 120.069 120.652C120.069 120.216 120.206 119.896 120.454 119.752C120.552 119.697 120.664 119.669 120.787 119.669Z" fill="#23B54B"/>
<path d="M59.8977 30.4238L153.355 84.3174L153.355 153.197C153.355 154.114 152.363 154.691 151.569 154.232L149.903 153.27L61.6403 102.38C60.6804 101.826 59.8977 100.477 59.8977 99.3629V30.4238Z" fill="#F0F0F0"/>
<path d="M60.2993 31.119V99.3633C60.2993 100.328 61.0053 101.55 61.8407 102.032L150.104 152.923L151.77 153.885C151.892 153.956 152.024 153.992 152.16 153.992C152.363 153.992 152.564 153.91 152.713 153.767C152.868 153.618 152.954 153.416 152.953 153.197L152.954 84.5491L60.2993 31.119ZM59.8977 30.4238L153.355 84.3174L153.355 153.197C153.355 153.893 152.783 154.393 152.16 154.393C151.963 154.393 151.76 154.343 151.569 154.233L149.903 153.271L61.6403 102.38C60.6804 101.826 59.8977 100.478 59.8977 99.3633V30.4238Z" fill="#E0E0E0"/>
<path opacity="0.8" d="M62.1104 29.1445L155.574 83.0349L153.352 84.318L59.894 30.4244L62.1104 29.1445Z" fill="#455A64"/>
<path d="M152.727 154.25C152.727 154.25 153.352 153.944 153.352 153.198L153.353 86.3022C153.353 85.7536 153.353 84.3183 153.353 84.3183L155.575 83.0352L155.578 151.534C155.578 151.619 155.573 151.704 155.561 151.788C155.482 152.353 155.149 152.855 154.652 153.138L152.817 154.199L152.727 154.25Z" fill="#EBEBEB"/>
<path d="M155.578 83.0649V78.4176C155.578 77.863 155.19 77.1867 154.711 76.9071L62.9812 24.0277C62.5024 23.7477 61.7249 23.7457 61.2446 24.0232L60.7671 24.2991C60.2868 24.5762 59.8976 25.2505 59.8976 25.8051V30.4601L153.355 84.3472L155.578 83.0649Z" fill="#23B54B"/>
<path opacity="0.3" d="M155.578 83.0649V78.4176C155.578 77.863 155.19 77.1867 154.711 76.9071L62.9812 24.0277C62.5024 23.7477 61.7249 23.7457 61.2446 24.0232L60.7671 24.2991C60.2868 24.5762 59.8976 25.2505 59.8976 25.8051V30.4601L153.355 84.3472L155.578 83.0649Z" fill="black"/>
<path d="M153.355 79.7015C153.355 79.1469 152.968 78.4706 152.489 78.191L60.7644 25.3084C60.2857 25.0284 59.8977 25.2513 59.8977 25.8059V30.4609L153.355 84.348V79.7015Z" fill="#23B54B"/>
<path opacity="0.4" d="M153.355 79.7015C153.355 79.1469 152.968 78.4706 152.489 78.191L60.7644 25.3084C60.2857 25.0284 59.8977 25.2513 59.8977 25.8059V30.4609L153.355 84.348V79.7015Z" fill="black"/>
<path d="M153.104 78.8417C153.261 79.1147 153.357 79.424 153.357 79.7011V84.3476L155.578 83.0665V78.416C155.578 78.1389 155.482 77.8336 155.325 77.5605L153.104 78.8417Z" fill="#23B54B"/>
<path opacity="0.5" d="M153.104 78.8417C153.261 79.1147 153.357 79.424 153.357 79.7011V84.3476L155.578 83.0665V78.416C155.578 78.1389 155.482 77.8336 155.325 77.5605L153.104 78.8417Z" fill="black"/>
<path d="M63.9727 30.2487C63.9727 30.7688 63.6076 30.9796 63.157 30.7198C62.7064 30.4595 62.3413 29.827 62.3413 29.3069C62.3413 28.7869 62.7064 28.576 63.157 28.8359C63.6076 29.0961 63.9727 29.7286 63.9727 30.2487Z" fill="#FAFAFA"/>
<path d="M67.2344 32.1334C67.2344 32.6535 66.8693 32.8644 66.4187 32.6045C65.9681 32.3443 65.603 31.7118 65.603 31.1917C65.603 30.6716 65.9681 30.4608 66.4187 30.7206C66.8693 30.9805 67.2344 31.613 67.2344 32.1334Z" fill="#FAFAFA"/>
<path d="M70.5 34.0163C70.5 34.5363 70.1349 34.7472 69.6843 34.4873C69.2337 34.2275 68.8687 33.5946 68.8687 33.0745C68.8687 32.5544 69.2337 32.3436 69.6843 32.6034C70.1349 32.8637 70.5 33.4962 70.5 34.0163Z" fill="#FAFAFA"/>
<path d="M153.352 84.3485L153.351 153.198C153.352 154.114 152.359 154.692 151.565 154.233L149.899 153.271L129.476 141.495V70.5801L153.352 84.3469V84.3485Z" fill="#FAFAFA"/>
<path d="M127.848 71.7435V138.614L61.8565 100.515L61.8569 33.6445L127.848 71.7435Z" fill="#FAFAFA"/>
<path d="M134.941 78.6595L150.173 87.4606C150.455 87.6232 150.683 88.0192 150.683 88.3445L150.684 89.93C150.684 90.2553 150.455 90.3875 150.173 90.2248L134.942 81.4237C134.66 81.2611 134.431 80.8651 134.431 80.5398L134.431 78.9543C134.431 78.6286 134.66 78.4969 134.941 78.6595Z" fill="#23B54B"/>
<path opacity="0.8" d="M134.941 78.6595L150.173 87.4606C150.455 87.6232 150.683 88.0192 150.683 88.3445L150.684 89.93C150.684 90.2553 150.455 90.3875 150.173 90.2248L134.942 81.4237C134.66 81.2611 134.431 80.8651 134.431 80.5398L134.431 78.9543C134.431 78.6286 134.66 78.4969 134.941 78.6595Z" fill="#FAFAFA"/>
<path d="M131.547 79.2894L131.996 78.8572C131.908 78.6303 131.854 78.3818 131.854 78.14C131.854 77.7733 131.976 77.4922 132.19 77.3693C132.352 77.2757 132.547 77.2838 132.736 77.3934C133.132 77.6219 133.441 78.2625 133.441 78.852C133.441 79.2187 133.319 79.4994 133.106 79.6227C133.031 79.6661 132.949 79.6874 132.865 79.6874C132.765 79.6874 132.661 79.6576 132.559 79.5986C132.41 79.5127 132.273 79.3681 132.161 79.1898L131.792 79.544C131.758 79.5773 131.714 79.5934 131.67 79.5934C131.623 79.5934 131.577 79.5753 131.542 79.5392C131.475 79.4689 131.477 79.3568 131.547 79.2894ZM132.736 79.2922C132.814 79.3372 132.88 79.3452 132.929 79.3163C133.002 79.2741 133.088 79.1271 133.088 78.8516C133.088 78.3922 132.845 77.8645 132.559 77.699C132.512 77.6717 132.469 77.6581 132.431 77.6581C132.407 77.6581 132.385 77.6637 132.366 77.6749C132.293 77.7171 132.207 77.8641 132.207 78.1396C132.207 78.599 132.449 79.1271 132.736 79.2922Z" fill="#455A64"/>
<path d="M150.301 94.878L150.643 95.0752C150.663 95.0868 150.68 95.0744 150.68 95.0475V94.1226C150.68 94.0957 150.663 94.0644 150.643 94.0531L150.301 93.8559C150.281 93.8443 150.265 93.8567 150.265 93.8836V94.8085C150.265 94.8354 150.281 94.8664 150.301 94.878Z" fill="#455A64"/>
<path d="M149.79 94.5831L150.131 94.7803C150.152 94.7919 150.168 94.7795 150.168 94.7526V93.8277C150.168 93.8008 150.152 93.7698 150.131 93.7582L149.79 93.561C149.77 93.5494 149.753 93.5618 149.753 93.5887V94.5136C149.753 94.5405 149.77 94.5714 149.79 94.5831Z" fill="#455A64"/>
<path d="M149.282 94.2878L149.624 94.4849C149.644 94.4966 149.66 94.4841 149.66 94.4576V93.5328C149.66 93.5058 149.644 93.4749 149.624 93.4633L149.282 93.2661C149.262 93.2544 149.245 93.2669 149.245 93.2938V94.2187C149.245 94.2448 149.262 94.2761 149.282 94.2878Z" fill="#455A64"/>
<path d="M150.301 96.0714L150.643 96.2685C150.663 96.2802 150.68 96.2677 150.68 96.2408V95.3159C150.68 95.289 150.663 95.2581 150.643 95.2465L150.301 95.0493C150.281 95.0376 150.265 95.0501 150.265 95.077V96.0019C150.265 96.0284 150.281 96.0597 150.301 96.0714Z" fill="#455A64"/>
<path d="M149.79 95.7764L150.131 95.9736C150.152 95.9853 150.168 95.9728 150.168 95.9459V95.021C150.168 94.9941 150.152 94.9632 150.131 94.9516L149.79 94.7544C149.77 94.7427 149.753 94.7552 149.753 94.7821V95.707C149.753 95.7335 149.77 95.7648 149.79 95.7764Z" fill="#455A64"/>
<path d="M149.282 95.4796L149.624 95.6767C149.644 95.6884 149.66 95.6759 149.66 95.649V94.7242C149.66 94.6972 149.644 94.6663 149.624 94.6547L149.282 94.4575C149.262 94.4458 149.245 94.4583 149.245 94.4852V95.4101C149.245 95.4366 149.262 95.4679 149.282 95.4796Z" fill="#455A64"/>
<path d="M150.247 99.2225L150.668 98.9662C150.684 98.9566 150.684 98.9193 150.668 98.8907L150.247 98.149C150.227 98.1132 150.197 98.1185 150.197 98.1578V99.1558C150.197 99.1956 150.227 99.2349 150.247 99.2225Z" fill="#455A64"/>
<path d="M150.426 98.6556L149.872 98.3359V98.599L150.426 98.9187C150.473 98.946 150.512 98.9086 150.512 98.8363C150.512 98.7644 150.473 98.6829 150.426 98.6556Z" fill="#455A64"/>
<path d="M149.766 98.2772L149.576 98.168V98.431L149.766 98.5402V98.2772Z" fill="#455A64"/>
<path d="M149.075 98.005V98.9732C149.075 99.0471 149.114 99.127 149.161 99.1543C149.208 99.1813 149.246 99.1459 149.246 99.072V98.2355L149.48 98.3708V98.1078L149.161 97.9234C149.114 97.8953 149.075 97.9327 149.075 98.005Z" fill="#455A64"/>
<path d="M150.084 101.393C150.476 101.663 150.742 102.408 150.667 102.959C150.598 103.463 150.299 103.444 150.266 103.678C150.263 103.703 150.246 103.712 150.228 103.702L149.854 103.489C149.835 103.478 149.819 103.45 149.815 103.421C149.776 103.112 149.394 102.739 149.391 101.989C149.389 101.413 149.704 101.132 150.084 101.393Z" fill="#455A64"/>
<path d="M149.863 104.092L150.225 104.301C150.249 104.315 150.27 104.3 150.27 104.268V103.935C150.27 103.902 150.249 103.863 150.225 103.849L149.863 103.64C149.838 103.626 149.818 103.641 149.818 103.674V104.007C149.819 104.04 149.839 104.078 149.863 104.092Z" fill="#455A64"/>
<path d="M150.004 93.5817C150.337 93.8556 150.605 94.4243 150.659 94.9676C150.691 95.2841 150.651 95.5423 150.564 95.7255L150.685 96.3572C150.695 96.4094 150.667 96.4367 150.637 96.4038L150.273 96.007C150.121 96.0552 149.938 96.0122 149.743 95.8516C149.41 95.5761 149.14 95.0074 149.087 94.4632C149.002 93.5793 149.463 93.1359 150.004 93.5817ZM149.873 95.652C150.208 95.8455 150.481 95.5833 150.481 95.0672C150.481 94.5512 150.208 93.9745 149.873 93.7809C149.538 93.5873 149.266 93.85 149.266 94.3656C149.266 94.8817 149.538 95.4588 149.873 95.652Z" fill="#455A64"/>
<path d="M150.004 105.769C150.337 106.043 150.605 106.612 150.659 107.155C150.691 107.472 150.651 107.73 150.564 107.913L150.685 108.545C150.695 108.597 150.667 108.624 150.637 108.591L150.273 108.194C150.121 108.243 149.938 108.2 149.743 108.039C149.41 107.764 149.14 107.195 149.087 106.651C149.002 105.767 149.463 105.323 150.004 105.769ZM149.873 107.839C150.208 108.033 150.481 107.771 150.481 107.255C150.481 106.739 150.208 106.162 149.873 105.968C149.538 105.775 149.266 106.037 149.266 106.553C149.266 107.069 149.538 107.646 149.873 107.839Z" fill="#455A64"/>
<path d="M149.492 110.235C149.492 110.507 149.635 110.812 149.812 110.914C149.989 111.016 150.133 110.878 150.133 110.605C150.133 110.332 149.989 110.028 149.812 109.926C149.635 109.824 149.492 109.962 149.492 110.235Z" fill="#455A64"/>
<path d="M148.94 110.332C148.94 110.513 149.035 110.716 149.154 110.784C149.272 110.852 149.367 110.76 149.367 110.578C149.367 110.397 149.272 110.194 149.154 110.126C149.035 110.058 148.94 110.15 148.94 110.332Z" fill="#455A64"/>
<path d="M149.434 112.18L150.191 112.618V111.66C150.191 111.458 150.069 111.223 149.917 111.136L149.708 111.015C149.557 110.928 149.434 111.021 149.434 111.223L149.434 112.18Z" fill="#455A64"/>
<path d="M149.12 110.895L149.328 111.015V112.12L148.935 111.893V111.035C148.935 110.899 149.017 110.836 149.12 110.895Z" fill="#455A64"/>
<path d="M150.68 111.338C150.68 111.519 150.584 111.611 150.466 111.543C150.348 111.475 150.252 111.273 150.252 111.091C150.252 110.91 150.348 110.818 150.466 110.886C150.584 110.954 150.68 111.156 150.68 111.338Z" fill="#455A64"/>
<path d="M150.503 111.692L150.294 111.572V112.677L150.688 112.904V112.046C150.688 111.909 150.605 111.751 150.503 111.692Z" fill="#455A64"/>
<path d="M146.991 92.7117L138.072 87.5628C137.832 87.4242 137.638 87.5226 137.638 87.7829C137.638 88.0431 137.833 88.366 138.072 88.5049L146.991 93.6539C147.231 93.7924 147.426 93.694 147.426 93.4338C147.425 93.1735 147.231 92.8503 146.991 92.7117Z" fill="#E0E0E0"/>
<path d="M146.991 96.909L138.072 91.76C137.832 91.6215 137.638 91.7199 137.638 91.9801C137.638 92.2404 137.833 92.5633 138.072 92.7022L146.991 97.8511C147.231 97.9897 147.426 97.8913 147.426 97.631C147.425 97.3708 147.231 97.0475 146.991 96.909Z" fill="#E0E0E0"/>
<path d="M146.991 101.108L138.072 95.9593C137.832 95.8207 137.638 95.9191 137.638 96.1793C137.638 96.4396 137.833 96.7629 138.072 96.9014L146.991 102.05C147.231 102.189 147.426 102.091 147.426 101.83C147.425 101.57 147.231 101.247 146.991 101.108Z" fill="#E0E0E0"/>
<path d="M146.991 105.305L138.072 100.157C137.832 100.018 137.638 100.116 137.638 100.377C137.638 100.637 137.833 100.96 138.072 101.099L146.991 106.248C147.231 106.386 147.426 106.288 147.426 106.028C147.425 105.767 147.231 105.444 146.991 105.305Z" fill="#E0E0E0"/>
<path d="M146.991 109.503L138.072 104.354C137.832 104.215 137.638 104.314 137.638 104.574C137.638 104.834 137.833 105.157 138.072 105.296L146.991 110.445C147.231 110.583 147.426 110.485 147.426 110.225C147.426 109.965 147.231 109.641 146.991 109.503Z" fill="#E0E0E0"/>
<path d="M145.358 112.93L136.44 107.782C136.199 107.643 136.005 107.741 136.005 108.002C136.005 108.262 136.199 108.585 136.44 108.724L145.358 113.873C145.598 114.011 145.793 113.913 145.793 113.653C145.793 113.393 145.598 113.069 145.358 112.93Z" fill="#455A64"/>
<path d="M145.358 115.766L136.44 110.617C136.199 110.479 136.005 110.577 136.005 110.838C136.005 111.098 136.199 111.421 136.44 111.56L145.358 116.709C145.598 116.847 145.793 116.749 145.793 116.488C145.793 116.228 145.598 115.905 145.358 115.766Z" fill="#E0E0E0"/>
<path d="M145.358 118.602L136.44 113.453C136.199 113.315 136.005 113.413 136.005 113.673C136.005 113.934 136.199 114.257 136.44 114.396L145.358 119.544C145.598 119.683 145.793 119.585 145.793 119.324C145.793 119.064 145.598 118.741 145.358 118.602Z" fill="#E0E0E0"/>
<path d="M143.624 120.405L134.705 115.256C134.465 115.118 134.271 115.216 134.271 115.476C134.271 115.736 134.465 116.06 134.705 116.198L143.624 121.347C143.864 121.486 144.059 121.387 144.059 121.127C144.059 120.867 143.864 120.544 143.624 120.405Z" fill="#E0E0E0"/>
<path d="M145.711 122.844L144.987 121.566C144.959 121.517 144.959 121.453 144.987 121.436L145.711 120.994C145.746 120.973 145.797 121.04 145.797 121.109V122.828C145.797 122.896 145.746 122.905 145.711 122.844Z" fill="#455A64"/>
<path d="M143.624 123.231L134.705 118.082C134.465 117.944 134.271 118.042 134.271 118.302C134.271 118.563 134.465 118.886 134.705 119.024L143.624 124.173C143.864 124.312 144.059 124.213 144.059 123.953C144.059 123.693 143.864 123.37 143.624 123.231Z" fill="#E0E0E0"/>
<path d="M145.711 125.67L144.987 124.392C144.959 124.343 144.959 124.279 144.987 124.262L145.711 123.82C145.746 123.799 145.797 123.867 145.797 123.935V125.654C145.797 125.722 145.746 125.731 145.711 125.67Z" fill="#455A64"/>
<path d="M143.624 126.057L134.705 120.908C134.465 120.77 134.271 120.868 134.271 121.129C134.271 121.389 134.465 121.712 134.705 121.851L143.624 127C143.864 127.138 144.059 127.04 144.059 126.779C144.059 126.519 143.864 126.196 143.624 126.057Z" fill="#E0E0E0"/>
<path d="M145.711 128.496L144.987 127.218C144.959 127.169 144.959 127.105 144.987 127.088L145.711 126.647C145.746 126.625 145.797 126.693 145.797 126.761V128.48C145.797 128.549 145.746 128.558 145.711 128.496Z" fill="#455A64"/>
<path d="M143.624 128.884L134.705 123.735C134.465 123.596 134.271 123.695 134.271 123.955C134.271 124.215 134.465 124.538 134.705 124.677L143.624 129.826C143.864 129.964 144.059 129.866 144.059 129.606C144.059 129.345 143.864 129.022 143.624 128.884Z" fill="#E0E0E0"/>
<path d="M145.711 131.322L144.987 130.044C144.959 129.995 144.959 129.931 144.987 129.914L145.711 129.473C145.746 129.451 145.797 129.519 145.797 129.587V131.306C145.797 131.374 145.746 131.383 145.711 131.322Z" fill="#455A64"/>
<path d="M143.624 131.708L134.705 126.559C134.465 126.42 134.271 126.519 134.271 126.779C134.271 127.039 134.465 127.362 134.705 127.501L143.624 132.65C143.864 132.788 144.059 132.69 144.059 132.43C144.059 132.17 143.864 131.846 143.624 131.708Z" fill="#E0E0E0"/>
<path d="M145.711 134.148L144.987 132.87C144.959 132.821 144.959 132.757 144.987 132.74L145.711 132.299C145.746 132.278 145.797 132.345 145.797 132.413V134.133C145.797 134.2 145.746 134.21 145.711 134.148Z" fill="#455A64"/>
<path d="M143.624 134.534L134.705 129.385C134.465 129.246 134.271 129.345 134.271 129.605C134.271 129.865 134.465 130.189 134.705 130.327L143.624 135.476C143.864 135.615 144.059 135.516 144.059 135.256C144.059 134.996 143.864 134.673 143.624 134.534Z" fill="#E0E0E0"/>
<path d="M145.711 136.974L144.987 135.696C144.959 135.648 144.959 135.583 144.987 135.566L145.711 135.125C145.746 135.104 145.797 135.171 145.797 135.24V136.959C145.797 137.027 145.746 137.036 145.711 136.974Z" fill="#455A64"/>
<path d="M143.624 137.36L134.705 132.211C134.465 132.073 134.271 132.171 134.271 132.431C134.271 132.692 134.465 133.015 134.705 133.153L143.624 138.302C143.864 138.441 144.059 138.342 144.059 138.082C144.059 137.822 143.864 137.499 143.624 137.36Z" fill="#E0E0E0"/>
<path d="M145.711 139.8L144.987 138.522C144.959 138.474 144.959 138.409 144.987 138.393L145.711 137.951C145.746 137.93 145.797 137.997 145.797 138.066V139.785C145.797 139.853 145.746 139.862 145.711 139.8Z" fill="#455A64"/>
<path d="M143.624 140.186L134.705 135.037C134.465 134.899 134.271 134.997 134.271 135.257C134.271 135.518 134.465 135.841 134.705 135.98L143.624 141.128C143.864 141.267 144.059 141.169 144.059 140.908C144.059 140.649 143.864 140.325 143.624 140.186Z" fill="#E0E0E0"/>
<path d="M145.711 142.626L144.987 141.349C144.959 141.3 144.959 141.236 144.987 141.219L145.711 140.777C145.746 140.756 145.797 140.824 145.797 140.892V142.611C145.797 142.679 145.746 142.688 145.711 142.626Z" fill="#455A64"/>
<path d="M125.776 80.9148L96.4627 63.991C96.2226 63.8524 96.0278 63.5151 96.0278 63.238V55.7654C96.0278 55.4883 96.2226 55.3758 96.4627 55.5144L125.776 72.435C126.016 72.5736 126.211 72.9109 126.211 73.188V80.6638C126.211 80.9409 126.016 81.0534 125.776 80.9148Z" fill="#F0F0F0"/>
<path d="M123.218 75.6394C123.218 75.6358 123.217 75.6298 123.215 75.6213L123.023 74.8185L123.288 74.9719C123.295 74.9756 123.3 74.9755 123.305 74.9707C123.31 74.9659 123.312 74.9587 123.312 74.9486V74.8037C123.312 74.7936 123.31 74.7836 123.305 74.7731C123.3 74.7631 123.295 74.7563 123.288 74.7523L122.862 74.5065C122.855 74.5029 122.85 74.5029 122.845 74.5077C122.84 74.5125 122.838 74.5197 122.838 74.5298V74.6571C122.838 74.6715 122.843 74.698 122.852 74.735L123.045 75.5394C123.047 75.549 123.051 75.5583 123.055 75.5675C123.058 75.5763 123.064 75.5832 123.071 75.5872L123.196 75.6595C123.202 75.6627 123.207 75.6627 123.211 75.6587C123.216 75.6551 123.218 75.6482 123.218 75.6394Z" fill="#455A64"/>
<path d="M122.511 74.2882C122.467 74.2625 122.428 74.2505 122.396 74.2521C122.364 74.2533 122.338 74.2653 122.317 74.287C122.296 74.3087 122.28 74.3392 122.269 74.3782C122.259 74.4176 122.253 74.4613 122.251 74.5095C122.25 74.5485 122.249 74.589 122.249 74.632C122.249 74.675 122.25 74.7155 122.251 74.7537C122.253 74.8043 122.259 74.8549 122.269 74.9063C122.28 74.9577 122.296 75.0063 122.317 75.0525C122.338 75.0983 122.364 75.1408 122.396 75.1794C122.428 75.2179 122.467 75.2501 122.511 75.2758C122.556 75.3015 122.594 75.3135 122.626 75.3119C122.658 75.3103 122.685 75.2987 122.706 75.2774C122.727 75.2553 122.743 75.2248 122.753 75.1858C122.763 75.1465 122.769 75.1027 122.771 75.0545C122.773 75.0175 122.773 74.9778 122.773 74.9348C122.773 74.8918 122.773 74.8505 122.771 74.8103C122.769 74.7597 122.763 74.7091 122.753 74.6577C122.743 74.6067 122.727 74.5577 122.706 74.5119C122.685 74.4657 122.658 74.4232 122.626 74.3846C122.594 74.3461 122.556 74.3139 122.511 74.2882ZM122.416 74.842C122.414 74.7629 122.414 74.6862 122.416 74.6119C122.417 74.5894 122.42 74.5698 122.423 74.5525C122.426 74.5352 122.431 74.5212 122.438 74.5111C122.446 74.5011 122.455 74.4951 122.467 74.4939C122.479 74.4927 122.494 74.4971 122.511 74.5075C122.529 74.518 122.544 74.5304 122.556 74.5457C122.568 74.5609 122.577 74.5778 122.584 74.5959C122.592 74.6139 122.596 74.634 122.6 74.6553C122.604 74.6766 122.606 74.6983 122.606 74.722C122.61 74.7995 122.61 74.8762 122.606 74.9521C122.606 74.975 122.604 74.9947 122.601 75.0119C122.598 75.0296 122.592 75.0432 122.585 75.0529C122.577 75.0625 122.568 75.0685 122.556 75.0702C122.544 75.0714 122.529 75.0669 122.511 75.0565C122.494 75.0465 122.479 75.0336 122.467 75.0187C122.455 75.0035 122.445 74.9866 122.438 74.9681C122.431 74.9497 122.425 74.9296 122.422 74.9087C122.419 74.8874 122.416 74.8657 122.416 74.842Z" fill="#455A64"/>
<path d="M121.892 74.1337C121.89 74.1695 121.89 74.204 121.892 74.2381C121.893 74.2663 121.896 74.2936 121.902 74.3201C121.908 74.347 121.916 74.3723 121.927 74.3968C121.939 74.4209 121.953 74.4438 121.97 74.4634C121.988 74.4831 122.008 74.5 122.031 74.5136C122.054 74.5269 122.074 74.5337 122.091 74.5337C122.108 74.5333 122.123 74.5277 122.134 74.5165C122.145 74.5048 122.154 74.4896 122.159 74.4695C122.166 74.4498 122.169 74.4265 122.17 74.3996C122.171 74.3823 122.172 74.3655 122.172 74.349C122.172 74.3329 122.171 74.3149 122.17 74.2952C122.169 74.2671 122.165 74.2398 122.159 74.2129C122.153 74.1863 122.145 74.1606 122.134 74.1361C122.123 74.1116 122.108 74.0896 122.091 74.0695C122.074 74.0494 122.054 74.0329 122.031 74.0197C122.008 74.0064 121.988 73.9992 121.97 73.9996C121.953 74 121.939 74.0056 121.928 74.0169C121.916 74.0277 121.908 74.0438 121.902 74.0635C121.896 74.0839 121.893 74.1068 121.892 74.1337ZM121.669 73.8438C121.665 73.8333 121.66 73.8241 121.656 73.8173C121.651 73.81 121.645 73.804 121.637 73.7992L121.563 73.757C121.557 73.7534 121.552 73.753 121.548 73.7554C121.544 73.7582 121.542 73.7639 121.542 73.7723C121.542 73.7743 121.542 73.7767 121.543 73.7799C121.543 73.7831 121.544 73.7864 121.545 73.7896L121.986 74.9357C121.99 74.9462 121.994 74.955 121.999 74.9622C122.003 74.9691 122.009 74.9751 122.018 74.9803L122.091 75.0225C122.098 75.0261 122.103 75.0269 122.107 75.0241C122.111 75.0213 122.113 75.0156 122.113 75.0072C122.113 75.0052 122.112 75.0032 122.112 75C122.111 74.9968 122.11 74.9936 122.109 74.9903L121.669 73.8438ZM122.068 74.3333C122.067 74.3562 122.063 74.3727 122.059 74.3815C122.053 74.3908 122.045 74.3912 122.032 74.3839C122.018 74.3763 122.01 74.3655 122.005 74.3502C122 74.3353 121.997 74.3157 121.995 74.2916C121.994 74.2602 121.994 74.2301 121.995 74.2008C121.997 74.1775 122 74.1618 122.005 74.1526C122.01 74.1438 122.018 74.143 122.032 74.1506C122.045 74.1582 122.054 74.1691 122.059 74.1839C122.064 74.1992 122.067 74.2185 122.068 74.243C122.07 74.2739 122.07 74.3044 122.068 74.3333ZM121.478 74.3755C121.476 74.4108 121.476 74.4458 121.478 74.4799C121.48 74.508 121.483 74.5353 121.488 74.5622C121.494 74.5883 121.503 74.6145 121.514 74.6385C121.525 74.6634 121.54 74.6851 121.557 74.7056C121.574 74.7257 121.594 74.7422 121.617 74.7554C121.641 74.7691 121.661 74.7759 121.678 74.7755C121.695 74.7751 121.71 74.7699 121.72 74.7582C121.732 74.747 121.74 74.7313 121.746 74.7116C121.752 74.6916 121.755 74.6687 121.757 74.6418C121.758 74.6241 121.759 74.6072 121.759 74.5916C121.759 74.5755 121.758 74.5574 121.757 74.5373C121.755 74.5092 121.752 74.4815 121.746 74.455C121.74 74.4281 121.732 74.4028 121.72 74.3783C121.71 74.3542 121.695 74.3317 121.678 74.312C121.661 74.292 121.641 74.2751 121.617 74.2614C121.594 74.2482 121.574 74.2418 121.557 74.2418C121.54 74.2414 121.525 74.2474 121.514 74.2586C121.503 74.2703 121.494 74.2855 121.489 74.3056C121.483 74.3253 121.48 74.349 121.478 74.3755ZM121.655 74.5747C121.653 74.598 121.65 74.6136 121.645 74.6229C121.64 74.6317 121.631 74.6325 121.618 74.6249C121.605 74.6173 121.596 74.6064 121.591 74.5916C121.586 74.5767 121.583 74.557 121.582 74.5325C121.58 74.5012 121.58 74.4711 121.582 74.4418C121.583 74.4189 121.587 74.4028 121.591 74.3936C121.596 74.3847 121.605 74.3839 121.618 74.3912C121.631 74.3988 121.641 74.4104 121.645 74.4249C121.65 74.4398 121.653 74.4594 121.655 74.4835C121.656 74.5153 121.656 74.5454 121.655 74.5747Z" fill="#455A64"/>
<path d="M123.221 73.3366L123.515 72.8828C123.838 73.4314 124.085 74.0868 124.211 74.7571L123.735 74.7205C123.642 74.2254 123.46 73.7418 123.221 73.3366Z" fill="#455A64"/>
<path d="M122.395 72.4409V71.6719C122.815 71.9144 123.203 72.3482 123.52 72.8843L123.225 73.3381C122.992 72.9417 122.705 72.6205 122.395 72.4409Z" fill="#455A64"/>
<path d="M123.805 75.4335C123.805 75.1986 123.78 74.9585 123.736 74.7207L124.211 74.7573C124.272 75.0789 124.305 75.4038 124.305 75.7219C124.305 76.04 124.272 76.3263 124.211 76.5785L123.736 76.0661C123.78 75.8797 123.805 75.6685 123.805 75.4335Z" fill="#455A64"/>
<path d="M120.57 72.6563C120.696 72.1319 120.943 71.7604 121.266 71.5853C121.582 71.4138 121.97 71.4287 122.391 71.6716V72.4407C122.08 72.2612 121.794 72.2519 121.56 72.3788C121.322 72.5086 121.139 72.7812 121.046 73.1688C121.002 73.3551 120.977 73.5664 120.977 73.8013C120.977 74.0362 121.002 74.2764 121.046 74.5141C121.139 75.0093 121.322 75.4928 121.56 75.8981C121.794 76.2944 122.08 76.6157 122.391 76.7952C122.701 76.9747 122.988 76.984 123.221 76.8571C123.46 76.7274 123.642 76.4547 123.735 76.0671L124.211 76.5796C124.085 77.1045 123.838 77.4755 123.515 77.651C123.2 77.8225 122.811 77.8077 122.391 77.5647C121.97 77.3221 121.582 76.8884 121.266 76.3523C120.943 75.8041 120.696 75.1483 120.57 74.478C120.51 74.1563 120.477 73.8314 120.477 73.5134C120.477 73.1953 120.51 72.9081 120.57 72.6563Z" fill="#23B54B"/>
<path d="M117.62 70.5515L108.701 65.4026C108.461 65.2641 108.266 65.3625 108.266 65.6227C108.266 65.8829 108.461 66.2058 108.701 66.3448L117.62 71.4937C117.86 71.6323 118.055 71.5339 118.055 71.2736C118.055 71.0134 117.86 70.6901 117.62 70.5515Z" fill="#455A64"/>
<path d="M117.62 72.4494L102.176 63.5354C101.936 63.3969 101.741 63.4953 101.741 63.7555C101.741 64.0158 101.936 64.339 102.176 64.4776L117.62 73.3915C117.86 73.5301 118.055 73.4317 118.055 73.1714C118.055 72.9112 117.86 72.5879 117.62 72.4494Z" fill="#E0E0E0"/>
<path d="M93.9674 62.5476L64.6542 45.6238C64.414 45.4852 64.2196 45.1479 64.2196 44.8708V37.3982C64.2196 37.1211 64.4144 37.0087 64.6542 37.1472L93.9674 54.0678C94.2076 54.2064 94.4023 54.5437 94.4023 54.8208V62.2966C94.4023 62.5737 94.2076 62.6862 93.9674 62.5476Z" fill="#F0F0F0"/>
<path d="M91.2695 56.5885C91.2695 56.5354 91.2623 56.4836 91.2474 56.4326C91.233 56.3816 91.2137 56.3346 91.1892 56.2909C91.1647 56.2475 91.137 56.2089 91.1053 56.1752C91.074 56.1415 91.0418 56.115 91.0085 56.0957C90.9752 56.0764 90.943 56.0656 90.9113 56.0632C90.88 56.0604 90.8523 56.0664 90.8278 56.082C90.8037 56.0973 90.784 56.1218 90.7691 56.1563C90.7547 56.1905 90.747 56.2338 90.747 56.2869C90.747 56.3134 90.749 56.3391 90.7531 56.3636C90.7571 56.3889 90.7619 56.4126 90.7683 56.4355C90.7744 56.4591 90.7812 56.4816 90.7892 56.5041C90.7968 56.5262 90.8045 56.5479 90.8125 56.5688L90.9816 57.0274C90.9848 57.0338 90.9884 57.0415 90.9912 57.0503C90.9952 57.0591 91.0009 57.066 91.0093 57.0708L91.1511 57.1527C91.1563 57.1559 91.1603 57.1551 91.1635 57.1511C91.1671 57.1471 91.1687 57.1411 91.1687 57.1326C91.1687 57.1278 91.1683 57.1242 91.1671 57.121C91.1663 57.1178 91.1655 57.115 91.1639 57.1125L91.0499 56.7997C91.0792 56.8101 91.1073 56.8142 91.1334 56.8113C91.1599 56.8089 91.1832 56.7989 91.2037 56.782C91.2237 56.7648 91.2398 56.7403 91.2515 56.7089C91.2635 56.6772 91.2695 56.6371 91.2695 56.5885ZM90.9121 56.382C90.9121 56.364 90.9149 56.3487 90.9201 56.3367C90.9254 56.3246 90.9326 56.3158 90.9414 56.3106C90.9507 56.3053 90.9611 56.3029 90.9723 56.3037C90.9836 56.3041 90.996 56.3081 91.0085 56.3154C91.0209 56.3226 91.033 56.3322 91.0446 56.3451C91.0563 56.3579 91.0667 56.372 91.0752 56.3877C91.084 56.4029 91.0912 56.4198 91.0968 56.4383C91.1025 56.4563 91.1049 56.4748 91.1049 56.4929C91.1049 56.5114 91.1021 56.5262 91.0968 56.5383C91.0912 56.5499 91.0844 56.5587 91.0752 56.5644C91.0663 56.57 91.0563 56.5724 91.0446 56.5712C91.033 56.5704 91.0209 56.5668 91.0085 56.5595C90.996 56.5523 90.984 56.5423 90.9723 56.5298C90.9611 56.5174 90.9507 56.5033 90.9414 56.4873C90.933 56.4716 90.9254 56.4543 90.9201 56.4367C90.9149 56.4186 90.9121 56.4005 90.9121 56.382Z" fill="#455A64"/>
<path d="M90.4135 55.7511C90.3694 55.7254 90.3308 55.7134 90.2987 55.715C90.2665 55.7162 90.24 55.7282 90.2192 55.7499C90.1979 55.7716 90.1822 55.8021 90.1718 55.8411C90.1617 55.8804 90.1557 55.9242 90.1537 55.9724C90.1525 56.0114 90.1517 56.0519 90.1517 56.0949C90.1517 56.1379 90.1525 56.1784 90.1537 56.2166C90.1557 56.2672 90.1617 56.3178 90.1718 56.3692C90.1822 56.4206 90.1979 56.4692 90.2192 56.5154C90.2404 56.5612 90.2665 56.6037 90.2987 56.6423C90.3308 56.6808 90.3694 56.713 90.4135 56.7387C90.4581 56.7644 90.4963 56.7764 90.5288 56.7748C90.5605 56.7732 90.5874 56.7616 90.6083 56.7403C90.6296 56.7182 90.6453 56.6877 90.6557 56.6487C90.6657 56.6094 90.6718 56.5656 90.6738 56.5174C90.675 56.4804 90.6758 56.4407 90.6758 56.3977C90.6758 56.3547 90.675 56.3134 90.6738 56.2732C90.6718 56.2226 90.6657 56.172 90.6557 56.1206C90.6453 56.0696 90.6292 56.021 90.6083 55.9748C90.587 55.9286 90.5605 55.8861 90.5288 55.8475C90.4963 55.8094 90.4585 55.7772 90.4135 55.7511ZM90.3188 56.3053C90.3159 56.2262 90.3159 56.1495 90.3188 56.0752C90.3196 56.0527 90.322 56.0335 90.3252 56.0158C90.3288 55.9985 90.3336 55.9845 90.3408 55.9744C90.3481 55.9644 90.3573 55.9584 90.3694 55.9572C90.381 55.956 90.3959 55.9604 90.4135 55.9708C90.4316 55.9812 90.4465 55.9937 90.4581 56.009C90.4702 56.0242 90.4798 56.0411 90.4866 56.0592C90.4934 56.0772 90.4987 56.0973 90.5027 56.1186C90.5059 56.1399 90.5083 56.1616 90.5087 56.1853C90.5119 56.2628 90.5119 56.3395 90.5087 56.4154C90.5083 56.4383 90.5063 56.4579 90.5031 56.4752C90.4999 56.4929 90.4943 56.5065 90.487 56.5162C90.4798 56.5258 90.4702 56.5318 90.4581 56.533C90.4465 56.5343 90.4316 56.5298 90.4135 56.5194C90.3959 56.5094 90.381 56.4965 90.3694 56.4816C90.3573 56.4664 90.3477 56.4495 90.3404 56.4314C90.3332 56.413 90.3276 56.3929 90.3244 56.372C90.3212 56.3507 90.3188 56.3286 90.3188 56.3053Z" fill="#455A64"/>
<path d="M89.7931 55.597C89.7915 55.6328 89.7915 55.6673 89.7931 55.7014C89.7943 55.7296 89.7975 55.7569 89.8031 55.7834C89.8092 55.8103 89.8176 55.8356 89.8288 55.8601C89.8401 55.8846 89.8553 55.9071 89.8722 55.9271C89.8895 55.9468 89.91 55.9637 89.9329 55.9769C89.9562 55.9902 89.9762 55.997 89.9931 55.997C90.0104 55.9966 90.0248 55.991 90.0361 55.9798C90.0473 55.9681 90.0562 55.9528 90.0618 55.9328C90.0682 55.9131 90.071 55.8894 90.0726 55.8629C90.0734 55.8456 90.0742 55.8287 90.0742 55.8123C90.0742 55.7962 90.0734 55.7781 90.0726 55.7585C90.071 55.7304 90.0678 55.7031 90.0618 55.6761C90.0558 55.6496 90.0473 55.6239 90.0361 55.5998C90.0252 55.5753 90.0104 55.5533 89.9931 55.5332C89.9762 55.5131 89.9557 55.4966 89.9329 55.4834C89.9096 55.4701 89.8895 55.4629 89.8722 55.4633C89.8553 55.4637 89.8409 55.4693 89.83 55.481C89.8184 55.4918 89.81 55.5079 89.8039 55.5275C89.7979 55.5472 89.7943 55.5701 89.7931 55.597ZM89.5706 55.3067C89.5666 55.2962 89.5622 55.287 89.5578 55.2802C89.5533 55.2729 89.5469 55.2669 89.5389 55.2621L89.4654 55.2199C89.4586 55.2163 89.4537 55.2159 89.4497 55.2183C89.4457 55.2211 89.4437 55.2268 89.4437 55.2352C89.4437 55.2372 89.4441 55.2396 89.4449 55.2428C89.4453 55.246 89.4461 55.2492 89.4477 55.2525L89.8879 56.3986C89.8919 56.4091 89.8963 56.4179 89.9007 56.4251C89.9052 56.432 89.9116 56.438 89.92 56.4428L89.9931 56.485C89.9999 56.4886 90.0047 56.4894 90.0088 56.4866C90.0128 56.4838 90.0148 56.4781 90.0148 56.4697C90.0148 56.4677 90.0144 56.4657 90.0136 56.4625C90.0132 56.4593 90.0124 56.456 90.0108 56.4528L89.5706 55.3067ZM89.9698 55.7966C89.9686 55.8195 89.9654 55.836 89.9606 55.8448C89.9553 55.8541 89.9465 55.8545 89.9337 55.8472C89.9204 55.8396 89.9116 55.8287 89.9068 55.8135C89.9015 55.7986 89.8983 55.779 89.8971 55.7549C89.8955 55.7235 89.8955 55.6934 89.8971 55.6641C89.8987 55.6408 89.9019 55.6251 89.9068 55.6159C89.912 55.6071 89.9204 55.6063 89.9337 55.6139C89.9465 55.6215 89.9557 55.6324 89.9606 55.6472C89.9658 55.6625 89.969 55.6818 89.9698 55.7063C89.9718 55.7372 89.9718 55.7673 89.9698 55.7966ZM89.3794 55.8388C89.3778 55.8741 89.3778 55.9091 89.3794 55.9432C89.3811 55.9713 89.3847 55.9986 89.3899 56.0251C89.3955 56.0516 89.4043 56.0773 89.4156 56.1018C89.4272 56.1263 89.4417 56.1484 89.459 56.1689C89.4762 56.189 89.4963 56.2055 89.5192 56.2187C89.5429 56.2324 89.5626 56.2392 89.5798 56.2388C89.5971 56.2384 89.6116 56.2332 89.6228 56.2215C89.6341 56.2103 89.6429 56.1946 89.6485 56.1749C89.6545 56.1548 89.6578 56.132 89.659 56.105C89.6602 56.0874 89.661 56.0705 89.661 56.0548C89.661 56.0388 89.6602 56.0207 89.659 56.0006C89.6578 55.9725 89.6541 55.9448 89.6485 55.9183C89.6425 55.8914 89.6341 55.8661 89.6228 55.8416C89.612 55.8175 89.5971 55.795 89.5798 55.7753C89.5626 55.7553 89.5425 55.7384 89.5192 55.7251C89.4959 55.7119 89.4762 55.7055 89.459 55.7055C89.4417 55.7055 89.4276 55.7111 89.416 55.7223C89.4048 55.734 89.3959 55.7492 89.3903 55.7693C89.3847 55.7886 89.3811 55.8119 89.3794 55.8388ZM89.5562 56.038C89.555 56.0613 89.5513 56.0769 89.5465 56.0862C89.5417 56.0954 89.5329 56.0958 89.5196 56.0882C89.5068 56.0805 89.4975 56.0697 89.4927 56.0548C89.4879 56.04 89.4847 56.0203 89.4839 55.9958C89.4818 55.9645 89.4818 55.9344 89.4839 55.9051C89.4847 55.8822 89.4883 55.8661 89.4927 55.8569C89.4979 55.848 89.5068 55.8472 89.5196 55.8544C89.5329 55.8621 89.5421 55.8737 89.5465 55.8882C89.5517 55.903 89.5554 55.9227 89.5562 55.9468C89.5578 55.9785 89.5578 56.0087 89.5562 56.038Z" fill="#455A64"/>
<path d="M90.3321 53.9179V53.1484C90.7526 53.3914 91.141 53.8247 91.457 54.3609L91.1627 54.8147C90.9293 54.4187 90.643 54.0974 90.3321 53.9179Z" fill="#455A64"/>
<path d="M88.5076 54.1349C88.6338 53.61 88.8799 53.2389 89.2032 53.0638C89.5189 52.8923 89.9077 52.9072 90.3281 53.1501V53.9196C90.0173 53.7401 89.7309 53.7308 89.4976 53.8578C89.2591 53.9875 89.0767 54.2602 88.9835 54.6477C88.939 54.834 88.9141 55.0453 88.9141 55.2802C88.9141 55.5152 88.939 55.7553 88.9835 55.9931C89.0767 56.4874 89.2587 56.9706 89.4968 57.3754C89.7301 57.7709 90.0177 58.095 90.3281 58.2742C90.639 58.4537 90.9253 58.4629 91.1587 58.336C91.3972 58.2063 91.5799 57.9336 91.6727 57.546C91.7173 57.3597 91.7422 57.1485 91.7422 56.9135C91.7422 56.6786 91.7173 56.4384 91.6727 56.2007C91.5795 55.7055 91.3972 55.222 91.1587 54.8168L91.453 54.363C91.7759 54.9112 92.0225 55.567 92.1486 56.2372C92.2093 56.5589 92.2422 56.8838 92.2422 57.2019C92.2422 57.5195 92.2093 57.8063 92.1486 58.0585C92.0225 58.5834 91.7763 58.9545 91.453 59.1296C91.1374 59.301 90.7486 59.2862 90.3281 59.0432C89.9077 58.8002 89.5193 58.3669 89.2032 57.8308L89.2036 57.8292L89.2032 57.83C88.8803 57.2818 88.6338 56.626 88.5076 55.9557C88.447 55.634 88.4141 55.3091 88.4141 54.9911C88.4141 54.6734 88.4474 54.3867 88.5076 54.1349Z" fill="#23B54B"/>
<path d="M85.5572 52.0281L76.6388 46.8792C76.3986 46.7406 76.2042 46.839 76.2042 47.0993C76.2042 47.3595 76.399 47.6828 76.6388 47.8213L85.5576 52.9703C85.7978 53.1088 85.9922 53.0104 85.9922 52.7502C85.9918 52.4899 85.7974 52.1667 85.5572 52.0281Z" fill="#455A64"/>
<path d="M85.5572 53.9279L70.1135 45.014C69.8733 44.8754 69.6789 44.9738 69.6789 45.234C69.6789 45.4943 69.8737 45.8176 70.1135 45.9561L85.5576 54.87C85.7978 55.0086 85.9922 54.9102 85.9922 54.6499C85.9918 54.3901 85.7974 54.0668 85.5572 53.9279Z" fill="#E0E0E0"/>
<path d="M122.792 82.9626L116.536 79.3401C116.296 79.2016 116.101 79.3 116.101 79.5602C116.101 79.8204 116.296 80.1437 116.536 80.2823L122.792 83.9047C123.032 84.0433 123.227 83.9449 123.227 83.6846C123.227 83.4244 123.032 83.1011 122.792 82.9626Z" fill="#455A64"/>
<path d="M64.6214 51.7201L64.621 99.4968C64.621 99.6306 64.7391 99.835 64.8552 99.902L125.809 135.092L125.809 87.3151C125.809 87.1814 125.691 86.9769 125.575 86.9099L124.813 86.4701C124.451 86.2609 124.178 85.7878 124.178 85.3693V82.6059C124.178 82.4722 124.06 82.2678 123.943 82.2007L115.192 77.1498V79.718C115.192 80.1855 114.87 80.4301 114.55 80.4301C114.418 80.4301 114.285 80.3919 114.156 80.3168L64.6214 51.7201ZM64.4604 51.2148C64.519 51.2148 64.5849 51.2341 64.6548 51.2743L114.357 79.969C114.427 80.0092 114.492 80.0285 114.551 80.0285C114.693 80.0285 114.791 79.9148 114.791 79.718V76.9546C114.791 76.7578 114.889 76.6442 115.032 76.6442C115.09 76.6442 115.156 76.6634 115.226 76.7036L124.144 81.8525C124.384 81.9911 124.579 82.3284 124.579 82.6055V85.3689C124.579 85.646 124.774 85.9834 125.014 86.1219L125.776 86.5617C126.016 86.7002 126.211 87.0376 126.211 87.3147L126.211 135.287C126.211 135.483 126.113 135.597 125.97 135.597C125.911 135.597 125.845 135.578 125.776 135.538L64.6544 100.25C64.4142 100.111 64.2194 99.7739 64.2194 99.4968L64.2198 51.5249C64.2198 51.3285 64.3178 51.2148 64.4604 51.2148Z" fill="#E0E0E0"/>
<path d="M122.282 89.4001C122.358 89.4001 122.431 89.3816 122.495 89.3442C122.64 89.2607 122.723 89.0944 122.723 88.8888V87.0672C122.723 86.721 122.487 86.3138 122.187 86.1403L117.34 83.3455C117.162 83.2427 116.977 83.2319 116.832 83.3154C116.687 83.399 116.604 83.5652 116.604 83.7708V85.5925C116.604 85.9391 116.839 86.3463 117.14 86.5194L121.987 89.3141C122.086 89.3712 122.187 89.4001 122.282 89.4001ZM121.987 86.4885C122.164 86.5913 122.321 86.862 122.321 87.0672V88.8888C122.321 88.9575 122.303 88.9916 122.294 88.9965C122.286 89.0009 122.247 89.0005 122.188 88.9659L117.341 86.1708C117.162 86.068 117.006 85.7977 117.006 85.5921V83.7704C117.006 83.7018 117.025 83.668 117.033 83.6628C117.041 83.6576 117.08 83.6588 117.14 83.6929L121.987 86.4885Z" fill="#E0E0E0"/>
<path d="M121.699 87.2385L118.54 85.4052C118.38 85.3128 118.25 85.3783 118.25 85.5518C118.25 85.7252 118.38 85.9405 118.54 86.0329L121.699 87.8662C121.859 87.9585 121.988 87.8931 121.988 87.7196C121.989 87.5461 121.859 87.3308 121.699 87.2385Z" fill="#E0E0E0"/>
<path d="M117.803 85.105L117.541 85.4769C117.531 85.491 117.512 85.4797 117.502 85.454L117.24 84.7797C117.227 84.7472 117.239 84.7175 117.259 84.7291L117.783 85.0315C117.804 85.0436 117.816 85.087 117.803 85.105Z" fill="#455A64"/>
<path d="M122.948 107.049C122.716 106.916 122.529 107.024 122.529 107.292C122.529 107.559 122.716 107.884 122.948 108.018C123.179 108.151 123.367 108.043 123.367 107.776C123.367 107.508 123.18 107.183 122.948 107.049Z" fill="#23B54B"/>
<path d="M119.686 103.282C119.455 103.148 119.267 103.257 119.267 103.524C119.267 103.792 119.454 104.116 119.686 104.25C119.918 104.384 120.105 104.275 120.105 104.008C120.105 103.741 119.918 103.416 119.686 103.282Z" fill="#23B54B"/>
<path d="M116.424 101.399C116.193 101.265 116.005 101.374 116.005 101.641C116.005 101.909 116.193 102.234 116.424 102.367C116.656 102.501 116.844 102.393 116.844 102.125C116.844 101.858 116.656 101.533 116.424 101.399Z" fill="#23B54B"/>
<path d="M113.163 100.342C112.931 100.209 112.743 100.317 112.743 100.585C112.743 100.852 112.931 101.177 113.163 101.311C113.394 101.444 113.582 101.336 113.582 101.069C113.582 100.801 113.394 100.476 113.163 100.342Z" fill="#23B54B"/>
<path d="M109.893 96.9499C109.662 96.8161 109.474 96.9246 109.474 97.192C109.474 97.4595 109.662 97.7844 109.893 97.9181C110.125 98.0518 110.312 97.9434 110.312 97.6759C110.312 97.4085 110.125 97.0836 109.893 96.9499Z" fill="#23B54B"/>
<path d="M106.635 95.7467C106.404 95.613 106.216 95.7214 106.216 95.9889C106.216 96.2564 106.404 96.5813 106.635 96.715C106.867 96.8487 107.055 96.7403 107.055 96.4728C107.055 96.2058 106.867 95.8805 106.635 95.7467Z" fill="#23B54B"/>
<path d="M103.37 91.9792C103.138 91.8454 102.951 91.9539 102.951 92.2213C102.951 92.4888 103.138 92.8137 103.37 92.9474C103.602 93.0811 103.789 92.9727 103.789 92.7052C103.789 92.4378 103.602 92.1129 103.37 91.9792Z" fill="#23B54B"/>
<path d="M100.112 91.0377C99.8802 90.904 99.6927 91.0124 99.6927 91.2799C99.6927 91.5474 99.8802 91.8723 100.112 92.006C100.343 92.1397 100.531 92.0313 100.531 91.7638C100.531 91.4968 100.343 91.1715 100.112 91.0377Z" fill="#23B54B"/>
<path d="M96.8503 80.6784C96.6185 80.5446 96.431 80.6531 96.431 80.9205C96.431 81.188 96.6185 81.5129 96.8503 81.6466C97.082 81.7804 97.2695 81.6719 97.2695 81.4045C97.2695 81.137 97.0816 80.8121 96.8503 80.6784Z" fill="#23B54B"/>
<path d="M93.5885 86.3288C93.3572 86.195 93.1693 86.3035 93.1693 86.5709C93.1693 86.8384 93.3568 87.1633 93.5885 87.297C93.8203 87.4308 94.0078 87.3223 94.0078 87.0549C94.0078 86.7874 93.8199 86.4625 93.5885 86.3288Z" fill="#23B54B"/>
<path d="M90.3268 86.3288C90.0951 86.195 89.9075 86.3035 89.9075 86.5709C89.9075 86.8384 90.0951 87.1633 90.3268 87.297C90.5585 87.4308 90.7461 87.3223 90.7461 87.0549C90.7457 86.7874 90.5581 86.4625 90.3268 86.3288Z" fill="#23B54B"/>
<path d="M87.0573 86.3288C86.8256 86.195 86.638 86.3035 86.638 86.5709C86.638 86.8384 86.8256 87.1633 87.0573 87.297C87.2886 87.4308 87.4766 87.3223 87.4766 87.0549C87.4766 86.7874 87.2886 86.4625 87.0573 86.3288Z" fill="#23B54B"/>
<path d="M83.7995 80.6784C83.5678 80.5446 83.3802 80.6531 83.3802 80.9205C83.3802 81.188 83.5678 81.5129 83.7995 81.6466C84.0312 81.7804 84.2188 81.6719 84.2188 81.4045C84.2188 81.137 84.0308 80.8121 83.7995 80.6784Z" fill="#23B54B"/>
<path d="M80.5338 79.5944C80.3021 79.4607 80.1146 79.5691 80.1146 79.8366C80.1146 80.104 80.3021 80.4289 80.5338 80.5626C80.7652 80.6964 80.9531 80.5879 80.9531 80.3205C80.9531 80.0534 80.7652 79.7281 80.5338 79.5944Z" fill="#23B54B"/>
<path d="M77.2565 75.028C77.0248 74.8942 76.8372 75.0027 76.8372 75.2701C76.8372 75.5376 77.0248 75.8625 77.2565 75.9962C77.4882 76.13 77.6758 76.0215 77.6758 75.7541C77.6758 75.4866 77.4882 75.1613 77.2565 75.028Z" fill="#23B54B"/>
<path d="M74.0065 75.028C73.7748 74.8942 73.5872 75.0027 73.5872 75.2701C73.5872 75.5376 73.7748 75.8625 74.0065 75.9962C74.2382 76.13 74.4258 76.0215 74.4258 75.7541C74.4258 75.4866 74.2382 75.1613 74.0065 75.028Z" fill="#23B54B"/>
<path d="M70.7448 75.028C70.5131 74.8942 70.3255 75.0027 70.3255 75.2701C70.3255 75.5376 70.5131 75.8625 70.7448 75.9962C70.9761 76.13 71.1641 76.0215 71.1641 75.7541C71.1641 75.4866 70.9765 75.1613 70.7448 75.028Z" fill="#23B54B"/>
<path d="M67.4831 73.1432C67.2513 73.0095 67.0638 73.1179 67.0638 73.3854C67.0638 73.6528 67.2513 73.9777 67.4831 74.1115C67.7148 74.2452 67.9023 74.1368 67.9023 73.8693C67.9023 73.6022 67.7148 73.2769 67.4831 73.1432Z" fill="#23B54B"/>
<path d="M122.958 107.639C122.982 107.639 123.005 107.631 123.024 107.615C123.066 107.578 123.07 107.515 123.034 107.473L119.739 103.687C119.732 103.679 119.724 103.672 119.714 103.666L116.475 101.796L113.217 100.739L109.972 97.3644C109.962 97.3535 109.949 97.3451 109.935 97.3399L106.696 96.1463L103.45 92.3978C103.437 92.3829 103.421 92.3725 103.402 92.3669L100.191 91.4404L96.9447 81.1317C96.933 81.094 96.8997 81.0663 96.8599 81.0622C96.8234 81.0578 96.782 81.0771 96.7619 81.112L93.5286 86.7128L90.3158 86.7083L87.119 86.7128L83.8852 81.112C83.8728 81.0908 83.8531 81.0747 83.8298 81.0671L80.5981 79.9948L77.3543 75.4531C77.3354 75.4266 77.3053 75.4113 77.2728 75.4113H70.7744L67.5346 73.5411C67.4881 73.513 67.4262 73.5294 67.3973 73.5776C67.37 73.6258 67.3865 73.6869 67.4342 73.7146L70.6973 75.5985C70.7126 75.6073 70.7298 75.6121 70.7475 75.6121H77.221L80.4539 80.1386C80.466 80.1558 80.4836 80.1687 80.5037 80.1755L83.7302 81.2462L86.9736 86.8642C86.9917 86.8951 87.025 86.9144 87.0607 86.9144L90.3154 86.9099L93.5864 86.9144C93.6222 86.9144 93.6555 86.8951 93.6736 86.8642L96.8218 81.4108L100.016 91.5532C100.026 91.5854 100.051 91.6103 100.084 91.6195L103.317 92.5528L106.561 96.2981C106.572 96.311 106.587 96.321 106.602 96.3267L109.843 97.521L113.09 100.896C113.102 100.909 113.116 100.917 113.132 100.922L116.394 101.979L119.6 103.832L122.883 107.605C122.902 107.627 122.93 107.639 122.958 107.639Z" fill="#23B54B"/>
<path d="M122.947 109.619C123.017 109.619 123.084 109.583 123.122 109.519C123.177 109.423 123.144 109.3 123.048 109.245L67.5826 77.2221C67.487 77.1671 67.3638 77.1992 67.3083 77.2956C67.2525 77.3916 67.2854 77.5145 67.3818 77.5699L122.847 109.592C122.879 109.61 122.913 109.619 122.947 109.619Z" fill="#E0E0E0"/>
<path d="M122.948 105.167C122.716 105.033 122.529 105.141 122.529 105.409C122.529 105.676 122.716 106.001 122.948 106.135C123.179 106.269 123.367 106.16 123.367 105.893C123.367 105.625 123.18 105.3 122.948 105.167Z" fill="#23B54B"/>
<path d="M119.686 99.5163C119.455 99.3825 119.267 99.491 119.267 99.7584C119.267 100.026 119.454 100.351 119.686 100.485C119.918 100.618 120.105 100.51 120.105 100.242C120.105 99.9749 119.918 99.65 119.686 99.5163Z" fill="#23B54B"/>
<path d="M116.424 98.8092C116.193 98.6755 116.005 98.7839 116.005 99.0514C116.005 99.3189 116.193 99.6438 116.424 99.7775C116.656 99.9112 116.844 99.8028 116.844 99.5353C116.844 99.2683 116.656 98.943 116.424 98.8092Z" fill="#23B54B"/>
<path d="M113.163 91.9811C112.931 91.8474 112.743 91.9558 112.743 92.2233C112.743 92.4907 112.931 92.8156 113.163 92.9494C113.394 93.0831 113.582 92.9747 113.582 92.7072C113.582 92.4397 113.394 92.1148 113.163 91.9811Z" fill="#23B54B"/>
<path d="M109.893 93.8639C109.662 93.7302 109.474 93.8386 109.474 94.1061C109.474 94.3735 109.662 94.6984 109.893 94.8322C110.125 94.9659 110.312 94.8575 110.312 94.59C110.312 94.3225 110.125 93.9977 109.893 93.8639Z" fill="#23B54B"/>
<path d="M106.635 92.9225C106.404 92.7888 106.216 92.8972 106.216 93.1647C106.216 93.4321 106.404 93.757 106.635 93.8908C106.867 94.0245 107.055 93.9161 107.055 93.6486C107.055 93.3811 106.867 93.0562 106.635 92.9225Z" fill="#23B54B"/>
<path d="M103.37 90.0963C103.138 89.9626 102.951 90.071 102.951 90.3385C102.951 90.606 103.138 90.9309 103.37 91.0646C103.602 91.1983 103.789 91.0899 103.789 90.8224C103.789 90.555 103.602 90.2301 103.37 90.0963Z" fill="#23B54B"/>
<path d="M100.112 86.3288C99.8802 86.195 99.6927 86.3035 99.6927 86.5709C99.6927 86.8384 99.8802 87.1633 100.112 87.297C100.344 87.4308 100.531 87.3223 100.531 87.0549C100.531 86.7874 100.344 86.4625 100.112 86.3288Z" fill="#23B54B"/>
<path d="M96.8503 85.3874C96.6185 85.2536 96.431 85.3621 96.431 85.6295C96.431 85.897 96.6185 86.2219 96.8503 86.3556C97.082 86.4893 97.2695 86.3809 97.2695 86.1134C97.2695 85.846 97.0816 85.5211 96.8503 85.3874Z" fill="#23B54B"/>
<path d="M93.5885 82.5631C93.3572 82.4294 93.1693 82.5378 93.1693 82.8053C93.1693 83.0728 93.3568 83.3977 93.5885 83.5314C93.8203 83.6651 94.0078 83.5567 94.0078 83.2892C94.0078 83.0222 93.8203 82.6969 93.5885 82.5631Z" fill="#23B54B"/>
<path d="M90.3268 82.5631C90.0951 82.4294 89.9075 82.5378 89.9075 82.8053C89.9075 83.0728 90.0951 83.3977 90.3268 83.5314C90.5585 83.6651 90.7461 83.5567 90.7461 83.2892C90.7461 83.0222 90.5585 82.6969 90.3268 82.5631Z" fill="#23B54B"/>
<path d="M87.0573 75.028C86.8256 74.8942 86.638 75.0027 86.638 75.2701C86.638 75.5376 86.8256 75.8625 87.0573 75.9962C87.289 76.13 87.4766 76.0215 87.4766 75.7541C87.4766 75.4866 87.2886 75.1617 87.0573 75.028Z" fill="#23B54B"/>
<path d="M83.7995 78.7682C83.5678 78.6345 83.3802 78.7429 83.3802 79.0104C83.3802 79.2778 83.5678 79.6027 83.7995 79.7365C84.0312 79.8702 84.2188 79.7618 84.2188 79.4943C84.2188 79.2268 84.0308 78.9019 83.7995 78.7682Z" fill="#23B54B"/>
<path d="M80.5338 75.028C80.3025 74.8942 80.1146 75.0027 80.1146 75.2701C80.1146 75.5376 80.3021 75.8625 80.5338 75.9962C80.7656 76.13 80.9531 76.0215 80.9531 75.7541C80.9531 75.4866 80.7652 75.1617 80.5338 75.028Z" fill="#23B54B"/>
<path d="M77.276 73.1432C77.0447 73.0095 76.8568 73.1179 76.8568 73.3854C76.8568 73.6528 77.0443 73.9777 77.276 74.1115C77.5078 74.2452 77.6953 74.1368 77.6953 73.8693C77.6953 73.6022 77.5074 73.2769 77.276 73.1432Z" fill="#23B54B"/>
<path d="M74.0143 73.1432C73.783 73.0095 73.595 73.1179 73.595 73.3854C73.595 73.6528 73.7826 73.9777 74.0143 74.1115C74.246 74.2452 74.4336 74.1368 74.4336 73.8693C74.4336 73.6018 74.2456 73.2769 74.0143 73.1432Z" fill="#23B54B"/>
<path d="M70.7448 71.2604C70.5131 71.1267 70.3255 71.2351 70.3255 71.5026C70.3255 71.77 70.5131 72.0949 70.7448 72.2287C70.9761 72.3624 71.1641 72.254 71.1641 71.9865C71.1641 71.719 70.9765 71.3941 70.7448 71.2604Z" fill="#23B54B"/>
<path d="M67.4831 71.2604C67.2513 71.1267 67.0638 71.2351 67.0638 71.5026C67.0638 71.77 67.2513 72.0949 67.4831 72.2287C67.7148 72.3624 67.9023 72.254 67.9023 71.9865C67.9023 71.719 67.7148 71.3941 67.4831 71.2604Z" fill="#23B54B"/>
<path d="M122.95 105.75C122.968 105.75 122.985 105.746 123.001 105.736C123.049 105.709 123.065 105.647 123.037 105.599L119.751 99.9349C119.737 99.9104 119.713 99.8927 119.685 99.8871L116.495 99.2056L113.254 92.4206C113.242 92.3953 113.22 92.3764 113.193 92.368C113.166 92.3595 113.137 92.3631 113.113 92.3768L109.883 94.2414L106.687 93.3153L103.445 90.5069L100.189 86.7472C100.176 86.7323 100.16 86.7219 100.141 86.7162L96.8991 85.7805L93.6533 82.9697C93.6349 82.9536 93.6116 82.9452 93.5875 82.9452H90.3907L87.1541 75.471C87.1405 75.4393 87.1116 75.4168 87.0774 75.4116C87.0437 75.406 87.0092 75.4192 86.9863 75.4449L83.7995 79.1248L80.6128 75.4449C80.6051 75.4365 80.5967 75.4293 80.5871 75.4236L77.3132 73.5333C77.2979 73.5245 77.2806 73.5197 77.263 73.5197H74.0272L70.7991 71.6562C70.7839 71.6474 70.7666 71.6426 70.7489 71.6426H67.4859C67.4305 71.6426 67.3855 71.6876 67.3855 71.743C67.3855 71.7984 67.4305 71.8434 67.4859 71.8434H70.722L73.9501 73.7068C73.9654 73.7156 73.9827 73.7205 74.0003 73.7205H77.2361L80.4726 75.5887L83.724 79.3433C83.7626 79.387 83.8377 79.387 83.8762 79.3433L87.0341 75.6967L90.2332 83.0846C90.2493 83.1215 90.2855 83.1452 90.3252 83.1452H93.5505L96.7846 85.9464C96.7955 85.956 96.8087 85.9628 96.8228 85.9669L100.057 86.9006L103.305 90.6479L106.573 93.4812C106.584 93.4908 106.597 93.4977 106.611 93.5017L109.87 94.4458C109.896 94.4531 109.925 94.4499 109.948 94.4362L113.12 92.6045L116.336 99.3361C116.349 99.3642 116.375 99.3847 116.406 99.3911L119.602 100.073L122.865 105.699C122.882 105.732 122.916 105.75 122.95 105.75Z" fill="#23B54B"/>
<g opacity="0.3">
<path d="M122.948 105.167C122.716 105.033 122.529 105.141 122.529 105.409C122.529 105.676 122.716 106.001 122.948 106.135C123.179 106.269 123.367 106.16 123.367 105.893C123.367 105.625 123.18 105.3 122.948 105.167Z" fill="black"/>
<path d="M119.686 99.5163C119.455 99.3825 119.267 99.491 119.267 99.7584C119.267 100.026 119.454 100.351 119.686 100.485C119.918 100.618 120.105 100.51 120.105 100.242C120.105 99.9749 119.918 99.65 119.686 99.5163Z" fill="black"/>
<path d="M116.424 98.8092C116.193 98.6755 116.005 98.7839 116.005 99.0514C116.005 99.3189 116.193 99.6438 116.424 99.7775C116.656 99.9112 116.844 99.8028 116.844 99.5353C116.844 99.2683 116.656 98.943 116.424 98.8092Z" fill="black"/>
<path d="M113.163 91.9811C112.931 91.8474 112.743 91.9558 112.743 92.2233C112.743 92.4907 112.931 92.8156 113.163 92.9494C113.394 93.0831 113.582 92.9747 113.582 92.7072C113.582 92.4397 113.394 92.1148 113.163 91.9811Z" fill="black"/>
<path d="M109.893 93.8639C109.662 93.7302 109.474 93.8386 109.474 94.1061C109.474 94.3735 109.662 94.6984 109.893 94.8322C110.125 94.9659 110.312 94.8575 110.312 94.59C110.312 94.3225 110.125 93.9977 109.893 93.8639Z" fill="black"/>
<path d="M106.635 92.9225C106.404 92.7888 106.216 92.8972 106.216 93.1647C106.216 93.4321 106.404 93.757 106.635 93.8908C106.867 94.0245 107.055 93.9161 107.055 93.6486C107.055 93.3811 106.867 93.0562 106.635 92.9225Z" fill="black"/>
<path d="M103.37 90.0963C103.138 89.9626 102.951 90.071 102.951 90.3385C102.951 90.606 103.138 90.9309 103.37 91.0646C103.602 91.1983 103.789 91.0899 103.789 90.8224C103.789 90.555 103.602 90.2301 103.37 90.0963Z" fill="black"/>
<path d="M100.112 86.3288C99.8802 86.195 99.6927 86.3035 99.6927 86.5709C99.6927 86.8384 99.8802 87.1633 100.112 87.297C100.344 87.4308 100.531 87.3223 100.531 87.0549C100.531 86.7874 100.344 86.4625 100.112 86.3288Z" fill="black"/>
<path d="M96.8503 85.3874C96.6185 85.2536 96.431 85.3621 96.431 85.6295C96.431 85.897 96.6185 86.2219 96.8503 86.3556C97.082 86.4893 97.2695 86.3809 97.2695 86.1134C97.2695 85.846 97.0816 85.5211 96.8503 85.3874Z" fill="black"/>
<path d="M93.5885 82.5631C93.3572 82.4294 93.1693 82.5378 93.1693 82.8053C93.1693 83.0728 93.3568 83.3977 93.5885 83.5314C93.8203 83.6651 94.0078 83.5567 94.0078 83.2892C94.0078 83.0222 93.8203 82.6969 93.5885 82.5631Z" fill="black"/>
<path d="M90.3268 82.5631C90.0951 82.4294 89.9075 82.5378 89.9075 82.8053C89.9075 83.0728 90.0951 83.3977 90.3268 83.5314C90.5585 83.6651 90.7461 83.5567 90.7461 83.2892C90.7461 83.0222 90.5585 82.6969 90.3268 82.5631Z" fill="black"/>
<path d="M87.0573 75.028C86.8256 74.8942 86.638 75.0027 86.638 75.2701C86.638 75.5376 86.8256 75.8625 87.0573 75.9962C87.289 76.13 87.4766 76.0215 87.4766 75.7541C87.4766 75.4866 87.2886 75.1617 87.0573 75.028Z" fill="black"/>
<path d="M83.7995 78.7682C83.5678 78.6345 83.3802 78.7429 83.3802 79.0104C83.3802 79.2778 83.5678 79.6027 83.7995 79.7365C84.0312 79.8702 84.2188 79.7618 84.2188 79.4943C84.2188 79.2268 84.0308 78.9019 83.7995 78.7682Z" fill="black"/>
<path d="M80.5338 75.028C80.3025 74.8942 80.1146 75.0027 80.1146 75.2701C80.1146 75.5376 80.3021 75.8625 80.5338 75.9962C80.7656 76.13 80.9531 76.0215 80.9531 75.7541C80.9531 75.4866 80.7652 75.1617 80.5338 75.028Z" fill="black"/>
<path d="M77.276 73.1432C77.0447 73.0095 76.8568 73.1179 76.8568 73.3854C76.8568 73.6528 77.0443 73.9777 77.276 74.1115C77.5078 74.2452 77.6953 74.1368 77.6953 73.8693C77.6953 73.6022 77.5074 73.2769 77.276 73.1432Z" fill="black"/>
<path d="M74.0143 73.1432C73.783 73.0095 73.595 73.1179 73.595 73.3854C73.595 73.6528 73.7826 73.9777 74.0143 74.1115C74.246 74.2452 74.4336 74.1368 74.4336 73.8693C74.4336 73.6018 74.2456 73.2769 74.0143 73.1432Z" fill="black"/>
<path d="M70.7448 71.2604C70.5131 71.1267 70.3255 71.2351 70.3255 71.5026C70.3255 71.77 70.5131 72.0949 70.7448 72.2287C70.9761 72.3624 71.1641 72.254 71.1641 71.9865C71.1641 71.719 70.9765 71.3941 70.7448 71.2604Z" fill="black"/>
<path d="M67.4831 71.2604C67.2513 71.1267 67.0638 71.2351 67.0638 71.5026C67.0638 71.77 67.2513 72.0949 67.4831 72.2287C67.7148 72.3624 67.9023 72.254 67.9023 71.9865C67.9023 71.719 67.7148 71.3941 67.4831 71.2604Z" fill="black"/>
<path d="M122.95 105.75C122.968 105.75 122.985 105.746 123.001 105.736C123.049 105.709 123.065 105.647 123.037 105.599L119.751 99.9349C119.737 99.9104 119.713 99.8927 119.685 99.8871L116.495 99.2056L113.254 92.4206C113.242 92.3953 113.22 92.3764 113.193 92.368C113.166 92.3595 113.137 92.3631 113.113 92.3768L109.883 94.2414L106.687 93.3153L103.445 90.5069L100.189 86.7472C100.176 86.7323 100.16 86.7219 100.141 86.7162L96.8991 85.7805L93.6533 82.9697C93.6349 82.9536 93.6116 82.9452 93.5875 82.9452H90.3907L87.1541 75.471C87.1405 75.4393 87.1116 75.4168 87.0774 75.4116C87.0437 75.406 87.0092 75.4192 86.9863 75.4449L83.7995 79.1248L80.6128 75.4449C80.6051 75.4365 80.5967 75.4293 80.5871 75.4236L77.3132 73.5333C77.2979 73.5245 77.2806 73.5197 77.263 73.5197H74.0272L70.7991 71.6562C70.7839 71.6474 70.7666 71.6426 70.7489 71.6426H67.4859C67.4305 71.6426 67.3855 71.6876 67.3855 71.743C67.3855 71.7984 67.4305 71.8434 67.4859 71.8434H70.722L73.9501 73.7068C73.9654 73.7156 73.9827 73.7205 74.0003 73.7205H77.2361L80.4726 75.5887L83.724 79.3433C83.7626 79.387 83.8377 79.387 83.8762 79.3433L87.0341 75.6967L90.2332 83.0846C90.2493 83.1215 90.2855 83.1452 90.3252 83.1452H93.5505L96.7846 85.9464C96.7955 85.956 96.8087 85.9628 96.8228 85.9669L100.057 86.9006L103.305 90.6479L106.573 93.4812C106.584 93.4908 106.597 93.4977 106.611 93.5017L109.87 94.4458C109.896 94.4531 109.925 94.4499 109.948 94.4362L113.12 92.6045L116.336 99.3361C116.349 99.3642 116.375 99.3847 116.406 99.3911L119.602 100.073L122.865 105.699C122.882 105.732 122.916 105.75 122.95 105.75Z" fill="black"/>
</g>
<path d="M121.242 91.1896L118.083 89.3563C117.923 89.264 117.793 89.3294 117.793 89.5029C117.793 89.6764 117.923 89.8917 118.083 89.984L121.242 91.8173C121.402 91.9097 121.531 91.8443 121.531 91.6708C121.531 91.4977 121.402 91.282 121.242 91.1896Z" fill="#E0E0E0"/>
<path d="M122.948 91.9811C122.716 91.8474 122.529 91.9558 122.529 92.2233C122.529 92.4907 122.716 92.8156 122.948 92.9494C123.179 93.0831 123.367 92.9747 123.367 92.7072C123.367 92.4397 123.18 92.1148 122.948 91.9811Z" fill="#23B54B"/>
<path opacity="0.3" d="M122.948 91.9811C122.716 91.8474 122.529 91.9558 122.529 92.2233C122.529 92.4907 122.716 92.8156 122.948 92.9494C123.179 93.0831 123.367 92.9747 123.367 92.7072C123.367 92.4397 123.18 92.1148 122.948 91.9811Z" fill="black"/>
<path d="M121.242 93.0686L118.083 91.2352C117.923 91.1429 117.793 91.2083 117.793 91.3818C117.793 91.5553 117.923 91.7706 118.083 91.8629L121.242 93.6963C121.402 93.7886 121.531 93.7232 121.531 93.5497C121.531 93.3762 121.402 93.1609 121.242 93.0686Z" fill="#E0E0E0"/>
<path d="M122.948 93.8659C122.716 93.7321 122.529 93.8406 122.529 94.108C122.529 94.3755 122.716 94.7004 122.948 94.8341C123.179 94.9679 123.367 94.8594 123.367 94.592C123.367 94.3245 123.18 93.9996 122.948 93.8659Z" fill="#23B54B"/>
<path d="M122.95 118.962C122.975 118.962 123.001 118.953 123.02 118.934C123.06 118.895 123.061 118.832 123.022 118.793L121.367 117.09L119.741 116.884L118.1 114.764L116.457 114.989L114.861 113.548L113.231 112.571L111.57 110.269L109.92 110.786L108.335 109.369C108.294 109.332 108.23 109.336 108.193 109.377C108.156 109.419 108.159 109.483 108.201 109.52L109.871 111.012L111.492 110.504L113.11 112.734L114.742 113.71L116.392 115.202L118.012 114.979L119.633 117.074L121.271 117.282L122.877 118.933C122.898 118.952 122.924 118.962 122.95 118.962Z" fill="#23B54B"/>
<path d="M122.304 113.455C122.293 113.444 122.279 113.431 122.262 113.418C122.245 113.404 122.231 113.394 122.218 113.387C122.129 113.336 122.046 113.31 121.971 113.312C121.896 113.314 121.83 113.338 121.775 113.387C121.721 113.435 121.678 113.504 121.647 113.593C121.616 113.684 121.6 113.791 121.6 113.916C121.6 114.041 121.616 114.167 121.647 114.291C121.678 114.418 121.721 114.536 121.775 114.647C121.83 114.758 121.896 114.859 121.971 114.948C122.047 115.037 122.129 115.107 122.218 115.158C122.307 115.21 122.39 115.235 122.465 115.233C122.541 115.232 122.606 115.207 122.661 115.158C122.716 115.111 122.758 115.042 122.79 114.952C122.821 114.862 122.836 114.755 122.836 114.629C122.836 114.558 122.831 114.489 122.821 114.422C122.811 114.354 122.797 114.289 122.78 114.226C122.763 114.162 122.744 114.099 122.723 114.039C122.703 113.978 122.682 113.919 122.662 113.864L122.227 112.628C122.219 112.611 122.21 112.591 122.201 112.567C122.192 112.543 122.176 112.525 122.154 112.512L122.017 112.433C122.003 112.425 121.991 112.426 121.983 112.437C121.974 112.448 121.969 112.465 121.969 112.487C121.969 112.498 121.971 112.51 121.973 112.518C121.976 112.526 121.979 112.534 121.982 112.541L122.304 113.455ZM122.609 114.499C122.609 114.573 122.6 114.637 122.582 114.692C122.564 114.748 122.538 114.792 122.505 114.824C122.471 114.856 122.43 114.873 122.382 114.876C122.333 114.879 122.278 114.863 122.218 114.828C122.158 114.793 122.103 114.746 122.055 114.687C122.006 114.629 121.965 114.563 121.932 114.493C121.898 114.422 121.872 114.349 121.854 114.272C121.836 114.196 121.827 114.12 121.827 114.046C121.827 113.973 121.836 113.908 121.854 113.853C121.872 113.797 121.898 113.753 121.932 113.721C121.965 113.689 122.006 113.672 122.055 113.669C122.103 113.667 122.158 113.683 122.218 113.718C122.278 113.752 122.333 113.799 122.382 113.858C122.43 113.917 122.471 113.982 122.505 114.052C122.538 114.123 122.564 114.196 122.582 114.273C122.6 114.35 122.609 114.426 122.609 114.499Z" fill="#455A64"/>
<path d="M121.198 113.909C121.19 113.943 121.179 113.976 121.164 114.007C121.15 114.038 121.129 114.06 121.1 114.074C121.072 114.088 121.034 114.091 120.987 114.084C120.94 114.076 120.879 114.051 120.804 114.008C120.755 113.98 120.708 113.944 120.663 113.899C120.619 113.856 120.58 113.805 120.546 113.746C120.513 113.687 120.486 113.623 120.466 113.554C120.446 113.485 120.437 113.41 120.437 113.329C120.437 113.251 120.446 113.189 120.465 113.145C120.485 113.102 120.51 113.072 120.543 113.058C120.575 113.044 120.614 113.042 120.658 113.053C120.703 113.064 120.752 113.085 120.804 113.114L121.002 113.229C121.019 113.239 121.035 113.238 121.047 113.226C121.06 113.214 121.066 113.194 121.066 113.167V113.035C121.066 113.012 121.062 112.99 121.053 112.967C121.045 112.943 121.036 112.922 121.028 112.902L120.599 111.941L121.286 112.338C121.303 112.348 121.319 112.347 121.331 112.334C121.344 112.322 121.35 112.303 121.35 112.275V112.144C121.35 112.116 121.344 112.089 121.331 112.063C121.319 112.036 121.303 112.018 121.286 112.007L120.345 111.464C120.327 111.454 120.313 111.455 120.3 111.467C120.287 111.479 120.281 111.499 120.281 111.526V111.658C120.281 111.681 120.285 111.704 120.293 111.73C120.301 111.755 120.311 111.781 120.324 111.808L120.746 112.754C120.667 112.71 120.594 112.687 120.528 112.685C120.462 112.682 120.405 112.7 120.358 112.737C120.311 112.775 120.275 112.833 120.249 112.909C120.222 112.986 120.209 113.082 120.209 113.197C120.209 113.323 120.225 113.444 120.257 113.561C120.289 113.679 120.332 113.787 120.385 113.885C120.438 113.983 120.501 114.071 120.573 114.15C120.646 114.228 120.722 114.291 120.803 114.338C120.91 114.399 121.002 114.434 121.079 114.44C121.156 114.448 121.22 114.434 121.27 114.4C121.32 114.367 121.358 114.318 121.382 114.255C121.407 114.193 121.42 114.121 121.422 114.041C121.422 114.019 121.417 113.997 121.406 113.975C121.396 113.953 121.383 113.938 121.369 113.93L121.26 113.867C121.242 113.857 121.228 113.857 121.218 113.867C121.207 113.877 121.201 113.891 121.198 113.909Z" fill="#455A64"/>
<path d="M119.772 113.088C119.764 113.123 119.753 113.156 119.739 113.187C119.724 113.218 119.703 113.241 119.674 113.255C119.645 113.269 119.607 113.272 119.561 113.264C119.514 113.257 119.453 113.231 119.378 113.188C119.329 113.16 119.282 113.123 119.237 113.079C119.193 113.035 119.154 112.984 119.12 112.925C119.087 112.866 119.06 112.802 119.04 112.734C119.02 112.664 119.011 112.59 119.011 112.509C119.011 112.431 119.02 112.369 119.039 112.325C119.058 112.281 119.084 112.251 119.117 112.237C119.149 112.223 119.188 112.222 119.232 112.233C119.277 112.243 119.325 112.264 119.378 112.294L119.576 112.409C119.593 112.419 119.609 112.418 119.621 112.405C119.634 112.393 119.64 112.374 119.64 112.347V112.214C119.64 112.192 119.636 112.17 119.627 112.146C119.619 112.122 119.61 112.101 119.602 112.082L119.172 111.121L119.86 111.517C119.878 111.527 119.892 111.526 119.905 111.514C119.918 111.502 119.924 111.482 119.924 111.456V111.323C119.924 111.296 119.918 111.269 119.905 111.242C119.892 111.216 119.878 111.197 119.86 111.186L118.919 110.643C118.902 110.633 118.887 110.635 118.874 110.647C118.862 110.659 118.855 110.678 118.855 110.705V110.837C118.855 110.86 118.859 110.883 118.866 110.909C118.875 110.935 118.885 110.96 118.898 110.988L119.32 111.933C119.241 111.89 119.168 111.867 119.102 111.864C119.036 111.861 118.979 111.879 118.932 111.917C118.885 111.955 118.849 112.012 118.823 112.089C118.796 112.165 118.783 112.262 118.783 112.377C118.783 112.502 118.799 112.623 118.831 112.741C118.863 112.858 118.905 112.966 118.958 113.064C119.012 113.163 119.074 113.251 119.147 113.329C119.219 113.408 119.296 113.471 119.377 113.517C119.484 113.579 119.576 113.613 119.653 113.619C119.731 113.627 119.794 113.613 119.845 113.579C119.894 113.545 119.932 113.498 119.957 113.435C119.982 113.372 119.994 113.3 119.996 113.221C119.996 113.198 119.991 113.176 119.98 113.154C119.97 113.133 119.958 113.117 119.943 113.109L119.834 113.046C119.816 113.036 119.802 113.036 119.792 113.045C119.782 113.057 119.775 113.071 119.772 113.088Z" fill="#455A64"/>
<path d="M122.652 120.26L108.555 112.091C108.395 111.998 108.265 112.064 108.265 112.237C108.265 112.411 108.395 112.626 108.555 112.718L122.652 120.888C122.812 120.98 122.941 120.915 122.941 120.741C122.942 120.568 122.812 120.352 122.652 120.26Z" fill="#E0E0E0"/>
<path d="M122.652 110.836L119.493 109.003C119.333 108.91 119.203 108.976 119.203 109.149C119.203 109.323 119.333 109.538 119.493 109.631L122.652 111.464C122.812 111.556 122.941 111.491 122.941 111.317C122.942 111.144 122.812 110.928 122.652 110.836Z" fill="#E0E0E0"/>
<path d="M122.95 130.254C122.975 130.254 123.001 130.244 123.02 130.226C123.06 130.187 123.061 130.123 123.022 130.084L121.367 128.381L119.731 128.174L118.083 126.734L116.495 126.301L114.839 123.005L113.178 123.818L111.577 122.406L111.55 122.401L109.96 122.099L108.355 119.324C108.328 119.275 108.265 119.259 108.218 119.287C108.17 119.315 108.154 119.376 108.181 119.424L109.832 122.28L111.485 122.593L113.146 124.057L114.749 123.272L116.355 126.471L118.007 126.921L119.644 128.365L121.271 128.572L122.878 130.223C122.898 130.244 122.924 130.254 122.95 130.254Z" fill="#23B54B"/>
<g opacity="0.3">
<path d="M122.95 130.254C122.975 130.254 123.001 130.244 123.02 130.226C123.06 130.187 123.061 130.123 123.022 130.084L121.367 128.381L119.731 128.174L118.083 126.734L116.495 126.301L114.839 123.005L113.178 123.818L111.577 122.406L111.55 122.401L109.96 122.099L108.355 119.324C108.328 119.275 108.265 119.259 108.218 119.287C108.17 119.315 108.154 119.376 108.181 119.424L109.832 122.28L111.485 122.593L113.146 124.057L114.749 123.272L116.355 126.471L118.007 126.921L119.644 128.365L121.271 128.572L122.878 130.223C122.898 130.244 122.924 130.254 122.95 130.254Z" fill="black"/>
</g>
<path d="M122.112 126.253C122.112 126.28 122.118 126.307 122.131 126.334C122.144 126.361 122.158 126.379 122.176 126.39L122.274 126.446C122.292 126.456 122.307 126.455 122.319 126.443C122.332 126.431 122.338 126.411 122.338 126.384V124.359L122.725 125.035C122.739 125.062 122.755 125.079 122.773 125.084C122.79 125.09 122.805 125.086 122.816 125.072L122.873 124.992C122.884 124.976 122.888 124.954 122.886 124.925C122.884 124.898 122.875 124.87 122.861 124.845L122.35 123.947C122.337 123.925 122.325 123.91 122.312 123.9C122.299 123.89 122.286 123.882 122.274 123.874L122.176 123.817C122.158 123.807 122.143 123.808 122.13 123.821C122.118 123.833 122.111 123.852 122.111 123.879L122.112 126.253Z" fill="#455A64"/>
<path d="M121.067 124.398C121.019 124.304 120.983 124.216 120.96 124.133C120.936 124.051 120.924 123.955 120.924 123.845C120.924 123.714 120.949 123.62 120.998 123.561C121.047 123.503 121.125 123.505 121.232 123.567C121.288 123.599 121.335 123.639 121.374 123.685C121.413 123.733 121.446 123.785 121.472 123.843C121.498 123.9 121.519 123.962 121.534 124.026C121.549 124.09 121.561 124.154 121.571 124.218C121.576 124.248 121.584 124.274 121.596 124.295C121.608 124.316 121.62 124.331 121.633 124.338L121.743 124.402C121.757 124.41 121.769 124.409 121.78 124.399C121.79 124.389 121.795 124.373 121.795 124.351C121.794 124.259 121.781 124.16 121.755 124.052C121.73 123.944 121.693 123.839 121.646 123.735C121.598 123.631 121.539 123.536 121.47 123.446C121.401 123.357 121.322 123.287 121.232 123.236C121.145 123.185 121.068 123.161 121.001 123.164C120.934 123.168 120.878 123.191 120.834 123.237C120.789 123.282 120.755 123.346 120.732 123.428C120.709 123.51 120.697 123.605 120.697 123.714C120.697 123.792 120.702 123.865 120.709 123.933C120.718 124.002 120.73 124.07 120.749 124.138C120.767 124.206 120.791 124.276 120.82 124.347C120.848 124.417 120.883 124.492 120.925 124.572L121.457 125.645L120.727 125.223C120.709 125.213 120.694 125.214 120.681 125.226C120.669 125.238 120.662 125.258 120.662 125.285V125.417C120.662 125.444 120.669 125.471 120.681 125.498C120.694 125.524 120.709 125.543 120.727 125.553L121.756 126.147C121.773 126.157 121.788 126.156 121.801 126.144C121.813 126.132 121.82 126.112 121.82 126.085V125.953C121.82 125.926 121.816 125.9 121.808 125.876C121.8 125.852 121.787 125.82 121.767 125.783L121.067 124.398Z" fill="#455A64"/>
<path d="M119.182 123.065C119.18 123.174 119.18 123.277 119.18 123.374C119.18 123.471 119.18 123.575 119.182 123.686C119.184 123.829 119.196 123.97 119.222 124.108C119.246 124.246 119.283 124.374 119.332 124.493C119.382 124.613 119.444 124.719 119.52 124.815C119.596 124.91 119.686 124.988 119.791 125.048C119.896 125.109 119.986 125.135 120.062 125.127C120.137 125.119 120.2 125.085 120.249 125.022C120.299 124.96 120.336 124.875 120.36 124.765C120.385 124.655 120.398 124.53 120.4 124.389C120.401 124.279 120.402 124.176 120.402 124.079C120.402 123.982 120.401 123.878 120.4 123.768C120.398 123.624 120.385 123.484 120.36 123.345C120.336 123.207 120.299 123.079 120.249 122.96C120.2 122.841 120.137 122.733 120.062 122.637C119.986 122.54 119.896 122.462 119.791 122.401C119.686 122.341 119.596 122.315 119.52 122.324C119.444 122.333 119.382 122.369 119.332 122.431C119.283 122.493 119.246 122.578 119.222 122.688C119.196 122.798 119.184 122.923 119.182 123.065ZM120.175 124.26C120.172 124.49 120.138 124.642 120.074 124.716C120.009 124.789 119.915 124.789 119.791 124.717C119.667 124.646 119.572 124.537 119.508 124.389C119.443 124.241 119.41 124.051 119.407 123.816C119.405 123.705 119.404 123.601 119.404 123.504C119.404 123.407 119.405 123.304 119.407 123.195C119.41 122.964 119.443 122.811 119.508 122.737C119.572 122.662 119.667 122.661 119.791 122.733C119.915 122.805 120.009 122.915 120.074 123.063C120.138 123.212 120.172 123.403 120.175 123.639C120.177 123.749 120.178 123.854 120.178 123.95C120.178 124.047 120.177 124.15 120.175 124.26Z" fill="#455A64"/>
<path d="M122.652 131.549L108.555 123.38C108.395 123.287 108.265 123.353 108.265 123.526C108.265 123.7 108.395 123.915 108.555 124.007L122.652 132.177C122.812 132.269 122.941 132.204 122.941 132.03C122.942 131.857 122.812 131.641 122.652 131.549Z" fill="#E0E0E0"/>
<path d="M122.652 122.127L119.493 120.294C119.333 120.201 119.203 120.267 119.203 120.44C119.203 120.614 119.333 120.829 119.493 120.922L122.652 122.755C122.812 122.847 122.941 122.782 122.941 122.608C122.942 122.435 122.812 122.22 122.652 122.127Z" fill="#E0E0E0"/>
<path d="M103.365 107.638C103.394 107.638 103.423 107.625 103.443 107.6C103.478 107.556 103.47 107.493 103.427 107.458L101.796 106.157L100.153 104.28L98.4851 104.038L96.894 103.679L95.2466 101.733L93.6253 102.02L91.9996 99.4453L90.3474 99.4714L88.7494 98.0429C88.708 98.0064 88.645 98.0096 88.6072 98.051C88.5703 98.0923 88.5739 98.1558 88.6153 98.1927L90.2723 99.6738L91.89 99.6473L93.5273 102.241L95.1683 101.951L96.7839 103.859L98.4486 104.235L100.051 104.467L101.657 106.301L103.302 107.614C103.32 107.63 103.343 107.638 103.365 107.638Z" fill="#23B54B"/>
<path d="M102.726 102.128C102.715 102.117 102.701 102.104 102.684 102.091C102.667 102.078 102.653 102.068 102.64 102.06C102.551 102.009 102.468 101.984 102.393 101.986C102.318 101.987 102.252 102.012 102.197 102.06C102.143 102.108 102.1 102.177 102.069 102.267C102.038 102.357 102.022 102.464 102.022 102.589C102.022 102.714 102.038 102.84 102.069 102.965C102.1 103.091 102.143 103.21 102.197 103.321C102.252 103.432 102.318 103.533 102.393 103.622C102.469 103.71 102.551 103.781 102.64 103.832C102.729 103.884 102.812 103.908 102.887 103.906C102.963 103.905 103.028 103.88 103.083 103.832C103.138 103.784 103.18 103.715 103.212 103.625C103.243 103.536 103.258 103.429 103.258 103.303C103.258 103.232 103.253 103.163 103.243 103.096C103.233 103.028 103.218 102.963 103.202 102.9C103.185 102.836 103.166 102.774 103.145 102.712C103.125 102.652 103.104 102.593 103.084 102.537L102.649 101.301C102.641 101.285 102.632 101.264 102.623 101.24C102.614 101.217 102.598 101.198 102.575 101.185L102.439 101.107C102.425 101.099 102.414 101.1 102.404 101.111C102.396 101.122 102.391 101.138 102.391 101.16C102.391 101.172 102.393 101.183 102.395 101.192C102.398 101.2 102.4 101.208 102.404 101.215L102.726 102.128ZM103.032 103.172C103.032 103.245 103.022 103.31 103.004 103.365C102.986 103.421 102.96 103.465 102.927 103.497C102.893 103.529 102.853 103.546 102.804 103.549C102.755 103.552 102.7 103.535 102.64 103.5C102.58 103.465 102.526 103.419 102.477 103.36C102.428 103.302 102.387 103.236 102.354 103.166C102.32 103.095 102.295 103.022 102.276 102.945C102.258 102.869 102.249 102.793 102.249 102.719C102.249 102.646 102.258 102.581 102.276 102.526C102.295 102.47 102.32 102.426 102.354 102.394C102.387 102.362 102.428 102.345 102.477 102.342C102.526 102.339 102.58 102.355 102.64 102.39C102.7 102.425 102.755 102.472 102.804 102.531C102.853 102.589 102.893 102.655 102.927 102.725C102.96 102.796 102.986 102.869 103.004 102.946C103.022 103.023 103.032 103.099 103.032 103.172Z" fill="#455A64"/>
<path d="M101.072 101.538C101.024 101.445 100.988 101.356 100.964 101.274C100.94 101.192 100.928 101.095 100.928 100.985C100.928 100.855 100.954 100.761 101.003 100.702C101.052 100.644 101.13 100.645 101.237 100.707C101.292 100.739 101.339 100.779 101.379 100.826C101.418 100.873 101.451 100.926 101.476 100.984C101.503 101.041 101.523 101.102 101.539 101.167C101.554 101.23 101.566 101.294 101.576 101.359C101.58 101.389 101.588 101.415 101.601 101.436C101.613 101.457 101.625 101.472 101.638 101.479L101.748 101.542C101.762 101.55 101.774 101.549 101.785 101.54C101.795 101.53 101.8 101.514 101.8 101.492C101.799 101.4 101.785 101.3 101.76 101.192C101.734 101.085 101.697 100.979 101.65 100.876C101.602 100.772 101.543 100.676 101.474 100.587C101.405 100.498 101.326 100.428 101.237 100.376C101.149 100.326 101.072 100.302 101.005 100.305C100.938 100.309 100.882 100.332 100.838 100.378C100.794 100.423 100.76 100.486 100.736 100.569C100.713 100.651 100.702 100.746 100.702 100.855C100.702 100.933 100.706 101.006 100.713 101.074C100.722 101.143 100.735 101.211 100.753 101.279C100.771 101.347 100.795 101.417 100.824 101.488C100.852 101.558 100.887 101.633 100.929 101.713L101.461 102.785L100.731 102.364C100.713 102.353 100.698 102.355 100.685 102.367C100.673 102.379 100.666 102.398 100.666 102.425V102.557C100.666 102.584 100.673 102.612 100.685 102.638C100.698 102.665 100.713 102.684 100.731 102.694L101.76 103.288C101.777 103.298 101.792 103.297 101.805 103.285C101.818 103.273 101.824 103.253 101.824 103.226V103.094C101.824 103.067 101.82 103.042 101.812 103.018C101.804 102.993 101.791 102.962 101.772 102.924L101.072 101.538Z" fill="#455A64"/>
<path d="M99.4443 99.3797C99.4267 99.3696 99.4118 99.3712 99.3989 99.3829C99.3865 99.3953 99.3801 99.415 99.3801 99.4415V99.574C99.3801 99.5961 99.3825 99.6206 99.3873 99.6479C99.3921 99.6752 99.3981 99.7046 99.4062 99.7363L99.9363 102.149C99.9427 102.174 99.9512 102.199 99.9612 102.223C99.9716 102.248 99.9865 102.266 100.006 102.276L100.115 102.34C100.131 102.349 100.145 102.348 100.156 102.337C100.167 102.327 100.173 102.309 100.173 102.285C100.173 102.28 100.172 102.274 100.172 102.268C100.171 102.26 100.169 102.25 100.165 102.236L99.6331 99.819L100.416 100.271C100.433 100.281 100.449 100.28 100.461 100.268C100.474 100.256 100.48 100.236 100.48 100.209V100.077C100.48 100.05 100.474 100.023 100.461 99.9961C100.449 99.9696 100.433 99.9507 100.416 99.9403L99.4443 99.3797Z" fill="#455A64"/>
<path d="M103.07 108.934L88.9726 100.765C88.8128 100.672 88.6831 100.738 88.6831 100.911C88.6831 101.085 88.8128 101.3 88.9726 101.392L103.07 109.562C103.23 109.654 103.359 109.588 103.359 109.415C103.359 109.242 103.23 109.026 103.07 108.934Z" fill="#E0E0E0"/>
<path d="M103.07 99.51L99.9108 97.6767C99.7509 97.5843 99.6212 97.6497 99.6212 97.8232C99.6212 97.9967 99.7509 98.212 99.9108 98.3043L103.07 100.138C103.23 100.23 103.359 100.165 103.359 99.9911C103.359 99.818 103.23 99.6023 103.07 99.51Z" fill="#E0E0E0"/>
<path d="M103.364 118.93C103.383 118.93 103.401 118.925 103.417 118.915C103.464 118.886 103.479 118.824 103.45 118.777L101.783 116.042L100.106 116.353L98.5279 115.921L96.8958 113.93L95.2741 113.521L93.6255 110.584L91.9403 111.073L90.3564 110.773L88.7496 109.342C88.7086 109.305 88.6448 109.308 88.6078 109.351C88.5709 109.392 88.5745 109.455 88.6163 109.492L90.2645 110.959L90.2914 110.965L91.9504 111.28L93.5283 110.821L95.142 113.695L96.7833 114.109L98.4138 116.098L98.4444 116.107L100.098 116.559L100.121 116.555L101.684 116.265L103.279 118.882C103.298 118.912 103.331 118.93 103.364 118.93Z" fill="#23B54B"/>
<g opacity="0.3">
<path d="M103.364 118.93C103.383 118.93 103.401 118.925 103.417 118.915C103.464 118.886 103.479 118.824 103.45 118.777L101.783 116.042L100.106 116.353L98.5279 115.921L96.8958 113.93L95.2741 113.521L93.6255 110.584L91.9403 111.073L90.3564 110.773L88.7496 109.342C88.7086 109.305 88.6448 109.308 88.6078 109.351C88.5709 109.392 88.5745 109.455 88.6163 109.492L90.2645 110.959L90.2914 110.965L91.9504 111.28L93.5283 110.821L95.142 113.695L96.7833 114.109L98.4138 116.098L98.4444 116.107L100.098 116.559L100.121 116.555L101.684 116.265L103.279 118.882C103.298 118.912 103.331 118.93 103.364 118.93Z" fill="black"/>
</g>
<path d="M102.613 114.192C102.622 114.199 102.632 114.207 102.647 114.217C102.661 114.226 102.672 114.233 102.678 114.237C102.754 114.281 102.828 114.305 102.9 114.308C102.971 114.311 103.035 114.292 103.091 114.251C103.147 114.209 103.192 114.144 103.226 114.057C103.26 113.969 103.277 113.855 103.277 113.715C103.277 113.59 103.261 113.466 103.23 113.342C103.198 113.218 103.154 113.102 103.099 112.993C103.045 112.884 102.981 112.787 102.909 112.701C102.836 112.615 102.76 112.548 102.679 112.502C102.586 112.448 102.503 112.422 102.429 112.424C102.355 112.426 102.292 112.45 102.24 112.497C102.189 112.545 102.149 112.613 102.121 112.703C102.093 112.792 102.079 112.899 102.079 113.024C102.079 113.085 102.085 113.15 102.098 113.22C102.111 113.29 102.127 113.36 102.146 113.43C102.165 113.499 102.186 113.568 102.208 113.634C102.23 113.702 102.251 113.762 102.27 113.817L102.704 115.053C102.713 115.07 102.721 115.091 102.731 115.114C102.74 115.139 102.756 115.156 102.779 115.169L102.915 115.248C102.929 115.256 102.94 115.255 102.949 115.244C102.958 115.233 102.962 115.217 102.962 115.195C102.962 115.182 102.961 115.172 102.959 115.163C102.956 115.154 102.953 115.147 102.95 115.14L102.613 114.192ZM102.305 113.154C102.305 113.078 102.314 113.012 102.332 112.957C102.351 112.901 102.376 112.859 102.409 112.83C102.442 112.801 102.481 112.787 102.528 112.787C102.573 112.787 102.624 112.802 102.678 112.833C102.734 112.865 102.784 112.908 102.829 112.961C102.875 113.014 102.914 113.074 102.946 113.141C102.979 113.207 103.004 113.279 103.022 113.355C103.041 113.432 103.05 113.508 103.05 113.584C103.05 113.662 103.04 113.729 103.022 113.783C103.004 113.838 102.979 113.879 102.946 113.909C102.914 113.938 102.875 113.952 102.829 113.953C102.784 113.954 102.734 113.938 102.678 113.906C102.624 113.875 102.573 113.832 102.528 113.778C102.481 113.725 102.442 113.665 102.409 113.598C102.377 113.532 102.351 113.461 102.332 113.385C102.315 113.31 102.305 113.232 102.305 113.154Z" fill="#455A64"/>
<path d="M101.682 113.916C101.674 113.951 101.663 113.984 101.649 114.015C101.635 114.046 101.613 114.068 101.585 114.082C101.556 114.096 101.518 114.1 101.471 114.092C101.424 114.085 101.363 114.059 101.288 114.016C101.239 113.987 101.192 113.951 101.148 113.907C101.103 113.863 101.064 113.812 101.03 113.753C100.997 113.694 100.971 113.63 100.951 113.562C100.93 113.493 100.921 113.418 100.921 113.337C100.921 113.259 100.93 113.197 100.949 113.153C100.968 113.11 100.994 113.079 101.027 113.065C101.06 113.051 101.098 113.05 101.143 113.061C101.187 113.071 101.236 113.092 101.288 113.122L101.486 113.237C101.503 113.247 101.519 113.246 101.531 113.234C101.544 113.221 101.551 113.202 101.551 113.175V113.043C101.551 113.02 101.546 112.998 101.538 112.974C101.528 112.95 101.521 112.929 101.512 112.91L101.083 111.949L101.77 112.345C101.788 112.355 101.803 112.354 101.815 112.342C101.828 112.33 101.835 112.31 101.835 112.284V112.151C101.835 112.124 101.828 112.098 101.815 112.071C101.803 112.044 101.788 112.025 101.77 112.015L100.83 111.471C100.812 111.461 100.797 111.463 100.784 111.475C100.772 111.487 100.765 111.507 100.765 111.533V111.666C100.765 111.688 100.769 111.711 100.777 111.737C100.785 111.763 100.795 111.789 100.808 111.816L101.231 112.761C101.151 112.718 101.078 112.695 101.012 112.692C100.946 112.69 100.889 112.707 100.843 112.745C100.796 112.783 100.759 112.84 100.733 112.917C100.707 112.994 100.693 113.09 100.693 113.205C100.693 113.33 100.709 113.451 100.741 113.569C100.773 113.686 100.816 113.794 100.869 113.893C100.922 113.991 100.985 114.079 101.057 114.157C101.13 114.236 101.206 114.299 101.287 114.346C101.394 114.407 101.486 114.441 101.564 114.448C101.641 114.455 101.705 114.441 101.755 114.407C101.805 114.374 101.842 114.326 101.867 114.263C101.892 114.2 101.905 114.128 101.906 114.049C101.906 114.026 101.901 114.005 101.891 113.982C101.881 113.961 101.868 113.945 101.854 113.937L101.744 113.874C101.726 113.864 101.713 113.864 101.702 113.874C101.692 113.885 101.685 113.899 101.682 113.916Z" fill="#455A64"/>
<path d="M103.07 120.227L88.9726 112.058C88.8128 111.965 88.6831 112.031 88.6831 112.204C88.6831 112.378 88.8128 112.593 88.9726 112.685L103.07 120.855C103.23 120.947 103.359 120.881 103.359 120.708C103.359 120.534 103.23 120.319 103.07 120.227Z" fill="#E0E0E0"/>
<path d="M103.07 110.803L99.9108 108.97C99.7509 108.877 99.6212 108.943 99.6212 109.116C99.6212 109.29 99.7509 109.505 99.9108 109.597L103.07 111.431C103.23 111.523 103.359 111.458 103.359 111.284C103.359 111.111 103.23 110.895 103.07 110.803Z" fill="#E0E0E0"/>
<path d="M82.1602 89.3064C81.4646 88.9048 80.8232 88.8839 80.3007 89.1679L82.1602 94.1818V89.3064Z" fill="#23B54B"/>
<path d="M84.0195 91.315C83.497 90.4279 82.8557 89.7082 82.1601 89.3066V94.1821L84.0195 91.315Z" fill="#23B54B"/>
<path d="M85.168 94.4132C84.9595 93.3044 84.5511 92.2217 84.0166 91.3145L82.1571 94.1811L85.168 94.4132Z" fill="#23B54B"/>
<path opacity="0.3" d="M84.0166 91.3154C84.5511 92.2227 84.9595 93.3054 85.168 94.4142L82.1571 94.1821V89.3066C82.8531 89.7082 83.4941 90.4279 84.0166 91.3154Z" fill="black"/>
<path d="M80.3007 89.168C79.7662 89.4583 79.3577 90.0692 79.1493 90.9374L82.1602 94.1819L80.3007 89.168Z" fill="#23B54B"/>
<path d="M85.1684 97.4262C85.2684 97.0093 85.3242 96.5358 85.3242 96.0097C85.3242 95.4836 85.2684 94.9463 85.1684 94.4138L82.1576 94.1816L85.1684 97.4262Z" fill="#23B54B"/>
<path d="M79.1493 93.9492C79.3577 95.058 79.7662 96.1408 80.3007 97.048L82.1602 94.1813L79.1493 93.9492Z" fill="#23B54B"/>
<path d="M82.1601 99.0571C82.8557 99.4587 83.497 99.4796 84.0195 99.1956L82.1601 94.1816V99.0571Z" fill="#23B54B"/>
<path d="M85.168 97.4262L82.1571 94.1816L84.0166 99.1956C84.5511 98.9053 84.9595 98.294 85.168 97.4262Z" fill="#23B54B"/>
<path d="M79.1493 90.9375C79.0493 91.3544 78.9935 91.8279 78.9935 92.3539C78.9935 92.88 79.0493 93.4174 79.1493 93.9499L82.1602 94.182L79.1493 90.9375Z" fill="#23B54B"/>
<path d="M80.3007 97.0487C80.8232 97.9358 81.4646 98.6555 82.1602 99.0571V94.1816L80.3007 97.0487Z" fill="#23B54B"/>
<path d="M83.7456 101.543L80.5866 99.7099C80.4267 99.6175 80.297 99.6829 80.297 99.8564C80.297 100.03 80.4267 100.245 80.5866 100.338L83.7456 102.171C83.9054 102.263 84.0352 102.198 84.0352 102.024C84.0352 101.851 83.9058 101.636 83.7456 101.543Z" fill="#455A64"/>
<path d="M84.4444 103.836L79.8922 101.194C79.7324 101.102 79.6026 101.167 79.6026 101.341C79.6026 101.514 79.7324 101.73 79.8922 101.822L84.4448 104.463C84.6047 104.556 84.7344 104.49 84.7344 104.317C84.734 104.144 84.6042 103.928 84.4444 103.836Z" fill="#E0E0E0"/>
<path d="M84.4444 105.722L79.8922 103.081C79.7324 102.989 79.6026 103.054 79.6026 103.228C79.6026 103.401 79.7324 103.616 79.8922 103.709L84.4448 106.35C84.6047 106.442 84.7344 106.377 84.7344 106.203C84.734 106.03 84.6042 105.815 84.4444 105.722Z" fill="#E0E0E0"/>
<path d="M84.4444 107.611L79.8922 104.97C79.7324 104.877 79.6026 104.943 79.6026 105.116C79.6026 105.29 79.7324 105.505 79.8922 105.597L84.4448 108.239C84.6047 108.331 84.7344 108.266 84.7344 108.092C84.734 107.919 84.6042 107.703 84.4444 107.611Z" fill="#E0E0E0"/>
<path d="M70.7539 82.6892C70.0583 82.2876 69.417 82.2667 68.8945 82.5507L70.7539 87.5646V82.6892Z" fill="#23B54B"/>
<path d="M72.6133 84.6979C72.0908 83.8107 71.4494 83.0911 70.7538 82.6895V87.5649L72.6133 84.6979Z" fill="#23B54B"/>
<path d="M73.7617 87.796C73.5533 86.6872 73.1448 85.6045 72.6103 84.6973L70.7509 87.5639L73.7617 87.796Z" fill="#23B54B"/>
<path d="M68.8945 82.5508C68.3599 82.8411 67.9515 83.452 67.7431 84.3202L70.7539 87.5648L68.8945 82.5508Z" fill="#23B54B"/>
<path d="M73.7622 90.8086C73.8622 90.3917 73.918 89.9186 73.918 89.3925C73.918 88.8664 73.8626 88.3291 73.7622 87.7966L70.7513 87.5645L73.7622 90.8086Z" fill="#23B54B"/>
<path d="M67.7431 87.332C67.9515 88.4408 68.3603 89.5236 68.8945 90.4308L70.7539 87.5642L67.7431 87.332Z" fill="#23B54B"/>
<path d="M70.7538 92.4395C71.4494 92.8411 72.0908 92.862 72.6133 92.578L70.7538 87.5645V92.4395Z" fill="#23B54B"/>
<path d="M73.7617 90.809L70.7509 87.5645L72.6103 92.578C73.1444 92.2881 73.5533 91.6772 73.7617 90.809Z" fill="#23B54B"/>
<path opacity="0.3" d="M72.6108 84.6967C73.1453 85.6039 73.5537 86.6866 73.7622 87.7955C73.8622 88.328 73.918 88.8657 73.918 89.3914C73.918 89.9175 73.8626 90.391 73.7622 90.8075C73.5537 91.6753 73.1453 92.2865 72.6108 92.5769L70.7513 87.5629V82.6875C71.4469 83.0899 72.0883 83.8096 72.6108 84.6967Z" fill="black"/>
<path d="M67.7431 84.3203C67.6431 84.7372 67.5872 85.2107 67.5872 85.7368C67.5872 86.2628 67.6427 86.8002 67.7431 87.3327L70.7539 87.5648L67.7431 84.3203Z" fill="#23B54B"/>
<path d="M68.8945 90.4315C69.417 91.3186 70.0583 92.0383 70.7539 92.4399V87.5645L68.8945 90.4315Z" fill="#23B54B"/>
<path d="M72.3237 94.9514L69.1647 93.1181C69.0048 93.0257 68.8751 93.0911 68.8751 93.2646C68.8751 93.4381 69.0048 93.6534 69.1647 93.7458L72.3237 95.5791C72.4836 95.6714 72.6133 95.606 72.6133 95.4325C72.6133 95.2594 72.4836 95.0437 72.3237 94.9514Z" fill="#455A64"/>
<path d="M73.0225 97.2438L68.4703 94.6024C68.3105 94.5101 68.1808 94.5755 68.1808 94.749C68.1808 94.9225 68.3105 95.1378 68.4703 95.2301L73.023 97.8715C73.1828 97.9638 73.3125 97.8984 73.3125 97.7249C73.3121 97.5514 73.1824 97.3361 73.0225 97.2438Z" fill="#E0E0E0"/>
<path d="M73.0225 99.1305L68.4703 96.4892C68.3105 96.3968 68.1808 96.4622 68.1808 96.6357C68.1808 96.8092 68.3105 97.0245 68.4703 97.1169L73.023 99.7582C73.1828 99.8505 73.3125 99.7851 73.3125 99.6116C73.3121 99.4381 73.1824 99.2228 73.0225 99.1305Z" fill="#E0E0E0"/>
<path d="M73.0225 101.019L68.4703 98.3778C68.3105 98.2855 68.1808 98.3509 68.1808 98.5244C68.1808 98.6979 68.3105 98.9132 68.4703 99.0055L73.023 101.647C73.1828 101.739 73.3125 101.674 73.3125 101.5C73.3121 101.327 73.1824 101.112 73.0225 101.019Z" fill="#E0E0E0"/>
<path d="M70.802 148.058C70.7502 146.512 71.7727 144.595 73.0855 143.777C73.7341 143.373 74.3313 143.314 74.7771 143.543L74.7779 143.542C77.4646 144.89 96.3466 156.998 97.5542 157.594L97.5695 157.602C97.794 157.723 97.9393 157.992 97.9522 158.38C97.9783 159.16 97.463 160.126 96.8016 160.537C96.4703 160.744 96.165 160.771 95.9393 160.65L95.9221 160.641C94.01 159.588 75.3751 151.647 71.5651 149.604L71.5642 149.603C71.5634 149.603 71.5626 149.603 71.5618 149.602C71.1165 149.362 70.8277 148.829 70.802 148.058Z" fill="#23B54B"/>
<path opacity="0.1" d="M71.5448 145.447C71.9484 144.755 72.4862 144.151 73.0858 143.777C73.732 143.374 74.3275 143.315 74.7725 143.541C74.8621 143.59 74.8898 143.607 74.8271 143.571C77.2802 144.825 91.3328 153.79 96.0613 156.704C96.0713 156.71 96.0826 156.717 96.0926 156.723C96.1585 156.764 96.2215 156.802 96.2838 156.84C96.3026 156.852 96.3231 156.865 96.342 156.876C96.3793 156.899 96.4139 156.92 96.45 156.942C96.4926 156.968 96.5364 156.995 96.5765 157.02C96.5797 157.022 96.5826 157.024 96.5862 157.025C97.0866 157.33 97.4239 157.53 97.5544 157.594L97.5697 157.602C97.6107 157.624 97.6456 157.656 97.6805 157.687C97.8384 157.83 97.9416 158.061 97.9524 158.38C97.9552 158.468 97.9492 158.559 97.9392 158.651C97.9352 158.685 97.9287 158.72 97.9227 158.755C97.9139 158.81 97.903 158.866 97.8898 158.921C97.8794 158.965 97.8681 159.009 97.8549 159.053C97.8396 159.105 97.8219 159.156 97.8034 159.208C97.7898 159.246 97.7769 159.285 97.7617 159.324C97.7593 159.33 97.7556 159.336 97.7532 159.342L71.5448 145.447Z" fill="black"/>
<path d="M96.806 160.538C97.465 160.128 97.9779 159.166 97.9522 158.39C97.9261 157.614 97.3711 157.317 96.712 157.728C96.053 158.138 95.5401 159.1 95.5663 159.876C95.592 160.651 96.1474 160.948 96.806 160.538Z" fill="#23B54B"/>
<path d="M102.448 161.057C102.469 161.653 102.074 162.392 101.568 162.707C101.316 162.864 101.084 162.886 100.912 162.796L100.91 162.795L100.909 162.795L96.3421 160.364C96.3409 160.363 96.3401 160.362 96.3388 160.362L96.3381 160.362C96.167 160.269 96.0561 160.064 96.0461 159.767C96.026 159.171 96.4204 158.432 96.9268 158.117C97.1798 157.959 97.4132 157.937 97.5858 158.029L102.153 160.46L102.152 160.46C102.326 160.551 102.438 160.757 102.448 161.057Z" fill="#37474F"/>
<path d="M102.152 160.46C102.326 160.552 102.438 160.758 102.448 161.057C102.456 161.282 102.405 161.527 102.311 161.761L96.4208 158.619C96.5629 158.412 96.7368 158.235 96.9264 158.117C97.1794 157.959 97.4127 157.937 97.5854 158.029L102.152 160.46L102.152 160.46Z" fill="#263238"/>
<path d="M96.5867 165.112C96.5867 162.185 98.5208 159.258 102.388 157.025C110.124 152.559 122.666 152.559 130.402 157.025C134.269 159.258 136.203 162.185 136.203 165.112V170.503C136.203 173.43 134.269 176.356 130.401 178.589C122.665 183.055 110.124 183.055 102.388 178.589C98.52 176.356 96.5863 173.429 96.5863 170.503V165.112H96.5867ZM129.444 158.684C125.989 156.69 121.355 155.591 116.395 155.591C111.435 155.591 106.801 156.69 103.347 158.684C100.223 160.488 98.5028 162.771 98.5028 165.112C98.5028 167.453 100.223 169.736 103.347 171.539C106.801 173.534 111.435 174.632 116.395 174.632C121.355 174.632 125.989 173.534 129.444 171.539C132.567 169.736 134.287 167.453 134.287 165.112C134.287 162.77 132.567 160.488 129.444 158.684Z" fill="#23B54B"/>
<path opacity="0.3" d="M130.406 173.199C122.67 177.665 110.128 177.665 102.392 173.199C94.6566 168.732 94.6566 161.492 102.392 157.025C110.128 152.559 122.67 152.559 130.406 157.025C138.141 161.492 138.141 168.733 130.406 173.199ZM134.291 165.112C134.291 162.771 132.571 160.488 129.447 158.685C125.993 156.69 121.359 155.592 116.399 155.592C111.438 155.592 106.804 156.69 103.35 158.685C100.226 160.488 98.5064 162.771 98.5064 165.112C98.5064 167.454 100.227 169.736 103.35 171.54C106.805 173.534 111.439 174.633 116.399 174.633C121.359 174.633 125.993 173.534 129.447 171.54C132.571 169.736 134.291 167.454 134.291 165.112Z" fill="white"/>
<path d="M134.293 165.113C134.293 166.032 134.029 166.936 133.519 167.81C132.734 166.449 131.351 165.174 129.446 164.078C125.995 162.082 121.358 160.982 116.397 160.982C111.439 160.982 106.803 162.082 103.352 164.078C101.448 165.174 100.064 166.449 99.2753 167.81C98.7697 166.936 98.5054 166.032 98.5054 165.113C98.5054 162.772 100.226 160.488 103.352 158.684C106.804 156.691 111.44 155.592 116.397 155.592C121.359 155.592 125.995 156.691 129.447 158.684C132.573 160.488 134.293 162.772 134.293 165.113Z" fill="#23B54B"/>
<path opacity="0.1" d="M134.293 165.113C134.293 166.032 134.029 166.936 133.519 167.81C132.734 166.449 131.351 165.174 129.446 164.078C125.995 162.082 121.358 160.982 116.397 160.982C111.439 160.982 106.803 162.082 103.352 164.078C101.448 165.174 100.064 166.449 99.2753 167.81C98.7697 166.936 98.5054 166.032 98.5054 165.113C98.5054 162.772 100.226 160.488 103.352 158.684C106.804 156.691 111.44 155.592 116.397 155.592C121.359 155.592 125.995 156.691 129.447 158.684C132.573 160.488 134.293 162.772 134.293 165.113Z" fill="black"/>
<path opacity="0.4" d="M129.448 161.126C125.993 159.132 121.359 158.033 116.399 158.033C111.439 158.033 106.805 159.132 103.351 161.126C100.773 162.614 99.1549 164.429 98.6666 166.333C99.1549 168.238 100.774 170.052 103.351 171.541C106.806 173.535 111.44 174.634 116.399 174.634C121.359 174.634 125.994 173.535 129.448 171.541C132.026 170.053 133.644 168.238 134.133 166.333C133.644 164.429 132.026 162.614 129.448 161.126Z" fill="white"/>
<path opacity="0.1" d="M121.066 176.23V181.617C124.487 181.142 127.732 180.134 130.403 178.59C134.272 176.357 136.207 173.43 136.207 170.503V165.112C136.207 164.522 136.127 163.932 135.97 163.346H135.966C136.904 166.828 135.05 170.514 130.403 173.199C127.732 174.744 124.487 175.752 121.066 176.23Z" fill="black"/>
</svg>
