<svg width="41" height="41" viewBox="0 0 41 41" fill="none" xmlns="http://www.w3.org/2000/svg">
<g clip-path="url(#clip0_3195_15369)">
<path d="M36.1463 31.8574H10.56L7.48633 36.9802C6.89921 37.9591 7.21598 39.2285 8.19419 39.8167C9.1733 40.4051 10.444 40.0884 11.0325 39.1093L11.6988 38.0004C12.4467 36.7556 13.7926 35.994 15.2448 35.994H31.4656C32.9194 35.994 34.2664 36.7571 35.0138 38.004L35.6749 39.1071C36.2627 40.0873 37.5336 40.4054 38.5137 39.8176C38.5139 39.8175 38.5141 39.8174 38.5143 39.8173C39.4943 39.2293 39.8122 37.9582 39.2242 36.9782C39.2239 36.9777 39.2236 36.9772 39.2233 36.9767L36.1463 31.8574Z" fill="#C6782A"/>
<path d="M13.3089 26.3419H35.3719C37.6566 26.3419 39.5088 28.194 39.5088 30.4787C39.5088 31.2403 38.8914 31.8576 38.1298 31.8576H10.551L1.7552 23.0619C0.61285 21.9195 0.61285 20.0674 1.7552 18.9251C2.89755 17.7828 4.74962 17.7828 5.89203 18.9251L13.3089 26.3419Z" fill="#23B54B"/>
<path d="M16.956 1.75602C9.45705 3.0842 2.98193 9.83248 3.7035 13.9059L33.5754 8.61547C32.8539 4.54215 24.455 0.427979 16.956 1.75602Z" fill="#E32728"/>
<path d="M16.956 1.75522C13.9564 2.28648 10.9206 7.213 11.8502 12.4623L25.4286 10.0575C24.4987 4.80832 19.9556 1.22404 16.956 1.75522Z" fill="#C3E7F4"/>
<path d="M9.15078 27.0317C8.96791 27.0319 8.79248 26.9592 8.66333 26.8297L5.21597 23.3823C4.94335 23.1165 4.93777 22.68 5.20364 22.4074C5.46951 22.1348 5.90599 22.1292 6.17861 22.395C6.18281 22.3991 6.18688 22.4032 6.19094 22.4074L9.6383 25.8547C9.90755 26.124 9.90755 26.5605 9.6383 26.8298C9.50895 26.9591 9.33358 27.0317 9.15078 27.0317Z" fill="#23B54B"/>
<path d="M36.0451 29.7891H29.1504C28.7697 29.7891 28.4609 29.4804 28.4609 29.0996C28.4609 28.7189 28.7697 28.4102 29.1504 28.4102H36.0451C36.4259 28.4102 36.7346 28.7189 36.7346 29.0996C36.7346 29.4804 36.4259 29.7891 36.0451 29.7891Z" fill="#00AD45"/>
<path d="M3.65041 21.4981C4.0312 21.4981 4.33988 21.1894 4.33988 20.8086C4.33988 20.4278 4.0312 20.1191 3.65041 20.1191C3.26963 20.1191 2.96094 20.4278 2.96094 20.8086C2.96094 21.1894 3.26963 21.4981 3.65041 21.4981Z" fill="#23B54B"/>
<path d="M11.7034 10.3777C11.3226 10.3767 11.0147 10.0673 11.0156 9.6865C11.0165 9.3532 11.2557 9.06818 11.5838 9.00949L15.9284 8.24033C16.3016 8.16498 16.6653 8.40647 16.7407 8.77972C16.816 9.15297 16.5745 9.51665 16.2013 9.592C16.1905 9.5942 16.1796 9.59613 16.1687 9.59778L11.8241 10.367C11.7843 10.3742 11.7439 10.3778 11.7034 10.3777Z" fill="white"/>
<path d="M7.70728 11.0877C7.32652 11.0867 7.01857 10.7773 7.01953 10.3965C7.02036 10.0632 7.25957 9.7782 7.58771 9.71952L11.5953 9.00986C11.9685 8.93451 12.3322 9.176 12.4075 9.54925C12.4829 9.9225 12.2414 10.2862 11.8682 10.3615C11.8573 10.3637 11.8465 10.3657 11.8356 10.3673L7.82803 11.077C7.78822 11.0842 7.74778 11.0878 7.70728 11.0877Z" fill="#EE7D7E"/>
<path d="M18.8067 9.08793C19.1874 9.08793 19.4961 8.77924 19.4961 8.39846C19.4961 8.01767 19.1874 7.70898 18.8067 7.70898C18.4259 7.70898 18.1172 8.01767 18.1172 8.39846C18.1172 8.77924 18.4259 9.08793 18.8067 9.08793Z" fill="white"/>
<path d="M37.3518 32.5475H38.126C39.2679 32.5462 40.1932 31.6209 40.1945 30.4791C40.1914 27.8148 38.0324 25.6559 35.3681 25.6528H21.894L19.4441 11.8202L25.5535 10.7382H25.554H25.5544L33.701 9.29536C34.0756 9.22923 34.3258 8.87196 34.2597 8.49726C34.2596 8.49685 34.2595 8.49651 34.2595 8.49609C33.4724 4.04966 24.8853 -0.347803 16.8414 1.07832C8.79894 2.50286 2.24261 9.58085 3.02968 14.0267C3.08823 14.3561 3.37449 14.5961 3.70903 14.5962C3.74933 14.5963 3.78955 14.5926 3.82922 14.5854L18.0862 12.0605L20.4935 25.6526H13.5906L6.37573 18.4383C4.96957 17.0212 2.68095 17.0123 1.26392 18.4185C-0.153116 19.8246 -0.162001 22.1132 1.24415 23.5303C1.25069 23.5369 1.25731 23.5435 1.26392 23.55L9.67906 31.9648L6.8824 36.6264C6.09842 37.932 6.5214 39.626 7.82706 40.41C9.13272 41.194 10.8267 40.771 11.6107 39.4653L12.2766 38.3564C12.9027 37.3218 14.0226 36.6883 15.2318 36.6846H22.447L23.0755 40.2342C23.1342 40.563 23.4199 40.8025 23.7539 40.8029C23.7944 40.8029 23.8349 40.7993 23.8748 40.7921C24.2497 40.7259 24.5 40.3681 24.4337 39.9931C24.4337 39.9931 24.4336 39.9929 24.4336 39.9929L23.8476 36.6842H31.4525C32.6632 36.6876 33.7842 37.3228 34.4094 38.3596L35.0706 39.4618C35.4452 40.0912 36.0563 40.5444 36.7674 40.7201C36.988 40.7754 37.2144 40.8034 37.4418 40.8036C38.9657 40.8005 40.1987 39.5626 40.1956 38.0387C40.1945 37.5398 40.0583 37.0505 39.8014 36.6229L37.3518 32.5475ZM13.5464 5.65948C14.4658 3.89475 15.8206 2.65928 17.0817 2.43563C18.3434 2.2135 20.0395 2.90766 21.5091 4.24954C23.0371 5.65796 24.1147 7.48661 24.6065 9.50564L12.4425 11.6598C12.2109 9.59463 12.595 7.507 13.5464 5.65948ZM32.7055 8.07132L25.9645 9.26512C25.418 6.94702 24.1902 4.84555 22.4389 3.23152C22.0429 2.87067 21.6191 2.54178 21.1714 2.2478C26.5348 2.62567 31.5685 5.30372 32.7055 8.07132ZM13.1766 3.6636C12.857 4.0934 12.5718 4.54779 12.3238 5.02256C11.2332 7.13995 10.8015 9.53546 11.0845 11.9004L4.34368 13.0942C4.46105 10.1043 8.26885 5.85992 13.1766 3.6636ZM1.58407 20.9945C1.58241 20.4011 1.81825 19.8319 2.23903 19.4136C3.12384 18.5693 4.51601 18.5693 5.40089 19.4136L12.8176 26.8297C12.9469 26.959 13.1222 27.0316 13.305 27.0317H35.3681C37.2711 27.0339 38.8132 28.576 38.8154 30.4791C38.815 30.8597 38.5066 31.1681 38.126 31.1685H10.8327L2.23889 22.5751C1.81825 22.1568 1.58241 21.5876 1.58407 20.9945ZM38.7755 38.3783C38.591 39.1174 37.8421 39.567 37.103 39.3825C36.7474 39.2937 36.4418 39.0671 36.2536 38.7527L35.5921 37.6496C34.7164 36.1988 33.1472 35.3101 31.4526 35.3054H23.1803C23.0889 35.2837 22.9941 35.2811 22.9018 35.2979C22.8949 35.2992 22.8897 35.3039 22.8829 35.3054H15.2318C13.5388 35.3104 11.9709 36.1977 11.0949 37.6465L10.429 38.7547C10.033 39.4049 9.18479 39.6109 8.53458 39.2149C7.89043 38.8225 7.68118 37.9853 8.06504 37.336L10.9381 32.5475H35.7432L38.6193 37.3324C38.809 37.6462 38.8653 38.0228 38.7755 38.3783Z" fill="black"/>
</g>
<defs>
<clipPath id="clip0_3195_15369">
<rect width="40.0001" height="40" fill="white" transform="translate(0.191406 0.800781)"/>
</clipPath>
</defs>
</svg>
