<svg width="44" height="40" viewBox="0 0 44 40" fill="none" xmlns="http://www.w3.org/2000/svg">
<g clip-path="url(#clip0_3195_15591)">
<path d="M41.9355 35.6466C42.5182 35.6466 42.9951 35.196 42.9951 34.6452V34.4252C42.9951 33.8745 42.5184 33.4238 41.9355 33.4238" fill="#C2C7D0"/>
<path d="M41.9355 35.6475C42.5182 35.6475 42.9951 35.197 42.9951 34.6462V34.4261C42.9951 34.266 42.9538 34.115 42.8824 33.9805C42.7081 34.3088 42.349 34.5361 41.9355 34.5361" fill="#ABB0B7"/>
<path d="M41.9395 35.6468C42.5221 35.6468 42.999 35.2045 42.999 34.6638V34.4478C42.999 33.9072 42.5223 33.4648 41.9395 33.4648" stroke="#474D54" stroke-width="15" stroke-miterlimit="10" stroke-linecap="round" stroke-linejoin="round"/>
<path d="M19.1424 33.4656C19.1424 33.007 19.1424 15.3946 19.1424 14.717C19.1424 14.4621 19.365 14.2555 19.6396 14.2555H35.4381V4.95346C35.4381 4.54143 35.0017 4.25135 34.5814 4.38409L4.7279 13.8111C4.18232 13.9834 3.81543 14.459 3.81543 14.9939V33.4656L19.1424 33.4656Z" fill="#23B54B"/>
<path d="M5.7055 13.502L4.72838 13.8103C4.18251 13.9826 3.81543 14.4581 3.81543 14.9931V33.4648H5.49985V14.1809C5.49985 13.9353 5.57404 13.7019 5.7055 13.502Z" fill="#23B54B"/>
<path d="M40.4736 14.0996H19.4708C19.1963 14.0996 18.9736 14.3063 18.9736 14.5611C18.9736 15.2387 18.9736 33.0073 18.9736 33.4659H40.9884C40.9884 33.0431 40.9884 14.924 40.9884 14.5773C40.9883 14.3136 40.7579 14.0996 40.4736 14.0996Z" fill="white"/>
<path d="M20.6571 33.4659C20.6571 33.0073 20.6571 15.2387 20.6571 14.5611C20.6571 14.3063 20.8797 14.0996 21.1543 14.0996H19.4708C19.1963 14.0996 18.9736 14.3063 18.9736 14.5611C18.9736 15.2387 18.9736 33.0073 18.9736 33.4659H20.6571Z" fill="#E4EAF8"/>
<path d="M40.4736 14.0996H19.4708C19.1963 14.0996 18.9736 14.3063 18.9736 14.5611C18.9736 14.8191 18.9736 17.912 18.9736 21.6684H40.9884C40.9884 17.8427 40.9884 14.7108 40.9884 14.5773C40.9883 14.3135 40.7579 14.0996 40.4736 14.0996Z" fill="#FFC850"/>
<path d="M18.9736 14.5611C18.9736 14.8191 18.9736 17.912 18.9736 21.6684H20.6571C20.6571 18.0046 20.6571 14.8396 20.6571 14.5611C20.6571 14.3062 20.8797 14.0996 21.1543 14.0996H19.4708C19.1999 14.0995 18.9736 14.3032 18.9736 14.5611Z" fill="#FEA82F"/>
<path d="M35.1826 23.8789H24.7709C24.6348 23.8789 24.5244 23.9813 24.5244 24.1077C24.5244 24.4435 24.5244 33.2374 24.5244 33.4648H35.4378C35.4378 33.2552 35.4378 24.2875 35.4378 24.1157C35.4378 23.9849 35.3236 23.8789 35.1826 23.8789Z" fill="#FFC850"/>
<path d="M29.9811 23.8789H24.7709C24.6348 23.8789 24.5244 23.9813 24.5244 24.1077C24.5244 24.4435 24.5244 33.2374 24.5244 33.4648H29.9811V23.8789Z" fill="#FEA82F"/>
<path d="M26.4553 23.8789H24.771C24.6348 23.8789 24.5244 23.9813 24.5244 24.1077C24.5244 24.4435 24.5244 33.2374 24.5244 33.4648H26.2088C26.2088 33.2374 26.2088 24.4435 26.2088 24.1077C26.2087 23.9813 26.3192 23.8789 26.4553 23.8789Z" fill="#FF8031"/>
<path d="M15.7493 30.5156H7.05664V33.465H15.7493V30.5156Z" fill="#23B54B"/>
<path d="M15.7493 27.5664H7.05664V30.5158H15.7493V27.5664Z" fill="#23B54B"/>
<path d="M15.7493 24.6172H7.05664V27.5666H15.7493V24.6172Z" fill="#23B54B"/>
<path d="M8.74098 30.5156H7.05664V33.465H8.74098V30.5156Z" fill="#5FA77E"/>
<path d="M8.74098 27.5664H7.05664V30.5158H8.74098V27.5664Z" fill="#23B54B"/>
<path d="M8.74098 24.6172H7.05664V27.5666H8.74098V24.6172Z" fill="#5FA77E"/>
<path d="M15.749 24.6173V22.2496C15.749 21.9284 15.4685 21.668 15.1224 21.668H7.68328C7.33718 21.668 7.05664 21.9284 7.05664 22.2496V24.6173H15.749Z" fill="#23B54B"/>
<path d="M9.36674 21.668H7.68328C7.33718 21.668 7.05664 21.9284 7.05664 22.2496V24.6173H8.7401V22.2496C8.7401 21.9284 9.02072 21.668 9.36674 21.668Z" fill="#23B54B"/>
<path d="M41.936 33.4258C40.9163 33.4258 2.59884 33.4258 2.2221 33.4258C1.63973 33.4258 1.16309 33.8763 1.16309 34.4271V34.6472C1.16309 35.1979 1.63957 35.6485 2.2221 35.6485C2.58394 35.6485 41.431 35.6485 41.936 35.6485" fill="#C2C7D0"/>
<path d="M41.936 34.5361C41.431 34.5361 2.58402 34.5361 2.2221 34.5361C1.809 34.5361 1.45002 34.3088 1.2757 33.9805C1.20433 34.115 1.16309 34.266 1.16309 34.4261V34.6462C1.16309 35.1969 1.63957 35.6475 2.2221 35.6475C2.58394 35.6475 41.431 35.6475 41.936 35.6475" fill="#ABB0B7"/>
<path d="M25.1119 18.6348C25.026 18.7698 24.8936 18.8128 24.7679 18.8128C24.6488 18.8128 24.5231 18.7759 24.4437 18.6348L23.8152 17.5663V19.9305C23.8152 20.127 23.5572 20.2252 23.2992 20.2252C23.0413 20.2252 22.7832 20.1269 22.7832 19.9305V16.2152C22.7832 15.8652 23.0412 15.7363 23.2992 15.7363C23.6697 15.7363 23.8285 15.7732 24.0998 16.2152L24.7812 17.3206L25.4626 16.2152C25.7338 15.7731 25.8927 15.7363 26.2632 15.7363C26.5278 15.7363 26.7791 15.8652 26.7791 16.2152V19.9305C26.7791 20.127 26.5211 20.2252 26.2632 20.2252C26.0052 20.2252 25.7471 20.1269 25.7471 19.9305V17.6276L25.1119 18.6348Z" fill="white"/>
<path d="M27.1631 19.832C27.1631 19.8136 27.1697 19.7891 27.1763 19.7645L28.4068 16.0185C28.4797 15.8036 28.7773 15.6992 29.0816 15.6992C29.3859 15.6992 29.6836 15.8036 29.7564 16.0185L30.9936 19.7645C31.0003 19.789 31.0068 19.8136 31.0068 19.832C31.0068 20.0592 30.6297 20.225 30.3453 20.225C30.1799 20.225 30.0476 20.1759 30.0078 20.047L29.7829 19.2793H28.387L28.1621 20.047C28.1224 20.1759 27.9901 20.225 27.8247 20.225C27.5402 20.225 27.1631 20.0592 27.1631 19.832ZM29.5648 18.5425L29.0818 16.8968L28.5988 18.5425H29.5648Z" fill="white"/>
<path d="M31.8405 20.2252C31.6156 20.2252 31.3906 20.127 31.3906 19.9305V16.0249C31.3906 15.8223 31.6486 15.7363 31.9067 15.7363C32.1647 15.7363 32.4226 15.8223 32.4226 16.0249V19.3902H33.931C34.1295 19.3902 34.2287 19.5989 34.2287 19.8077C34.2287 20.0165 34.1295 20.2253 33.931 20.2253H31.8404V20.2252H31.8405Z" fill="white"/>
<path d="M35.0954 20.2252C34.8705 20.2252 34.6455 20.127 34.6455 19.9305V16.0249C34.6455 15.8223 34.9035 15.7363 35.1615 15.7363C35.4196 15.7363 35.6775 15.8223 35.6775 16.0249V19.3902H37.1859C37.3844 19.3902 37.4836 19.5989 37.4836 19.8077C37.4836 20.0165 37.3844 20.2253 37.1859 20.2253H35.0953V20.2252H35.0954Z" fill="white"/>
<path d="M20.6092 35.0609H2.22543C1.99363 35.0609 1.79777 34.8791 1.79777 34.6639V34.4479C1.79777 34.2328 1.99363 34.051 2.22543 34.051H41.9394C42.288 34.051 42.5706 33.7886 42.5706 33.465C42.5706 33.1414 42.288 32.8791 41.9394 32.8791H41.6232V27.1282C41.6232 26.8046 41.3406 26.5422 40.992 26.5422C40.6433 26.5422 40.3607 26.8046 40.3607 27.1282V32.8791H19.6084V22.2534H40.3605V24.3934C40.3605 24.717 40.6432 24.9793 40.9918 24.9793C41.3404 24.9793 41.6231 24.717 41.6231 24.3934V14.5764C41.6231 14.0861 41.2638 13.6721 40.7768 13.5496C40.7722 13.5484 40.7677 13.5473 40.763 13.5462C40.7311 13.5386 40.6985 13.5321 40.6655 13.5271C40.6561 13.5256 40.6465 13.5243 40.637 13.523C40.6275 13.5218 40.6179 13.5207 40.6084 13.5196C40.5653 13.515 40.5215 13.5127 40.477 13.5127H36.0724V11.9582C36.4104 11.9471 36.6809 11.6893 36.6809 11.3727C36.6809 11.0561 36.4105 10.7983 36.0724 10.7871V9.55988C36.4104 9.54871 36.6809 9.2909 36.6809 8.97434C36.6809 8.65777 36.4105 8.39996 36.0724 8.38879V4.95277C36.0724 4.57074 35.8726 4.20981 35.5379 3.98738C35.2033 3.76488 34.7706 3.70559 34.3811 3.82871L4.52762 13.2557C3.72583 13.5089 3.18715 14.2072 3.18715 14.9932V32.8789H2.22543C1.29343 32.8789 0.535156 33.5828 0.535156 34.4479V34.6639C0.535156 35.529 1.29343 36.2328 2.22543 36.2328H20.6093C20.958 36.2328 21.2406 35.9704 21.2406 35.6468C21.2406 35.3232 20.958 35.0609 20.6092 35.0609ZM40.3605 21.0814H19.6084V14.6846H40.3605V21.0814ZM4.44976 14.9932C4.44976 14.709 4.64444 14.4567 4.93424 14.3651L34.7878 4.93816C34.7927 4.93652 34.796 4.93559 34.8029 4.9402C34.8098 4.9448 34.8099 4.94801 34.8099 4.95277V8.38832H29.9845C29.6358 8.38832 29.3532 8.65066 29.3532 8.97426C29.3532 9.29785 29.6358 9.5602 29.9845 9.5602H34.8099V10.7866H29.9845C29.6358 10.7866 29.3532 11.0489 29.3532 11.3725C29.3532 11.6961 29.6358 11.9585 29.9845 11.9585H34.8099V13.5125H19.4743C19.4354 13.5125 19.397 13.5143 19.3591 13.5179C19.3496 13.5187 19.3401 13.5197 19.3308 13.5209C19.3215 13.5221 19.312 13.5232 19.3027 13.5246C19.2933 13.5259 19.2841 13.5273 19.2748 13.5289C19.2609 13.5312 19.2471 13.5337 19.2334 13.5365C18.7266 13.6392 18.3457 14.0591 18.3457 14.56V32.8789H4.44976V14.9932Z" fill="#474D54"/>
<path d="M41.939 35.0605H23.5551C23.2065 35.0605 22.9238 35.3229 22.9238 35.6465C22.9238 35.9701 23.2065 36.2324 23.5551 36.2324H41.939C42.2876 36.2324 42.5702 35.9701 42.5702 35.6465C42.5702 35.3229 42.2876 35.0605 41.939 35.0605Z" fill="#474D54"/>
</g>
<defs>
<clipPath id="clip0_3195_15591">
<rect width="43.0944" height="40" fill="white" transform="translate(0.535156)"/>
</clipPath>
</defs>
</svg>
